<svg width="204" height="816" viewBox="0 0 204 816" fill="none" xmlns="http://www.w3.org/2000/svg">
<g clip-path="url(#clip0_359_7870)">
<path d="M204.671 0.0322266H0.670898V816.032H204.671V0.0322266Z" fill="#DBDDE2"/>
<path d="M76.1084 17.499C48.6003 18.0196 22.5371 20.984 0.670898 26.2434V46.3459C13.9013 43.2926 27.3175 41.1098 40.8334 39.8115C50.8171 29.882 62.8588 22.2653 76.1084 17.499Z" fill="#1A1A1A"/>
<path d="M20.3342 145.945C13.4917 147.007 6.91484 148.367 0.699219 149.865V169.968C10.6919 167.642 20.7995 165.84 30.9805 164.57C26.7466 158.779 23.1756 152.532 20.3342 145.945Z" fill="#1A1A1A"/>
<path d="M108.604 204.032H196.165C180.842 200.052 165.295 196.994 149.606 194.873C136.787 200.928 122.782 204.056 108.604 204.032Z" fill="#1A1A1A"/>
<path d="M0.670898 199.315V204.032H108.61C91.7193 204.056 75.1234 199.605 60.5109 191.133C38.7934 192.345 18.3721 195.065 0.670898 199.315Z" fill="#1A1A1A"/>
<path d="M34.1609 168.693C22.8939 170.016 11.7121 171.985 0.670898 174.59L0.670898 194.682C18.2344 190.668 36.0988 188.11 54.0828 187.032C46.6161 181.882 39.9099 175.709 34.1609 168.693Z" fill="#1A1A1A"/>
<path d="M36.1584 44.8374C24.2172 46.1686 12.3667 48.2158 0.670898 50.968L0.670898 71.0599C7.32215 69.498 14.3346 68.138 21.6765 66.9693C25.4604 58.9596 30.3338 51.5117 36.1584 44.8374Z" fill="#1A1A1A"/>
<path d="M19.5161 71.9097C12.9711 72.9722 6.67047 74.2578 0.699219 75.6922V95.7947C4.91734 94.8065 9.16734 93.914 13.6723 93.0959C14.7936 85.8314 16.7546 78.7217 19.5161 71.9097Z" fill="#1A1A1A"/>
<path d="M13.6121 122.4C9.1709 123.282 4.85715 124.142 0.670898 125.141V145.233C6.35527 143.894 12.3584 142.704 18.5846 141.663C16.2565 135.434 14.5898 128.978 13.6121 122.4Z" fill="#1A1A1A"/>
<path d="M12.5248 107.95C12.5245 104.55 12.7018 101.152 13.0561 97.771C8.80609 98.5785 4.68359 99.4604 0.699219 100.417V120.509C4.67297 119.563 8.79547 118.702 13.0348 117.916C12.6935 114.605 12.5233 111.278 12.5248 107.95Z" fill="#1A1A1A"/>
<path d="M195.041 149.972C198.314 150.8 201.533 151.661 204.699 152.575V132.228L201.809 131.42C200.197 137.82 197.929 144.037 195.041 149.972Z" fill="#1A1A1A"/>
<path d="M184.058 48.4396C191.155 50.0333 198.061 51.7652 204.702 53.6777V33.3308C187.364 28.3523 169.697 24.603 151.832 22.1108C164.362 28.4366 175.36 37.4221 184.058 48.4396Z" fill="#1A1A1A"/>
<path d="M7.26902 0.0322266C5.03777 0.510352 2.84902 0.999102 0.670898 1.51973V21.6222C26.5534 15.5022 58.4072 12.4635 92.9278 13.1222C98.1019 12.2772 103.336 11.8508 108.578 11.8472C117.934 11.8383 127.241 13.1986 136.203 15.8847C159.355 18.2922 182.26 22.6642 204.671 28.9535V8.61723C192.652 5.12312 180.459 2.25756 168.142 0.0322266L7.26902 0.0322266Z" fill="#1A1A1A"/>
<path d="M199.602 76.9889C201.313 77.4458 203.023 77.9133 204.702 78.402V58.0551C199.22 56.4508 193.588 54.9845 187.872 53.6245C192.832 60.8398 196.779 68.7012 199.602 76.9889Z" fill="#1A1A1A"/>
<path d="M188.623 0.0317383C194.113 1.32799 199.461 2.74466 204.667 4.28174V0.0317383H188.623Z" fill="#1A1A1A"/>
<path d="M204.668 127.85V107.95C204.673 114.452 204.018 120.938 202.713 127.308C203.393 127.532 204.052 127.659 204.668 127.85Z" fill="#1A1A1A"/>
<path d="M180.814 171.338C189.07 173.113 197.049 175.1 204.699 177.288V156.952C200.882 155.833 197.007 154.77 193.076 153.765C189.656 160.061 185.544 165.956 180.814 171.338Z" fill="#1A1A1A"/>
<path d="M156.016 191.537C172.44 193.992 188.69 197.495 204.667 202.024V181.719C195.891 179.159 186.775 176.917 177.457 174.983C171.122 181.48 163.904 187.052 156.016 191.537Z" fill="#1A1A1A"/>
<path d="M204.573 103.094H204.7V82.7794L201.088 81.77C203.055 88.7229 204.224 95.8771 204.573 103.094Z" fill="#1A1A1A"/>
<path d="M204.666 303.121V275.4C180.536 324.275 167.319 379.036 174.916 408.032H187.442C182.098 383.467 188.367 345.249 204.666 303.121Z" fill="#1A1A1A"/>
<path d="M27.5096 292.623C42.799 256.743 62.5721 225.399 82.9615 204.032H58.6409C35.7334 226.079 15.3546 259.42 0.670898 293.728V327.388C3.27402 318.984 6.30215 310.282 9.7659 301.495L27.5096 292.623Z" fill="#1A1A1A"/>
<path d="M109.777 408.032H122.315C116.524 381.714 124.132 339.713 143.161 294.026C156.899 261.088 174.462 231.657 192.992 209.887L204.669 204.032H189.019C136.977 254.15 97.856 362.653 109.777 408.032Z" fill="#1A1A1A"/>
<path d="M175.759 294.026C183.761 274.65 193.434 256.007 204.669 238.308V222.859C161.457 277.621 131.782 367.731 142.375 408.032H154.902C149.122 381.714 156.729 339.713 175.759 294.026Z" fill="#1A1A1A"/>
<path d="M45.3826 294.025C47.2526 289.542 49.1899 285.129 51.1945 280.787L69.9157 271.426C83.4201 244.46 99.2726 221.032 115.55 204.032H91.2401C39.1776 254.15 0.0775862 362.652 11.9988 408.032H24.5257C18.7351 381.714 26.3532 339.713 45.3826 294.025Z" fill="#1A1A1A"/>
<path d="M50.364 204.032H0.670898V279.703C15.0359 249.242 32.4503 222.785 50.364 204.032Z" fill="#1A1A1A"/>
<path d="M110.574 294.025C118.953 273.73 129.178 254.247 141.121 235.822L163.529 224.612C168.842 217.405 174.594 210.532 180.752 204.032H156.432C104.38 254.15 65.2587 362.652 77.1693 408.032H89.7068C83.9375 381.714 91.545 339.713 110.574 294.025Z" fill="#1A1A1A"/>
<path d="M77.9745 294.025C82.9347 282.086 88.5097 270.411 94.677 259.048L114.748 249.007C125.213 231.455 136.582 216.144 148.153 204.032H123.832C71.7695 254.15 32.6588 362.652 44.5907 408.032H57.1176C51.3376 381.714 58.9451 339.713 77.9745 294.025Z" fill="#1A1A1A"/>
<path d="M94.8297 692.676C55.5703 676.324 21.7509 654.585 0.670898 632.581V644.12C22.6859 664.902 54.9222 684.952 91.674 700.22C126.737 714.808 160.365 722.692 185.588 722.692C192.014 722.769 198.429 722.131 204.713 720.79V712.29C181.211 718.707 139.423 711.249 94.8297 692.676Z" fill="#1A1A1A"/>
<path d="M95.074 724.657C55.6021 708.231 21.6553 686.343 0.670898 664.232V677.609C22.739 698.307 54.8584 718.282 91.419 733.454C126.864 748.223 160.003 756.075 185.153 756.075C191.711 756.142 198.257 755.483 204.671 754.109V744.292C181.381 750.677 139.657 743.229 95.074 724.657Z" fill="#1A1A1A"/>
<path d="M204.671 808.127C160.577 820.569 48.6534 779.195 0.670898 727.526V744.526C22.8346 765.032 54.699 784.72 90.9196 799.776C106.511 806.366 122.566 811.799 138.955 816.032H204.671V808.127Z" fill="#1A1A1A"/>
<path d="M95.329 756.659C55.634 740.127 21.549 718.101 0.670898 695.884V711.089C22.7921 731.691 54.7734 751.464 91.164 766.657C126.683 781.447 159.908 789.321 185.174 789.321C191.726 789.383 198.265 788.72 204.671 787.344V776.188C181.562 782.637 139.858 775.221 95.329 756.659Z" fill="#1A1A1A"/>
<path d="M58.9781 612.032H48.1406C62.3151 620.282 77.0245 627.576 92.1706 633.866C127.106 648.39 160.532 656.253 185.543 656.253C191.972 656.33 198.388 655.674 204.668 654.298V648.55C173.027 656.827 110.796 640.369 58.9781 612.032Z" fill="#1A1A1A"/>
<path d="M55.0921 816.032H85.554C52.3828 801.157 20.7415 781.044 0.670898 759.178V778.058C15.2059 791.425 33.8421 804.43 55.0921 816.032Z" fill="#1A1A1A"/>
<path d="M139.303 612.032H123.524C145.837 619.044 167.193 623.124 185.022 623.124C191.631 623.184 198.224 622.47 204.668 620.999V616.579C188.783 620.712 165.291 618.651 139.303 612.032Z" fill="#1A1A1A"/>
<path d="M94.5726 660.684C62.1664 647.179 33.447 630.009 12.5051 612.032H2.16699C24.097 632.41 55.8126 652.024 91.9164 667.059C126.873 681.625 160.448 689.488 185.565 689.488C191.992 689.564 198.407 688.919 204.69 687.565V680.467C181.028 686.747 139.176 679.267 94.5726 660.684Z" fill="#1A1A1A"/>
<path d="M102.487 521.719L106.578 525.82C109.411 519.785 112.149 513.623 114.791 507.333C130.155 470.432 138.952 435.168 140.057 408.074H115.62C114.557 435.423 105.941 470.645 90.6831 507.259C90.4281 507.885 90.1518 508.512 89.8862 509.139L90.3325 509.596C87.1379 516.261 84.0708 523.136 81.1312 530.219C68.8275 559.757 60.7631 588.179 57.5225 612.032H75.8506C78.9637 587.414 87.1025 558.45 99.7887 527.999C100.674 525.874 101.574 523.78 102.487 521.719Z" fill="#1A1A1A"/>
<path d="M37.9965 457.194C42.884 439.344 45.7846 422.472 46.2522 408.032H17.8728C17.5254 416.778 16.5311 425.486 14.8978 434.085L12.454 431.652C13.8443 423.847 14.6857 415.955 14.9721 408.032H0.670898V419.858L7.7259 426.923C5.36006 430.111 3.0084 433.401 0.670898 436.794V464.578C6.17465 454.878 11.8909 445.634 17.7771 436.953L27.4353 446.612C17.5205 461.564 8.58048 477.141 0.670898 493.245L0.670898 534.002C2.5409 529.044 4.52069 524.054 6.61027 519.032C15.4721 497.645 25.9651 476.972 37.9965 457.194Z" fill="#1A1A1A"/>
<path d="M58.8322 478.03L61.9453 481.143C71.1678 454.633 76.8203 428.9 77.5215 408.032H50.6722C50.2365 423.704 46.964 441.798 41.524 460.711L47.7609 466.948C36.8313 485.314 27.2438 504.446 19.0734 524.195C11.7267 541.642 5.57827 559.569 0.670898 577.852L0.670898 612.032H12.0609C15.3653 585.693 24.0778 554.657 37.6672 522.017C43.9225 506.983 50.9878 492.299 58.8322 478.03Z" fill="#1A1A1A"/>
<path d="M127.816 547.017C134.032 535.33 139.876 522.909 145.241 510.032C161.03 472.122 170.104 435.912 171.315 408.032H148.195C147.069 436.347 138.091 472.706 122.366 510.457C119.313 517.781 116.104 524.942 112.739 531.94L112.888 532.079C101.264 559.905 92.998 588.083 89.6299 612.032H107.692C110.242 591.982 116.192 568.969 125.383 544.637L127.816 547.017Z" fill="#1A1A1A"/>
<path d="M80.3565 499.502L84.6065 503.827C99.3752 468.19 107.79 434.159 108.778 408.032H83.0871C82.3433 429.76 76.5314 456.747 66.2358 485.424L68.7221 487.91C62.0602 500.299 55.7914 513.464 50.0752 527.223C37.3252 557.844 28.9739 587.307 25.6377 612.074H43.9552C47.1427 586.574 55.5896 556.59 68.7221 525.045C72.3665 516.269 76.2446 507.747 80.3565 499.502Z" fill="#1A1A1A"/>
<path d="M200.537 612.032H204.67V606.124C203.303 608.122 201.925 610.091 200.537 612.032Z" fill="#1A1A1A"/>
<path d="M204.669 581.411V548.144C196.523 564.767 187.313 580.848 177.097 596.286L186.309 605.508C185.926 607.718 185.565 609.897 185.246 612.032H192.822L187.7 606.911C193.502 598.963 199.175 590.442 204.669 581.411Z" fill="#1A1A1A"/>
<path d="M168.372 587.594C182.458 565.845 194.603 542.899 204.667 519.02V461.061C199.658 480.108 193.317 498.78 185.691 516.938C177.32 537.138 167.494 556.704 156.291 575.482L160.403 579.593C157.353 590.24 155.007 601.077 153.38 612.032H171.549C172.257 606.23 173.319 600.181 174.736 593.884L168.372 587.594Z" fill="#1A1A1A"/>
<path d="M148.407 567.598C158.749 549.969 167.869 531.651 175.703 512.773C191.917 473.907 201.256 436.719 202.542 408.032H180.761C179.517 437.325 170.231 474.81 154.028 513.697C148.163 527.775 141.714 541.322 134.903 554.072L136.157 555.326C129.017 575.259 123.917 594.777 121.505 612.032H139.652C141.673 597.293 144.94 582.752 149.417 568.565L148.407 567.598Z" fill="#1A1A1A"/>
<mask id="mask0_359_7870" style="mask-type:luminance" maskUnits="userSpaceOnUse" x="12" y="11" width="193" height="194">
<path d="M12.5264 107.939V107.95C12.5264 161.014 55.5437 204.032 108.608 204.032H108.619C161.683 204.032 204.701 161.014 204.701 107.95V107.939C204.701 54.8747 161.683 11.8574 108.619 11.8574H108.608C55.5437 11.8574 12.5264 54.8747 12.5264 107.939Z" fill="white"/>
</mask>
<g mask="url(#mask0_359_7870)">
<mask id="mask1_359_7870" style="mask-type:luminance" maskUnits="userSpaceOnUse" x="12" y="11" width="193" height="194">
<path d="M12.5264 11.8574L12.5264 204.032H204.701V11.8574H12.5264Z" fill="white"/>
</mask>
<g mask="url(#mask1_359_7870)">
<path d="M264.098 35.0202C184.485 -18.7636 5.75093 -19.093 -46.4072 21.3777L-49.1484 17.8395C-22.9259 -2.49671 34.3428 -13.6848 100.377 -11.3898C168.377 -9.00984 230.565 6.94891 266.605 31.312L264.098 35.0202Z" fill="#1A1A1A"/>
<path d="M264.098 59.7446C184.485 5.96086 5.75093 5.65273 -46.4072 46.1021L-49.1484 42.5321C-22.9259 22.2277 34.3853 11.0609 100.377 13.3346C168.377 15.7146 230.565 31.6734 266.605 56.0365L264.098 59.7446Z" fill="#1A1A1A"/>
<path d="M264.098 84.4689C184.485 30.6851 5.75093 30.3876 -46.4072 70.8264L-49.1484 67.2883C-22.9259 46.952 34.3853 35.7639 100.377 38.0589C168.42 40.407 230.565 56.3976 266.605 80.782L264.098 84.4689Z" fill="#1A1A1A"/>
<path d="M264.098 109.193C184.485 55.4096 5.75093 55.1121 -46.4072 95.5509L-49.1484 92.0127C-22.9259 71.6765 34.3428 60.4777 100.377 62.7834C168.377 65.1634 230.565 81.1221 266.605 105.485L264.098 109.193Z" fill="#1A1A1A"/>
<path d="M264.098 133.907C184.485 80.134 5.75093 79.8259 -46.4072 120.275L-49.1484 116.737C-22.9259 96.4009 34.3853 85.2234 100.377 87.5078C168.377 89.8771 230.565 105.847 266.605 130.21L264.098 133.907Z" fill="#1A1A1A"/>
<path d="M264.098 158.642C184.485 104.859 5.75093 104.561 -46.4072 145L-49.1484 141.462C-22.9259 121.125 34.364 109.905 100.377 112.232C168.377 114.612 230.565 130.571 266.605 154.934L264.098 158.642Z" fill="#1A1A1A"/>
<path d="M264.098 183.366C184.485 129.572 5.75093 129.285 -46.4072 169.724L-49.1484 166.186C-22.9259 145.849 34.3428 134.651 100.377 136.956C168.377 139.336 230.565 155.295 266.605 179.658L264.098 183.366Z" fill="#1A1A1A"/>
<path d="M264.098 208.091C184.485 154.307 5.75093 153.999 -46.4072 194.47L-49.1484 190.931C-22.9259 170.574 34.3853 159.407 100.377 161.681C168.377 164.05 230.565 180.02 266.605 204.383L264.098 208.091Z" fill="#1A1A1A"/>
<path d="M264.098 232.815C184.485 179.021 5.75093 178.734 -46.4072 219.173L-49.1484 215.635C-22.9259 195.298 34.3428 184.089 100.377 186.405C168.377 188.785 230.565 204.744 266.605 229.107L264.098 232.815Z" fill="#1A1A1A"/>
<path d="M264.098 257.539C184.485 203.755 5.75093 203.458 -46.4072 243.897L-49.1484 240.359C-22.9259 220.022 34.3853 208.834 100.377 211.129C168.377 213.499 230.565 229.468 266.605 253.831L264.098 257.539Z" fill="#1A1A1A"/>
</g>
</g>
</g>
<defs>
<clipPath id="clip0_359_7870">
<rect width="204" height="816" fill="white"/>
</clipPath>
</defs>
</svg>
