<svg width="130" height="520" viewBox="0 0 130 520" fill="none" xmlns="http://www.w3.org/2000/svg">
<g clip-path="url(#clip0_322_14768)">
<path d="M130.428 0.0205078H0.427734V520.021H130.428V0.0205078Z" fill="white"/>
<path d="M48.5006 11.1514C30.971 11.4831 14.3621 13.3722 0.427734 16.7238V29.5342C8.85884 27.5885 17.4084 26.1975 26.0215 25.3701C32.3836 19.0425 40.0573 14.1887 48.5006 11.1514Z" fill="#EF3E23"/>
<path d="M12.9578 93.0039C8.59739 93.681 4.40625 94.5477 0.445312 95.5023V108.313C6.81318 106.83 13.2543 105.682 19.7422 104.873C17.0442 101.183 14.7685 97.2015 12.9578 93.0039Z" fill="#EF3E23"/>
<path d="M69.209 130.02H125.007C115.243 127.484 105.335 125.535 95.3376 124.184C87.1684 128.042 78.2435 130.036 69.209 130.02Z" fill="#EF3E23"/>
<path d="M0.427734 127.014V130.021H69.2126C58.4488 130.036 47.873 127.2 38.5611 121.801C24.7215 122.573 11.7079 124.306 0.427734 127.014Z" fill="#EF3E23"/>
<path d="M21.7694 107.5C14.5894 108.344 7.46382 109.598 0.427734 111.258L0.427734 124.062C11.6202 121.504 23.0044 119.874 34.4647 119.187C29.7065 115.905 25.433 111.971 21.7694 107.5Z" fill="#EF3E23"/>
<path d="M23.0423 28.5728C15.4327 29.4211 7.88091 30.7257 0.427734 32.4795L0.427734 45.2832C4.66628 44.2879 9.13503 43.4212 13.8137 42.6764C16.2249 37.5722 19.3306 32.826 23.0423 28.5728Z" fill="#EF3E23"/>
<path d="M12.4365 45.8247C8.26562 46.5018 4.25052 47.3211 0.445312 48.2351V61.0455C3.13333 60.4158 5.84167 59.8471 8.7125 59.3257C9.42702 54.6964 10.6767 50.1657 12.4365 45.8247Z" fill="#EF3E23"/>
<path d="M8.67461 78C5.8444 78.562 3.09544 79.1104 0.427734 79.7469V92.5505C4.05013 91.6974 7.87565 90.9391 11.8434 90.2755C10.3597 86.3061 9.29762 82.1916 8.67461 78Z" fill="#EF3E23"/>
<path d="M7.98125 68.7916C7.98102 66.6251 8.09402 64.46 8.31979 62.3052C5.61146 62.8198 2.98438 63.3817 0.445312 63.9911V76.7948C2.9776 76.1922 5.60469 75.6437 8.30625 75.1427C8.08873 73.0327 7.98025 70.9128 7.98125 68.7916Z" fill="#EF3E23"/>
<path d="M124.291 95.5699C126.376 96.098 128.428 96.6465 130.446 97.2288V84.2626L128.604 83.748C127.577 87.8265 126.131 91.7881 124.291 95.5699Z" fill="#EF3E23"/>
<path d="M117.292 30.868C121.815 31.8836 126.216 32.9872 130.448 34.206V21.2398C119.399 18.0672 108.141 15.678 96.7559 14.0898C104.741 18.1209 111.749 23.847 117.292 30.868Z" fill="#EF3E23"/>
<path d="M4.63242 0.0205078C3.21055 0.325195 1.81576 0.636654 0.427734 0.968424V13.7788C16.9215 9.87884 37.2204 7.94238 59.2189 8.36217C62.5161 7.82369 65.8514 7.55197 69.1923 7.54967C75.1545 7.544 81.0853 8.41083 86.7965 10.1226C101.55 11.6568 116.146 14.4429 130.428 18.4507V5.49134C122.769 3.2647 114.999 1.43862 107.15 0.0205078L4.63242 0.0205078Z" fill="#EF3E23"/>
<path d="M127.198 49.0614C128.288 49.3526 129.378 49.6505 130.448 49.962V36.9958C126.954 35.9734 123.365 35.039 119.723 34.1724C122.883 38.7703 125.398 43.78 127.198 49.0614Z" fill="#EF3E23"/>
<path d="M120.201 0.0205078C123.699 0.84655 127.107 1.74933 130.425 2.72884V0.0205078H120.201Z" fill="#EF3E23"/>
<path d="M130.426 81.4733V68.7915C130.429 72.9352 130.011 77.0686 129.18 81.128C129.613 81.2702 130.033 81.3514 130.426 81.4733Z" fill="#EF3E23"/>
<path d="M115.225 109.186C120.486 110.317 125.57 111.583 130.445 112.978V100.019C128.012 99.3054 125.543 98.6283 123.038 97.9873C120.859 102 118.238 105.756 115.225 109.186Z" fill="#EF3E23"/>
<path d="M99.4219 122.058C109.888 123.623 120.244 125.855 130.426 128.741V115.801C124.833 114.17 119.023 112.741 113.085 111.509C109.048 115.649 104.449 119.2 99.4219 122.058Z" fill="#EF3E23"/>
<path d="M130.365 65.6975H130.447V52.7516L128.145 52.1084C129.398 56.5392 130.143 61.0982 130.365 65.6975Z" fill="#EF3E23"/>
<path d="M130.424 193.165V175.5C115.048 206.646 106.625 241.543 111.466 260.02H119.449C116.043 244.366 120.038 220.011 130.424 193.165Z" fill="#EF3E23"/>
<path d="M17.5309 186.476C27.2741 163.611 39.8746 143.637 52.8678 130.021H37.3694C22.7715 144.07 9.78503 165.317 0.427734 187.18V208.63C2.08659 203.274 4.01628 197.729 6.22357 192.129L17.5309 186.476Z" fill="#EF3E23"/>
<path d="M69.9562 260.021H77.9457C74.2556 243.249 79.1036 216.484 91.2301 187.369C99.9848 166.38 111.177 147.625 122.985 133.751L130.426 130.021H120.453C87.2895 161.959 62.3593 231.102 69.9562 260.021Z" fill="#EF3E23"/>
<path d="M112.003 187.37C117.102 175.022 123.267 163.142 130.426 151.863V142.019C102.889 176.915 83.9783 234.339 90.7289 260.021H98.7117C95.0284 243.249 99.8763 216.484 112.003 187.37Z" fill="#EF3E23"/>
<path d="M28.9201 187.369C30.1118 184.512 31.3463 181.7 32.6238 178.933L44.554 172.968C53.1597 155.784 63.2618 140.854 73.6347 130.021H58.143C24.9659 161.959 0.0492787 231.102 7.64615 260.021H15.629C11.9389 243.249 16.7936 216.484 28.9201 187.369Z" fill="#EF3E23"/>
<path d="M32.0949 130.021H0.427734V178.242C9.5819 158.83 20.6793 141.971 32.0949 130.021Z" fill="#EF3E23"/>
<path d="M70.4641 187.369C75.8036 174.436 82.3196 162.02 89.9303 150.279L104.21 143.136C107.596 138.543 111.261 134.163 115.185 130.021H99.687C66.5167 161.959 41.5865 231.102 49.1766 260.021H57.1662C53.4896 243.249 58.3376 216.484 70.4641 187.369Z" fill="#EF3E23"/>
<path d="M49.6896 187.369C52.8506 179.761 56.4032 172.321 60.3334 165.08L73.1235 158.681C79.7927 147.496 87.0375 137.739 94.411 130.021H78.9125C45.7354 161.959 20.812 231.102 28.4156 260.021H36.3985C32.7151 243.249 37.563 216.484 49.6896 187.369Z" fill="#EF3E23"/>
<path d="M60.4309 441.411C35.4126 430.991 13.8611 417.138 0.427734 403.115V410.468C14.4569 423.712 34.9996 436.489 58.4199 446.218C80.7637 455.515 102.193 460.539 118.267 460.539C122.362 460.588 126.45 460.182 130.455 459.327V453.91C115.478 458 88.8481 453.246 60.4309 441.411Z" fill="#EF3E23"/>
<path d="M60.5866 461.791C35.4329 451.323 13.8001 437.375 0.427734 423.285V431.81C14.4908 444.999 34.959 457.728 58.2574 467.397C80.8449 476.809 101.963 481.812 117.99 481.812C122.169 481.855 126.341 481.435 130.428 480.56V474.303C115.586 478.373 88.997 473.626 60.5866 461.791Z" fill="#EF3E23"/>
<path d="M130.428 514.983C102.329 522.911 31.0048 496.546 0.427734 463.619V474.452C14.5517 487.52 34.8574 500.067 57.9392 509.661C67.8749 513.86 78.1061 517.323 88.5501 520.02H130.428V514.983Z" fill="#EF3E23"/>
<path d="M60.7491 482.185C35.4533 471.649 13.7324 457.613 0.427734 443.456V453.145C14.5246 466.273 34.9048 478.874 58.0949 488.556C80.7298 497.981 101.902 502.998 118.003 502.998C122.179 503.038 126.345 502.616 130.428 501.739V494.63C115.701 498.739 89.1256 494.013 60.7491 482.185Z" fill="#EF3E23"/>
<path d="M37.584 390.021H30.6777C39.7105 395.278 49.0841 399.926 58.7361 403.935C80.9986 413.19 102.3 418.201 118.238 418.201C122.335 418.25 126.424 417.832 130.426 416.955V413.292C110.262 418.566 70.6053 408.078 37.584 390.021Z" fill="#EF3E23"/>
<path d="M35.1079 520.02H54.5199C33.3814 510.541 13.2178 497.724 0.427734 483.79V495.821C9.69023 504.339 21.5663 512.627 35.1079 520.02Z" fill="#EF3E23"/>
<path d="M88.7715 390.021H78.7168C92.9355 394.489 106.545 397.089 117.906 397.089C122.118 397.127 126.32 396.673 130.426 395.735V392.918C120.303 395.552 105.333 394.239 88.7715 390.021Z" fill="#EF3E23"/>
<path d="M60.2668 421.024C39.6157 412.418 21.3142 401.477 7.96888 390.021H1.38086C15.3559 403.007 35.5668 415.506 58.5741 425.087C80.8501 434.369 102.246 439.38 118.252 439.38C122.348 439.428 126.436 439.017 130.44 438.154V433.631C115.361 437.633 88.6908 432.866 60.2668 421.024Z" fill="#EF3E23"/>
<path d="M65.3104 332.468L67.9172 335.082C69.7227 331.236 71.4674 327.309 73.151 323.3C82.9417 299.785 88.5479 277.313 89.2521 260.047H73.6792C73.0021 277.475 67.5109 299.921 57.788 323.253C57.6255 323.653 57.4495 324.052 57.2802 324.452L57.5646 324.743C55.5288 328.99 53.5743 333.371 51.701 337.885C43.8604 356.708 38.7214 374.82 36.6562 390.02H48.3359C50.3198 374.332 55.5063 355.875 63.5906 336.47C64.1549 335.116 64.7281 333.782 65.3104 332.468Z" fill="#EF3E23"/>
<path d="M24.2137 291.349C27.3283 279.974 29.1767 269.222 29.4746 260.021H11.3897C11.1684 265.594 10.5347 271.143 9.49388 276.623L7.93659 275.072C8.82254 270.099 9.35875 265.069 9.54128 260.021H0.427734V267.556L4.92357 272.059C3.41593 274.09 1.91732 276.187 0.427734 278.349V296.055C3.93503 289.873 7.57773 283.982 11.3288 278.451L17.4835 284.605C11.1652 294.134 5.46815 304.06 0.427734 314.323L0.427734 340.296C1.6194 337.136 2.88103 333.956 4.21263 330.755C9.85988 317.127 16.5466 303.953 24.2137 291.349Z" fill="#EF3E23"/>
<path d="M37.4913 304.627L39.4751 306.611C45.3522 289.717 48.9543 273.318 49.4012 260.021H32.2913C32.0137 270.007 29.9283 281.538 26.4616 293.59L30.4361 297.565C23.4711 309.269 17.3614 321.461 12.1548 334.046C7.4731 345.164 3.55498 356.588 0.427734 368.239L0.427734 390.021H7.68607C9.7918 373.236 15.3439 353.458 24.0038 332.658C27.99 323.078 32.4924 313.72 37.4913 304.627Z" fill="#EF3E23"/>
<path d="M81.4516 348.59C85.4125 341.142 89.1365 333.227 92.5557 325.021C102.617 300.862 108.399 277.787 109.171 260.021H94.438C93.7203 278.065 87.999 301.235 77.9781 325.291C76.0326 329.959 73.9878 334.522 71.8438 338.982L71.9385 339.07C64.5312 356.803 59.2635 374.759 57.1172 390.021H68.6276C70.2526 377.244 74.0443 362.578 79.901 347.073L81.4516 348.59Z" fill="#EF3E23"/>
<path d="M51.2077 318.311L53.916 321.066C63.3275 298.357 68.69 276.67 69.3197 260.021H52.9478C52.4738 273.867 48.7702 291.065 42.2092 309.339L43.7936 310.924C39.5483 318.818 35.5535 327.207 31.9108 335.976C23.7858 355.489 18.4639 374.265 16.3379 390.048H28.0108C30.0421 373.798 35.4249 354.69 43.7936 334.588C46.116 328.995 48.5874 323.565 51.2077 318.311Z" fill="#EF3E23"/>
<path d="M127.793 390.02H130.427V386.256C129.556 387.529 128.678 388.784 127.793 390.02Z" fill="#EF3E23"/>
<path d="M130.426 370.507V349.308C125.235 359.901 119.366 370.148 112.855 379.986L118.726 385.863C118.482 387.272 118.252 388.66 118.049 390.021H122.876L119.613 386.757C123.31 381.693 126.925 376.262 130.426 370.507Z" fill="#EF3E23"/>
<path d="M107.296 374.447C116.273 360.588 124.012 345.965 130.425 330.748V293.813C127.233 305.951 123.192 317.85 118.332 329.421C112.998 342.294 106.737 354.762 99.5974 366.729L102.218 369.349C100.274 376.134 98.7788 383.039 97.7422 390.02H109.32C109.772 386.323 110.449 382.469 111.352 378.456L107.296 374.447Z" fill="#EF3E23"/>
<path d="M94.5734 361.705C101.164 350.471 106.976 338.797 111.968 326.767C122.3 302 128.252 278.302 129.071 260.021H115.191C114.398 278.688 108.481 302.575 98.1552 327.356C94.4177 336.328 90.3078 344.961 85.9677 353.086L86.7667 353.885C82.2167 366.587 78.9667 379.025 77.4297 390.021H88.9943C90.282 380.628 92.3636 371.362 95.2167 362.321L94.5734 361.705Z" fill="#EF3E23"/>
<mask id="mask0_322_14768" style="mask-type:luminance" maskUnits="userSpaceOnUse" x="7" y="7" width="124" height="124">
<path d="M7.98242 68.7846V68.7914C7.98242 102.607 35.3954 130.02 69.2111 130.02H69.2178C103.033 130.02 130.446 102.607 130.446 68.7914V68.7846C130.446 34.9689 103.033 7.55595 69.2178 7.55595H69.2111C35.3954 7.55595 7.98242 34.9689 7.98242 68.7846Z" fill="white"/>
</mask>
<g mask="url(#mask0_322_14768)">
<mask id="mask1_322_14768" style="mask-type:luminance" maskUnits="userSpaceOnUse" x="7" y="7" width="124" height="124">
<path d="M7.98242 7.55595L7.98242 130.02H130.446V7.55595L7.98242 7.55595Z" fill="white"/>
</mask>
<g mask="url(#mask1_322_14768)">
<path d="M168.297 22.3167C117.564 -11.9573 3.66458 -12.1672 -29.5734 13.6229L-31.3203 11.3682C-14.6099 -1.59115 21.8849 -8.72084 63.9656 -7.25834C107.299 -5.74167 146.929 4.42812 169.895 19.9536L168.297 22.3167Z" fill="#EF3E23"/>
<path d="M168.297 38.0725C117.564 3.79859 3.66458 3.60223 -29.5734 29.3788L-31.3203 27.1038C-14.6099 14.1647 21.912 7.04859 63.9656 8.49755C107.299 10.0142 146.929 20.184 169.895 35.7095L168.297 38.0725Z" fill="#EF3E23"/>
<path d="M168.297 53.8279C117.564 19.5539 3.66458 19.3643 -29.5734 45.1341L-31.3203 42.8795C-14.6099 29.9201 21.912 22.7904 63.9656 24.2529C107.326 25.7492 146.929 35.9394 169.895 51.4784L168.297 53.8279Z" fill="#EF3E23"/>
<path d="M168.297 69.5838C117.564 35.3098 3.66458 35.1202 -29.5734 60.89L-31.3203 58.6353C-14.6099 45.6759 21.8849 38.5395 63.9656 40.0088C107.299 41.5254 146.929 51.6952 169.895 67.2207L168.297 69.5838Z" fill="#EF3E23"/>
<path d="M168.297 85.3328C117.564 51.0657 3.66458 50.8693 -29.5734 76.6459L-31.3203 74.3912C-14.6099 61.4318 21.912 54.3089 63.9656 55.7646C107.299 57.2745 146.929 67.4511 169.895 82.9766L168.297 85.3328Z" fill="#EF3E23"/>
<path d="M168.297 101.095C117.564 66.8215 3.66458 66.6319 -29.5734 92.4017L-31.3203 90.147C-14.6099 77.1877 21.8984 70.0377 63.9656 71.5205C107.299 73.0372 146.929 83.2069 169.895 98.7325L168.297 101.095Z" fill="#EF3E23"/>
<path d="M168.297 116.851C117.564 82.5701 3.66458 82.3873 -29.5734 108.157L-31.3203 105.902C-14.6099 92.943 21.8849 85.8066 63.9656 87.2758C107.299 88.7925 146.929 98.9623 169.895 114.488L168.297 116.851Z" fill="#EF3E23"/>
<path d="M168.297 132.607C117.564 98.3328 3.66458 98.1364 -29.5734 123.926L-31.3203 121.672C-14.6099 108.699 21.912 101.583 63.9656 103.032C107.299 104.542 146.929 114.718 169.895 130.244L168.297 132.607Z" fill="#EF3E23"/>
<path d="M168.297 148.363C117.564 114.082 3.66458 113.899 -29.5734 139.669L-31.3203 137.414C-14.6099 124.455 21.8849 117.312 63.9656 118.788C107.299 120.304 146.929 130.474 169.895 146L168.297 148.363Z" fill="#EF3E23"/>
<path d="M168.297 164.118C117.564 129.844 3.66458 129.654 -29.5734 155.424L-31.3203 153.17C-14.6099 140.21 21.912 133.08 63.9656 134.543C107.299 136.053 146.929 146.229 169.895 161.755L168.297 164.118Z" fill="#EF3E23"/>
</g>
</g>
</g>
<defs>
<clipPath id="clip0_322_14768">
<rect width="130" height="520" fill="white"/>
</clipPath>
</defs>
</svg>
