<svg width="400" height="400" viewBox="0 0 400 400" fill="none" xmlns="http://www.w3.org/2000/svg">
<path d="M255.58 184.38C255.33 188.94 254.42 193.44 254.1 198C253.6 205.08 254.51 212.38 252.35 219.14C251.46 221.91 250.09 224.5 248.56 226.97C242.91 236.11 235.22 243.79 227.6 251.38C224.84 254.13 220.12 260.39 216.26 260.94C208.48 262.05 200.57 261.15 192.76 260.24C190.82 260.02 188.87 259.79 187.03 259.14C184.68 258.32 182.62 256.85 180.62 255.37C171.21 248.38 162.48 240.48 154.57 231.82C152.79 229.87 151.04 227.86 149.68 225.59C146.43 220.17 145.66 213.66 144.96 207.38C143.84 197.38 142.72 187.37 141.6 177.37" stroke="black" stroke-miterlimit="10"/>
<path d="M261.09 158.47C262.3 158.5 263.5 158.71 264.65 159.1" stroke="black" stroke-miterlimit="10"/>
<path d="M202.6 79.18C212.63 76.75 223.34 80.6 231.46 87.29C239.58 93.98 245.45 103.25 250.48 112.76C253.87 119.18 256.96 125.82 259.23 132.77C267.54 158.26 264.45 186.09 265.39 213.04C265.63 219.91 266.15 226.82 267.73 233.48C270.94 246.97 278.54 259.99 276.54 273.74" stroke="black" stroke-miterlimit="10"/>
<path d="M123.649 220.46C129.659 243.19 127.459 247.72 119.829 264.43C108.679 288.85 97.2486 308.76 104.039 334.74" stroke="black" stroke-miterlimit="10"/>
<path d="M195.44 80.78C174.04 73.91 149.86 86.13 137.5 104.9C129.54 116.99 125.66 131.09 123.85 145.56" stroke="black" stroke-miterlimit="10"/>
<path d="M177.929 180.3C180.492 180.3 182.569 178.012 182.569 175.19C182.569 172.368 180.492 170.08 177.929 170.08C175.366 170.08 173.289 172.368 173.289 175.19C173.289 178.012 175.366 180.3 177.929 180.3Z" fill="black"/>
<path d="M232.531 178.51C235.093 178.51 237.171 176.222 237.171 173.4C237.171 170.578 235.093 168.29 232.531 168.29C229.968 168.29 227.891 170.578 227.891 173.4C227.891 176.222 229.968 178.51 232.531 178.51Z" fill="black"/>
<path d="M258.29 158.38C253.83 156.41 251.21 151.83 248.8 147.59C242.68 136.86 235.93 126.49 228.58 116.56C220.01 104.99 209.73 93.41 195.8 89.76C190.88 91.06 181.3 90.24 177.24 93.3C166.45 101.42 160.62 114.37 155.32 126.79C150.02 139.21 144.44 152.21 133.93 160.69" stroke="black" stroke-miterlimit="10"/>
<path d="M161.76 264.18C161.26 267.55 160.56 270.9 159.66 274.19" stroke="black" stroke-miterlimit="10"/>
<path d="M162.078 240.36C162.818 246.43 162.928 252.58 162.408 258.67" stroke="black" stroke-miterlimit="10"/>
<path d="M157.141 270.25C161.391 276.69 164.771 283.7 167.161 291.04C169.181 297.25 170.651 303.98 175.101 308.76C181.691 315.82 193.131 316.32 202.011 312.55C210.901 308.78 217.831 301.62 224.501 294.64C229.011 289.93 233.511 285.21 238.021 280.5C240.821 277.57 241.341 270.64 243.381 267.14C242.561 265.51 241.931 263.8 241.501 262.03C240.801 259.17 240.641 256.2 240.471 253.26C240.191 248.17 239.911 243.08 239.631 237.99" stroke="black" stroke-miterlimit="10"/>
<path d="M200.359 90.6901C206.379 97.2301 210.229 105.74 211.179 114.58C212.129 123.42 210.159 132.55 205.659 140.21C216.199 126.67 220.839 108.69 218.169 91.7401" stroke="black" stroke-miterlimit="10"/>
<path d="M181.359 95.5001C175.239 102.56 171.789 111.66 170.469 120.91C169.149 130.16 169.839 139.59 171.279 148.82" stroke="black" stroke-miterlimit="10"/>
<path d="M226.67 110.3C227 119.62 225.13 129.02 221.25 137.5" stroke="black" stroke-miterlimit="10"/>
<path d="M246.68 259.14C260.26 264.74 273.86 270.35 287.03 276.87C290.5 278.59 293.99 280.4 296.85 283.02C305.49 290.94 306.44 304.1 312.21 314.3" stroke="black" stroke-miterlimit="10"/>
<path d="M110.879 281.9C105.689 287.9 100.509 293.9 95.3194 299.9C90.3394 305.66 85.1894 311.76 83.5994 319.2C82.9394 322.3 82.9294 325.5 82.9194 328.67C82.8994 339.34 82.8794 350.02 82.8594 360.69" stroke="black" stroke-miterlimit="10"/>
<path d="M120.438 154.96C115.808 156.33 112.148 160.54 111.438 165.31C111.008 168.22 111.588 171.18 112.168 174.07C114.688 186.65 117.218 199.22 119.738 211.8C120.018 213.19 120.368 214.7 121.468 215.59C122.208 216.19 123.168 216.41 124.098 216.59C129.408 217.62 134.848 217.95 140.238 217.55" stroke="black" stroke-miterlimit="10"/>
<path d="M264.16 151.77C266.62 153.27 269.08 154.77 271.54 156.27C272.77 157.02 274.03 157.8 274.91 158.95C276.17 160.61 276.44 162.81 276.63 164.89C277.7 176.31 277.88 187.81 277.18 199.26C277.11 200.44 277.02 201.63 276.65 202.76C275.18 207.24 269.95 209.06 265.4 210.27" stroke="black" stroke-miterlimit="10"/>
<path d="M140.068 209.29C139.098 190.58 135.168 172.03 128.478 154.53C127.908 153.05 127.308 151.49 127.508 149.92C127.708 148.35 128.988 146.78 130.578 146.88C131.668 146.95 132.568 147.76 133.218 148.64C134.798 150.74 135.468 153.37 136.108 155.92C138.888 167.01 141.668 178.12 143.218 189.44" stroke="black" stroke-miterlimit="10"/>
<path d="M261.279 147.82C262.679 146.82 264.789 147.85 265.519 149.41C266.249 150.97 266.009 152.79 265.749 154.5C263.339 169.88 259.989 185.54 262.709 200.87" stroke="black" stroke-miterlimit="10"/>
<path d="M115.849 154.32C115.819 149.29 115.789 144.26 115.769 139.24C115.759 137.29 115.799 135.18 117.009 133.66C118.769 131.44 122.099 131.47 124.919 131.71" stroke="black" stroke-miterlimit="10"/>
<path d="M258.309 132.53L263.859 135.04C264.309 135.24 264.769 135.46 265.079 135.84C265.499 136.36 265.539 137.07 265.569 137.73C265.789 142.79 266.009 147.85 266.219 152.91" stroke="black" stroke-miterlimit="10"/>
<path d="M122.278 130.13C121.898 116.7 126.448 103.18 134.878 92.71C143.308 82.24 155.548 74.92 168.758 72.44C176.268 71.03 183.978 71.14 191.608 70.7C200.688 70.18 209.968 68.91 218.768 71.19C223.868 72.51 228.578 74.97 233.208 77.48C237.068 79.57 240.968 81.74 244.058 84.86C247.158 87.99 249.288 91.94 251.178 95.92C255.928 105.95 259.358 116.6 261.358 127.51C261.678 129.25 261.988 131.07 263.058 132.48C264.928 130.17 264.288 126.79 263.558 123.91C262.198 118.57 260.838 113.23 259.478 107.9C257.528 100.26 255.488 92.43 250.878 86.04C243.298 75.54 230.108 70.74 217.418 68.18C203.598 65.39 189.378 64.56 175.328 65.72C170.508 66.12 165.668 66.76 161.068 68.26C152.718 70.99 145.538 76.42 138.848 82.11C135.328 85.1 131.868 88.21 129.108 91.92C120.458 103.56 119.968 119.15 119.828 133.66" stroke="black" stroke-miterlimit="10"/>
<path d="M134.869 218.33C137.359 231.94 140.539 246.52 150.769 255.84C153.769 258.58 157.259 260.72 160.749 262.8C167.379 266.75 174.109 270.53 180.939 274.14C184.729 276.14 188.809 278.15 193.079 277.84C195.659 277.65 198.089 276.63 200.599 276.01C203.109 275.39 205.929 275.23 208.109 276.62C210.289 278.01 211.249 281.41 209.429 283.25C207.789 284.9 205.069 284.48 202.809 283.95C200.549 283.41 198.239 282.86 196.259 281.65C194.359 280.49 192.869 278.79 191.269 277.24C179.959 266.35 162.789 263.02 152.059 251.56C144.759 243.76 141.379 233.18 138.239 222.97" stroke="black" stroke-miterlimit="10"/>
<path d="M162.309 159.4C163.239 157.49 164.959 156.03 166.889 155.13C168.819 154.23 170.959 153.86 173.079 153.73" stroke="black" stroke-miterlimit="10"/>
<path d="M234.219 152.73C237.959 152.69 241.689 154.31 244.209 157.07" stroke="black" stroke-miterlimit="10"/>
<path d="M177.26 170.31C179.06 170.48 180.92 169.99 182.41 168.95" stroke="black" stroke-miterlimit="10"/>
<path d="M233.648 168.55C235.558 168.89 237.608 168.38 239.138 167.18" stroke="black" stroke-miterlimit="10"/>
<path d="M179.359 171.84C181.159 171.84 182.959 171.4 184.559 170.56" stroke="black" stroke-miterlimit="10"/>
<path d="M232.328 169.39C233.738 168.7 234.918 167.53 235.618 166.13" stroke="black" stroke-miterlimit="10"/>
<path d="M200.898 232.37C204.178 233.76 207.908 233.52 211.438 232.99" stroke="black" stroke-miterlimit="10"/>
<path d="M107.49 339.59C107.12 343.09 108.67 346.73 111.45 348.88C114.23 351.03 118.15 351.62 121.44 350.38C128.19 347.84 130.29 339.59 132.44 332.7C136.11 320.95 142.56 310.07 151.13 301.23C155.43 296.79 160.56 292.26 161.22 286.12" stroke="black" stroke-miterlimit="10"/>
<path d="M197.999 199.91C197.259 200.2 197.009 201.2 197.349 201.92C197.689 202.64 198.449 203.06 199.219 203.25C199.989 203.44 200.789 203.41 201.579 203.48C204.649 203.75 207.589 205.38 210.649 205.02C213.159 204.73 215.459 202.99 216.409 200.64C216.889 199.46 216.399 198.07 216.149 196.82C215.909 195.58 215.369 194.42 214.939 193.23C214.439 191.85 214.099 190.43 213.909 188.98" stroke="black" stroke-miterlimit="10"/>
<path d="M194.74 222.8C197.64 226.12 201.92 228.2 206.32 228.41C210.72 228.62 215.19 226.98 218.39 223.95" stroke="black" stroke-miterlimit="10"/>
<path d="M196.709 224.63H217.349" stroke="black" stroke-miterlimit="10"/>
<path d="M219.11 198.74C219.24 199.54 219.37 200.36 219.29 201.17C219.21 201.98 218.88 202.8 218.25 203.31" stroke="black" stroke-miterlimit="10"/>
<path d="M68.5586 195.1C70.9186 195.79 73.6586 194.9 75.1586 192.96C77.6286 189.75 76.4986 184.88 78.6886 181.47C80.6186 189.31 82.5486 197.15 84.4786 204.99C87.6986 193.96 86.1886 181.8 90.4886 171.14C92.2886 185.43 94.0786 199.72 95.8786 214.02C97.4786 209.87 97.6686 205.33 97.8486 200.88C98.0986 194.46 98.3486 188.03 98.5986 181.61C99.7786 187.33 100.959 193.04 102.139 198.76C103.939 198.62 105.739 198.48 107.539 198.35" stroke="black" stroke-miterlimit="10"/>
<path d="M281.359 184.54H287.289C287.849 184.54 288.469 184.54 288.899 184.17C289.369 183.78 289.469 183.11 289.539 182.51C290.209 176.87 290.889 171.22 291.559 165.58C292.079 176.17 292.939 186.75 294.139 197.29C298.779 186.43 296.439 173.86 299.239 162.39C299.409 175.92 300.279 189.45 301.849 202.89C303.719 195.69 304.499 188.21 304.159 180.78C304.129 180.09 304.129 179.28 304.669 178.85C305.049 178.54 305.589 178.52 306.079 178.52C310.509 178.52 314.949 178.5 319.379 178.49" stroke="black" stroke-miterlimit="10"/>
<path d="M42.7999 102.8C41.8399 109.96 40.8799 117.11 39.9199 124.27C62.2999 122.74 84.7299 121.93 107.17 121.87C106.44 115.49 105.71 109.12 104.98 102.74C104.9 102.07 104.79 101.33 104.29 100.88C103.78 100.43 103.04 100.41 102.36 100.41C82.6699 100.48 62.9799 100.91 43.2999 101.72" stroke="black" stroke-miterlimit="10"/>
<path d="M263.5 114.67C278.56 114.15 293.62 113.64 308.69 113.12C309.31 123.29 310.44 133.44 312.07 143.5C293.98 142.54 275.87 142.01 257.76 141.92" stroke="black" stroke-miterlimit="10"/>
<path d="M115.94 251.78C98.8798 251.96 81.8198 251.94 64.7598 251.71C65.1598 244.63 65.2398 237.54 65.0298 230.46C84.1098 229.17 102.54 227.52 121.66 227.25" stroke="black" stroke-miterlimit="10"/>
<path d="M105.99 109.58C110.84 109.95 115.73 109.77 120.54 109.05" stroke="black" stroke-miterlimit="10"/>
<path d="M308.289 114.3C314.159 109.21 320.029 104.12 325.889 99.03" stroke="black" stroke-miterlimit="10"/>
<path d="M324.09 81.76C324.69 88.13 325.29 94.5 325.89 100.87C335.76 100.86 345.63 100.84 355.5 100.83C358.98 100.83 362.49 100.83 365.92 101.45C366.41 94.16 366.54 86.85 366.31 79.55C352.56 79.68 338.8 79.81 325.05 79.93" stroke="black" stroke-miterlimit="10"/>
<path d="M67.2591 122.18C62.0091 130.33 55.6091 137.72 48.2891 144.08" stroke="black" stroke-miterlimit="10"/>
<path d="M28.0504 146.01C45.6804 143.96 63.4604 143.18 81.2104 143.7C80.1604 149.74 79.6104 155.87 79.6004 162C62.1904 162.16 44.7704 161.66 27.4004 160.5C27.6804 155.66 27.7404 150.81 27.6004 145.96" stroke="black" stroke-miterlimit="10"/>
<path d="M276.881 240.95C289.731 240.85 302.571 240.75 315.421 240.65C314.731 250.63 313.581 260.58 311.951 270.45C300.671 269.42 289.251 269.8 278.071 271.61" stroke="black" stroke-miterlimit="10"/>
</svg>
