<svg width="177" height="712" viewBox="0 0 177 712" fill="none" xmlns="http://www.w3.org/2000/svg">
<g clip-path="url(#clip0_322_13031)">
<path d="M-0.130859 534.028L-0.130859 712.028H177.869V534.028H-0.130859Z" fill="#DBDDE2"/>
<path d="M-0.103516 0.027832L-0.103516 178.028H177.896V0.027832H-0.103516Z" fill="#EF3E23"/>
<path d="M10.2168 94.1829V94.1922C10.2168 140.494 47.7515 178.028 94.0529 178.028H94.0622C140.364 178.028 177.898 140.494 177.898 94.1922V94.1829C177.898 47.8815 140.364 10.3468 94.0622 10.3468H94.0529C47.7515 10.3468 10.2168 47.8815 10.2168 94.1829Z" fill="#DBDDE2"/>
<path d="M-0.130859 356.028L-0.130859 534.028H177.869V356.028H-0.130859Z" fill="#EF3E23"/>
<path d="M177.906 178.028H-0.09375V356.028H177.906V178.028Z" fill="#EF3E23"/>
<mask id="mask0_322_13031" style="mask-type:luminance" maskUnits="userSpaceOnUse" x="-1" y="178" width="179" height="179">
<path d="M177.91 356.028H-0.0898438V267.028L177.91 178.028V356.028Z" fill="white"/>
</mask>
<g mask="url(#mask0_322_13031)">
<path d="M-35.0766 360.255C-42.039 337.727 -35.6514 298.966 -17.9904 256.552C-0.116276 213.683 25.1097 177.75 49.5476 160.413L56.3338 169.981C6.37331 205.404 -36.393 316.302 -23.8682 356.797L-35.0766 360.255Z" fill="#DBDDE2"/>
<path d="M-6.60393 360.255C-13.5663 337.727 -7.17872 298.966 10.4822 256.552C28.3378 213.683 53.5823 177.75 78.0202 160.432L84.8065 169.999C34.8367 205.404 -7.9482 316.302 4.57669 356.797L-6.60393 360.255Z" fill="#DBDDE2"/>
<path d="M21.8121 360.255C14.8497 337.727 21.2373 298.966 38.8982 256.552C56.7539 213.683 81.9983 177.75 106.436 160.432L113.223 169.999C63.2805 205.404 20.5142 316.293 33.0113 356.797L21.8121 360.255Z" fill="#DBDDE2"/>
<path d="M50.2441 360.255C43.2817 337.727 49.6785 298.966 67.3395 256.552C85.1766 213.683 110.44 177.75 134.877 160.413L141.654 169.981C91.7218 205.386 48.9461 316.284 61.4525 356.779L50.2441 360.255Z" fill="#DBDDE2"/>
<path d="M78.6869 360.255C71.7245 337.727 78.1121 298.966 95.7823 256.552C113.629 213.683 138.882 177.75 163.32 160.432L170.097 169.999C120.165 205.404 77.389 316.302 89.8953 356.797L78.6869 360.255Z" fill="#DBDDE2"/>
<path d="M107.127 360.255C100.164 337.727 106.552 298.966 124.213 256.552C142.068 213.683 167.322 177.75 191.751 160.432L198.537 169.999C148.595 205.404 105.829 316.302 118.335 356.797L107.127 360.255Z" fill="#DBDDE2"/>
<path d="M135.574 360.255C128.611 337.727 134.999 298.966 152.66 256.552C170.516 213.683 195.76 177.75 220.198 160.432L227.021 169.999C177.079 205.404 134.313 316.302 146.819 356.797L135.574 360.255Z" fill="#DBDDE2"/>
<path d="M163.976 360.255C157.005 337.727 163.401 298.966 181.062 256.552C198.918 213.683 224.162 177.75 248.6 160.432L255.377 169.999C205.445 205.404 162.669 316.302 175.175 356.797L163.976 360.255Z" fill="#DBDDE2"/>
</g>
<mask id="mask1_322_13031" style="mask-type:luminance" maskUnits="userSpaceOnUse" x="-1" y="178" width="179" height="179">
<path d="M177.91 178.028L-0.0898438 356.028V178.028H177.91Z" fill="white"/>
</mask>
<g mask="url(#mask1_322_13031)">
<path d="M-23.1757 359.301C-29.7859 337.802 -23.2963 298.91 -6.19158 257.804C11.423 215.482 36.2688 180.077 60.2247 163.083L63.2377 167.339C11.0058 204.376 -31.1765 315.774 -18.1973 357.752L-23.1757 359.301Z" fill="#DBDDE2"/>
<path d="M5.26666 359.301C-1.38052 337.802 5.1276 298.91 22.2508 257.804C39.8654 215.482 64.702 180.068 88.6671 163.083L91.6616 167.339C39.4389 204.376 -2.73407 315.774 10.2451 357.752L5.26666 359.301Z" fill="#DBDDE2"/>
<path d="M33.71 359.301C27.0628 337.802 33.571 298.91 50.6942 257.804C68.3088 215.482 93.1453 180.068 117.11 163.083L120.123 167.339C67.8823 204.376 25.7093 315.774 38.6885 357.752L33.71 359.301Z" fill="#DBDDE2"/>
<path d="M62.1522 359.301C55.5051 337.802 61.9946 298.91 79.1364 257.804C96.751 215.482 121.588 180.077 145.543 163.083L148.566 167.339C96.2967 204.376 54.1515 315.774 67.1307 357.752L62.1522 359.301Z" fill="#DBDDE2"/>
<path d="M90.5855 359.301C83.9476 337.802 90.4558 298.91 107.57 257.804C125.184 215.482 150.03 180.077 173.986 163.083L176.999 167.339C124.758 204.376 82.5941 315.774 95.5733 357.752L90.5855 359.301Z" fill="#DBDDE2"/>
<path d="M119.03 359.301C112.383 337.802 118.891 298.91 136.014 257.804C153.629 215.482 178.475 180.077 202.431 163.083L205.444 167.339C153.203 204.376 111.03 315.774 124.009 357.752L119.03 359.301Z" fill="#DBDDE2"/>
<path d="M147.474 359.301C140.827 337.802 147.335 298.91 164.458 257.804C182.072 215.482 206.918 180.077 230.874 163.083L233.887 167.339C181.646 204.376 139.473 315.774 152.452 357.752L147.474 359.301Z" fill="#DBDDE2"/>
<path d="M175.915 359.301C169.268 337.802 175.776 298.91 192.899 257.804C210.514 215.482 235.35 180.077 259.316 163.083L262.329 167.339C210.078 204.376 167.914 315.774 180.894 357.752L175.915 359.301Z" fill="#DBDDE2"/>
</g>
<mask id="mask2_322_13031" style="mask-type:luminance" maskUnits="userSpaceOnUse" x="-1" y="534" width="179" height="179">
<path d="M-0.121094 534.028L-0.121094 712.028H177.879V534.028H-0.121094Z" fill="white"/>
</mask>
<g mask="url(#mask2_322_13031)">
<path d="M160.896 746.738C138.646 746.738 109.526 739.841 78.3856 726.88C35.5358 709.034 -0.397915 683.78 -17.7344 659.342L-8.16687 652.565C27.2384 702.507 138.136 745.273 178.622 732.767L182.089 743.975C175.2 745.938 168.058 746.869 160.896 746.738Z" fill="#EF3E23"/>
<path d="M160.878 717.729C138.748 717.729 109.675 710.85 78.627 697.918C35.8514 680.099 0.0103416 654.929 -17.252 630.574L-8.61154 624.446C26.8958 674.509 138.174 717.451 178.817 704.871L181.941 714.985C175.095 716.938 167.996 717.863 160.878 717.729Z" fill="#EF3E23"/>
<path d="M160.869 688.721C138.823 688.721 109.833 681.852 78.8405 668.947C36.1669 651.174 0.418568 626.069 -16.8066 601.807L-9.10258 596.337C7.12138 619.218 41.3493 643.099 82.4562 660.223C122.052 676.716 159.033 683.131 178.966 676.975L181.747 685.996C174.96 687.929 167.925 688.848 160.869 688.721Z" fill="#EF3E23"/>
<path d="M160.851 659.713C138.907 659.713 109.991 652.861 79.0634 639.975C36.4824 622.24 0.808281 597.218 -16.3242 573.03L-9.54724 568.228C6.73234 591.192 41.053 615.148 82.234 632.308C121.95 648.847 159.08 655.281 179.133 649.079L181.59 657.015C174.847 658.93 167.859 659.839 160.851 659.713Z" fill="#EF3E23"/>
<path d="M161.192 630.621C139.183 630.621 109.804 623.742 79.2472 611.013C36.796 593.361 1.22383 568.33 -15.8809 544.226L-10.031 540.082C6.36914 563.166 40.7361 587.196 82.0377 604.394C121.902 620.979 159.143 627.423 179.317 621.183L181.43 628.025C174.849 629.883 168.029 630.758 161.192 630.621Z" fill="#EF3E23"/>
<path d="M161.193 601.612C139.277 601.612 109.981 594.751 79.4802 582.041C37.094 564.427 1.60523 539.507 -15.416 515.486L-10.4932 512.009C5.9069 535.186 40.4129 559.235 81.7979 576.479C121.746 593.166 159.172 599.563 179.466 593.287L181.246 599.044C174.724 600.879 167.967 601.744 161.193 601.612Z" fill="#EF3E23"/>
<path d="M161.193 572.613C139.369 572.613 110.203 565.753 79.7206 553.079C37.4271 535.455 2.04031 510.656 -14.9531 486.747L-10.9667 483.919C26.1167 536.206 137.608 578.417 179.623 565.419L181.069 570.054C174.606 571.879 167.908 572.742 161.193 572.613Z" fill="#EF3E23"/>
<path d="M160.738 543.707C107.088 543.707 16.308 501.348 -14.4805 457.952L-11.4211 455.782C25.7549 508.227 137.617 550.521 179.808 537.486L180.912 541.065C174.355 542.938 167.556 543.828 160.738 543.707Z" fill="#EF3E23"/>
</g>
<mask id="mask3_322_13031" style="mask-type:luminance" maskUnits="userSpaceOnUse" x="-1" y="356" width="179" height="179">
<path d="M177.935 356.028V534.028H167.56L-0.121094 366.346V356.028H177.935Z" fill="white"/>
</mask>
<g mask="url(#mask3_322_13031)">
<path d="M128.494 582.181L121.717 572.623C151.819 551.3 183.238 506.253 205.757 452.204C227.451 400.111 235.878 351.448 227.766 325.193L238.965 321.726C247.995 350.911 239.623 401.372 216.576 456.7C193.251 512.705 160.33 559.616 128.494 582.181Z" fill="#DBDDE2"/>
<path d="M103.638 575.441L97.5098 566.8C126.778 546.052 157.307 502.321 179.177 449.811C200.258 399.202 208.445 351.884 200.499 326.324L210.614 323.2C219.347 351.439 211.226 400.287 188.902 453.918C166.346 508.144 134.454 553.589 103.638 575.441Z" fill="#DBDDE2"/>
<path d="M78.7784 568.701L73.3086 560.988C101.742 540.833 131.381 498.382 152.611 447.42C173.072 398.285 181.017 352.32 173.332 327.465L182.361 324.684C190.705 351.569 182.612 399.991 161.326 451.073C139.447 503.583 108.584 547.564 78.7784 568.701Z" fill="#DBDDE2"/>
<path d="M53.9136 561.961L49.1113 555.175C76.6921 535.622 105.45 494.441 126.059 445.028C145.917 397.366 153.603 352.746 146.14 328.595L154.076 326.139C162.095 352.097 154.298 398.85 133.726 448.226C112.542 499.012 82.7181 541.528 53.9136 561.961Z" fill="#DBDDE2"/>
<path d="M29.0469 555.212L24.9121 549.362C51.6585 530.403 79.5266 490.501 99.4681 442.636C118.705 396.449 126.15 353.182 118.937 329.727L125.788 327.604C133.511 352.635 125.973 397.728 106.115 445.399C85.6361 494.451 56.8501 535.502 29.0469 555.212Z" fill="#DBDDE2"/>
<path d="M4.18115 548.471L0.695312 543.549C26.6536 525.183 53.5854 486.57 72.878 440.253C91.5031 395.53 98.7066 353.608 91.67 330.857L97.4272 329.077C104.844 353.116 97.5848 396.606 78.4405 442.571C58.7307 489.889 30.9739 529.475 4.18115 548.471Z" fill="#DBDDE2"/>
<path d="M-20.6738 541.723L-23.4551 537.736C32.9765 497.723 78.5241 377.351 64.4973 331.989L69.1327 330.542C76.2713 353.645 69.2625 395.485 50.8228 439.734C31.8362 485.319 5.10836 523.45 -20.6738 541.723Z" fill="#DBDDE2"/>
<path d="M-45.5474 534.956L-47.7168 531.896C6.80497 493.237 50.7951 376.971 37.2318 333.12L40.8104 332.008C55.9311 380.902 5.89643 498.521 -45.5474 534.956Z" fill="#DBDDE2"/>
<path d="M-70.4024 528.243L-71.9043 526.111C-19.3201 488.824 23.1032 376.582 10.0128 334.205L12.5066 333.435C25.8381 376.507 -17.1137 490.455 -70.4024 528.243Z" fill="#DBDDE2"/>
</g>
<mask id="mask4_322_13031" style="mask-type:luminance" maskUnits="userSpaceOnUse" x="-1" y="366" width="169" height="169">
<path d="M-0.121094 534.027V366.346L167.56 534.027H-0.121094Z" fill="white"/>
</mask>
<g mask="url(#mask4_322_13031)">
<path d="M-71.5065 582.634C-80.527 553.441 -72.1554 502.979 -49.1174 447.66C-25.7827 391.655 7.13799 344.754 38.9555 322.18L45.7325 331.747C15.6393 353.098 -15.7981 398.108 -38.3169 452.166C-60.0107 504.25 -68.4378 552.912 -60.3259 579.176L-71.5065 582.634Z" fill="#DBDDE2"/>
<path d="M-43.7672 581.309C-52.5375 552.949 -44.4069 503.953 -22.0364 450.238C0.602962 395.892 32.5688 350.372 63.4778 328.456L70.264 338.024C41.0794 358.716 10.6155 402.382 -11.2452 454.78C-32.2436 505.288 -40.4205 552.439 -32.5681 577.869L-43.7672 581.309Z" fill="#DBDDE2"/>
<path d="M-16.0011 580.039C-24.5117 552.514 -16.6408 504.945 5.06226 452.88C27.0249 400.157 58.0265 356.028 88.0084 334.705L94.7947 344.273C66.5372 364.307 37.0374 406.573 15.8906 457.377C-4.50524 506.28 -12.404 551.939 -4.79263 576.563L-16.0011 580.039Z" fill="#DBDDE2"/>
<path d="M11.7525 578.731C3.50142 552.041 11.1313 505.965 32.1483 455.485C53.4712 404.412 83.4716 361.618 112.526 341.018L119.313 350.586C91.973 369.962 63.4374 410.846 42.9766 459.981C23.2668 507.263 15.5999 551.466 22.9516 575.264L11.7525 578.731Z" fill="#DBDDE2"/>
<path d="M39.5188 577.434C31.5274 551.578 38.9069 506.976 59.2657 458.091C79.8469 408.659 108.939 367.236 137.067 347.295L143.853 356.862C117.44 375.59 89.8687 415.12 70.0848 462.643C51.0425 508.366 43.6258 551.04 50.7272 574.013L39.5188 577.434Z" fill="#DBDDE2"/>
<path d="M67.2875 576.136C59.5464 551.104 66.6849 507.958 86.3669 460.705C106.271 412.913 134.399 372.863 161.609 353.571L168.386 363.138C112.399 402.836 64.4414 527.232 78.4589 572.659L67.2875 576.136Z" fill="#DBDDE2"/>
<path d="M95.0537 574.819C87.5722 550.622 94.4511 508.931 113.466 463.291C132.684 417.14 159.82 378.462 186.14 359.828L192.926 369.396C138.942 407.684 92.7175 527.584 106.262 571.37L95.0537 574.819Z" fill="#DBDDE2"/>
<path d="M122.809 573.54C115.587 550.177 122.225 509.951 140.563 465.924C159.104 421.424 185.313 384.109 210.669 366.133L217.455 375.7C165.492 412.533 121.038 527.927 134.017 570.073L122.809 573.54Z" fill="#DBDDE2"/>
<path d="M150.576 572.233C143.576 549.714 150.001 510.943 167.68 468.529C185.536 425.661 210.79 389.727 235.218 372.409L241.986 381.986C192.044 417.391 149.278 528.289 161.784 568.784L150.576 572.233Z" fill="#DBDDE2"/>
</g>
<mask id="mask5_322_13031" style="mask-type:luminance" maskUnits="userSpaceOnUse" x="-1" y="0" width="179" height="179">
<path d="M-0.0898437 0.0283203L-0.0898438 178.028H177.91V0.0283203H-0.0898437Z" fill="white"/>
</mask>
<g mask="url(#mask5_322_13031)">
<path d="M229.733 30.5572C160.266 -16.3717 4.31255 -16.6591 -41.198 18.6535L-43.5898 15.5663C-20.7094 -2.17809 29.2604 -11.9403 86.8786 -9.93778C146.212 -7.86111 200.474 6.06368 231.921 27.3217L229.733 30.5572Z" fill="#DBDDE2"/>
<path d="M229.733 52.1304C160.266 5.20143 4.31255 4.93257 -41.198 40.2266L-43.5898 37.1116C-20.7094 19.3951 29.2974 9.65143 86.8786 11.6354C146.212 13.7121 200.474 27.6368 231.921 48.8949L229.733 52.1304Z" fill="#DBDDE2"/>
<path d="M229.733 73.7042C160.266 26.7752 4.31255 26.5156 -41.198 61.8004L-43.5898 58.7133C-20.7094 40.9689 29.2974 31.2067 86.8786 33.2092C146.249 35.258 200.474 49.2106 231.921 70.4872L229.733 73.7042Z" fill="#DBDDE2"/>
<path d="M229.733 95.2775C160.266 48.3485 4.31255 48.0889 -41.198 83.3737L-43.5898 80.2865C-20.7094 62.5422 29.2604 52.7707 86.8786 54.7825C146.212 56.8592 200.474 70.7839 231.921 92.042L229.733 95.2775Z" fill="#DBDDE2"/>
<path d="M229.733 116.841C160.266 69.9212 4.31255 69.6523 -41.198 104.946L-43.5898 101.859C-20.7094 84.1148 29.2974 74.3619 86.8786 76.3551C146.212 78.4225 200.474 92.3566 231.921 113.615L229.733 116.841Z" fill="#DBDDE2"/>
<path d="M229.733 138.424C160.266 91.4951 4.31255 91.2356 -41.198 126.52L-43.5898 123.433C-20.7094 105.689 29.2789 95.8988 86.8786 97.9291C146.212 100.006 200.474 113.931 231.921 135.189L229.733 138.424Z" fill="#DBDDE2"/>
<path d="M229.733 159.997C160.266 113.059 4.31255 112.809 -41.198 148.093L-43.5898 145.006C-20.7094 127.262 29.2604 117.49 86.8786 119.502C146.212 121.579 200.474 135.504 231.921 156.762L229.733 159.997Z" fill="#DBDDE2"/>
<path d="M229.733 181.57C160.266 134.641 4.31255 134.372 -41.198 169.685L-43.5898 166.597C-20.7094 148.834 29.2974 139.091 86.8786 141.075C146.212 143.142 200.474 157.076 231.921 178.334L229.733 181.57Z" fill="#DBDDE2"/>
<path d="M229.733 203.143C160.266 156.205 4.31255 155.955 -41.198 191.24L-43.5898 188.152C-20.7094 170.408 29.2604 160.627 86.8786 162.648C146.212 164.725 200.474 178.65 231.921 199.908L229.733 203.143Z" fill="#DBDDE2"/>
<path d="M229.733 224.717C160.266 177.788 4.31255 177.528 -41.198 212.813L-43.5898 209.726C-20.7094 191.982 29.2974 182.219 86.8786 184.222C146.212 186.289 200.474 200.223 231.921 221.481L229.733 224.717Z" fill="#DBDDE2"/>
</g>
<mask id="mask6_322_13031" style="mask-type:luminance" maskUnits="userSpaceOnUse" x="10" y="10" width="168" height="169">
<path d="M10.2266 94.1829V94.1922C10.2266 140.494 47.7613 178.028 94.0627 178.028H94.072C140.373 178.028 177.908 140.494 177.908 94.1922V94.1829C177.908 47.8815 140.373 10.3468 94.072 10.3468H94.0627C47.7613 10.3468 10.2266 47.8815 10.2266 94.1829Z" fill="white"/>
</mask>
<g mask="url(#mask6_322_13031)">
<mask id="mask7_322_13031" style="mask-type:luminance" maskUnits="userSpaceOnUse" x="10" y="10" width="168" height="169">
<path d="M10.2266 10.3463L10.2266 178.028H177.908V10.3463H10.2266Z" fill="white"/>
</mask>
<g mask="url(#mask7_322_13031)">
<path d="M229.729 30.5567C160.263 -16.3722 4.30864 -16.6596 -41.2019 18.653L-43.5938 15.5658C-20.7133 -2.17858 29.2564 -11.9408 86.8747 -9.93827C146.208 -7.8616 200.47 6.06319 231.917 27.3212L229.729 30.5567Z" fill="#EF3E23"/>
<path d="M229.729 52.1299C160.263 5.20094 4.30864 4.93209 -41.2019 40.2261L-43.5938 37.1111C-20.7133 19.3946 29.2935 9.65094 86.8747 11.6349C146.208 13.7116 200.47 27.6364 231.917 48.8944L229.729 52.1299Z" fill="#EF3E23"/>
<path d="M229.729 73.7037C160.263 26.7747 4.30864 26.5152 -41.2019 61.7999L-43.5938 58.7128C-20.7133 40.9684 29.2935 31.2062 86.8747 33.2087C146.245 35.2576 200.47 49.2102 231.917 70.4867L229.729 73.7037Z" fill="#EF3E23"/>
<path d="M229.729 95.2765C160.263 48.3475 4.30864 48.088 -41.2019 83.3728L-43.5938 80.2856C-20.7133 62.5412 29.2564 52.7697 86.8747 54.7815C146.208 56.8582 200.47 70.783 231.917 92.041L229.729 95.2765Z" fill="#EF3E23"/>
<path d="M229.729 116.841C160.263 69.9212 4.30864 69.6523 -41.2019 104.946L-43.5938 101.859C-20.7133 84.1148 29.2935 74.3619 86.8747 76.3551C146.208 78.4225 200.47 92.3566 231.917 113.615L229.729 116.841Z" fill="#EF3E23"/>
<path d="M229.729 138.423C160.263 91.4942 4.30864 91.2346 -41.2019 126.519L-43.5938 123.432C-20.7133 105.688 29.275 95.8978 86.8747 97.9281C146.208 100.005 200.47 113.93 231.917 135.188L229.729 138.423Z" fill="#EF3E23"/>
<path d="M229.729 159.996C160.263 113.058 4.30864 112.808 -41.2019 148.092L-43.5938 145.005C-20.7133 127.261 29.2564 117.489 86.8747 119.501C146.208 121.578 200.47 135.503 231.917 156.761L229.729 159.996Z" fill="#EF3E23"/>
<path d="M229.729 181.57C160.263 134.641 4.30864 134.372 -41.2019 169.685L-43.5938 166.597C-20.7133 148.834 29.2935 139.091 86.8747 141.075C146.208 143.142 200.47 157.076 231.917 178.334L229.729 181.57Z" fill="#EF3E23"/>
<path d="M229.729 203.142C160.263 156.204 4.30864 155.954 -41.2019 191.239L-43.5938 188.151C-20.7133 170.407 29.2564 160.626 86.8747 162.647C146.208 164.724 200.47 178.649 231.917 199.907L229.729 203.142Z" fill="#EF3E23"/>
<path d="M229.729 224.716C160.263 177.787 4.30864 177.527 -41.2019 212.812L-43.5938 209.725C-20.7133 191.981 29.2935 182.218 86.8747 184.221C146.208 186.288 200.47 200.222 231.917 221.48L229.729 224.716Z" fill="#EF3E23"/>
</g>
</g>
</g>
<defs>
<clipPath id="clip0_322_13031">
<rect width="177" height="712" fill="white"/>
</clipPath>
</defs>
</svg>
