<svg width="400" height="400" viewBox="0 0 400 400" fill="none" xmlns="http://www.w3.org/2000/svg">
<path d="M115.34 184.18C117.83 197.4 114.74 211.34 118.26 224.33C120.81 233.75 126.64 241.9 132.36 249.81C136.03 254.89 139.74 260.01 144.47 264.11C149.21 268.2 155.14 271.23 161.4 271.33" stroke="black" stroke-miterlimit="10"/>
<path d="M219.629 175.17C220.209 173.03 220.819 170.85 222.119 169.05C223.419 167.26 225.579 165.92 227.779 166.23C229.859 166.53 231.519 168.25 232.309 170.21C233.089 172.16 233.139 174.32 233.109 176.43C232.949 186.71 230.969 196.95 227.289 206.55C226.749 207.95 226.139 209.41 224.969 210.35C223.799 211.29 221.919 211.53 220.859 210.45" stroke="black" stroke-miterlimit="10"/>
<path d="M111.719 175.47C110.159 173.65 107.119 173.63 105.179 175.03C103.229 176.44 102.279 178.91 102.159 181.31C102.029 183.71 102.619 186.08 103.209 188.41C104.659 194.19 106.099 199.97 107.549 205.75C108.069 207.84 108.629 209.99 109.979 211.67C111.329 213.35 113.699 214.4 115.679 213.56" stroke="black" stroke-miterlimit="10"/>
<path d="M218.199 210.6C217.999 224.67 212.749 238.62 203.629 249.35C194.509 260.07 181.589 267.49 167.729 269.96" stroke="black" stroke-miterlimit="10"/>
<path d="M115.61 181.75C115.53 174.12 115.52 166.15 118.94 159.32C121.13 154.96 124.67 151.17 125.58 146.38C126.26 142.81 125.38 139.11 125.83 135.51C126.27 131.9 128.9 128 132.52 128.27C146.89 129.36 164.69 122.02 179.06 120.98C182.25 120.75 185.49 120.58 188.6 121.31C191.71 122.04 194.71 123.81 196.24 126.62C198 129.87 197.52 133.87 198.7 137.36C199.74 140.45 202 142.95 203.99 145.53C212.51 156.57 216.9 170.74 216.1 184.67" stroke="black" stroke-miterlimit="10"/>
<path d="M110.128 169.75C110.718 168.73 111.308 167.71 111.898 166.7C111.358 167.03 110.618 166.55 110.448 165.94C110.278 165.33 110.498 164.68 110.718 164.09C110.938 163.5 111.178 162.86 111.038 162.24C110.798 161.19 109.528 160.44 109.678 159.37C109.768 158.74 110.328 158.3 110.758 157.84C111.198 157.38 111.548 156.65 111.168 156.13C111.328 154.67 110.468 150.75 110.628 149.29" stroke="black" stroke-miterlimit="10"/>
<path d="M224.35 162.52C225.03 161.69 225.7 160.85 226.38 160.02C226.97 159.29 226.24 156.63 227 156.07C226.79 153.74 225.65 150.05 225.44 147.72C225.12 144.21 224.8 140.69 224.56 137.17" stroke="black" stroke-miterlimit="10"/>
<path d="M109.888 146.45C109.368 145.41 109.838 144.14 110.498 143.18C111.158 142.22 112.018 141.37 112.398 140.27C112.698 139.41 112.678 138.48 112.728 137.57C112.938 133.87 114.478 130.26 117.008 127.54C118.478 125.97 120.418 124.25 120.028 122.14C123.658 114.59 132.518 106.47 140.198 103.12C144.108 101.42 147.938 99.27 151.858 97.6C154.268 96.58 156.698 95.55 159.278 95.09C164.038 94.25 168.898 95.43 173.728 95.65C175.378 95.73 177.048 95.69 178.678 95.92C182.758 96.5 186.388 98.7 189.898 100.86C192.528 102.48 196.078 103.08 198.928 104.28C201.568 105.4 204.348 106.63 205.988 108.98C207.108 110.59 207.608 112.64 209.008 114.02C210.498 115.49 212.708 115.92 214.508 116.99C217.738 118.91 219.328 122.64 220.718 126.13C221.938 129.19 223.148 132.26 224.368 135.32" stroke="black" stroke-miterlimit="10"/>
<path d="M126.75 165.92C131.82 164.39 137.14 163.72 142.43 163.95" stroke="black" stroke-miterlimit="10"/>
<path d="M174.869 163.46C182.839 162.89 190.909 163.79 198.559 166.1" stroke="black" stroke-miterlimit="10"/>
<path d="M148.96 193.73C147.91 194.17 146.87 194.74 146.12 195.6C145.37 196.46 144.93 197.66 145.21 198.77C145.66 200.55 147.63 201.41 149.35 202.02C152.56 203.16 155.94 204.31 159.3 203.77C161.68 203.38 163.88 202.16 166.27 201.82C167.41 201.66 168.58 201.71 169.71 201.5C170.85 201.29 172 200.78 172.6 199.79C173.2 198.8 172.99 197.29 171.96 196.78" stroke="black" stroke-miterlimit="10"/>
<path d="M137.52 181.88C139.138 181.88 140.45 180.25 140.45 178.24C140.45 176.23 139.138 174.6 137.52 174.6C135.902 174.6 134.59 176.23 134.59 178.24C134.59 180.25 135.902 181.88 137.52 181.88Z" fill="black"/>
<path d="M182.85 181.31C184.468 181.31 185.78 179.68 185.78 177.67C185.78 175.66 184.468 174.03 182.85 174.03C181.232 174.03 179.92 175.66 179.92 177.67C179.92 179.68 181.232 181.31 182.85 181.31Z" fill="black"/>
<path d="M143.75 217.72C153.97 220.39 164.92 220.23 175.05 217.26" stroke="black" stroke-miterlimit="10"/>
<path d="M149.529 222.93C153.919 225.47 159.119 226.57 164.159 226.04" stroke="black" stroke-miterlimit="10"/>
<path d="M110.389 266.12C111.949 263.69 113.499 261.26 115.249 258.97C116.679 257.1 118.479 254.31 120.889 253.65C125.109 252.49 130.039 258.44 132.649 261.03C140.319 268.64 146.519 277.59 154.229 285.16C154.839 285.76 155.469 286.36 156.099 286.94C157.389 288.13 158.869 289.33 160.619 289.42C162.209 289.5 163.679 288.63 165.039 287.8C168.829 285.47 172.609 283.15 176.399 280.82" stroke="black" stroke-miterlimit="10"/>
<path d="M187.439 273C192.159 268.27 196.869 263.54 201.589 258.82C203.839 256.56 206.799 254.11 209.839 255.05C211.319 255.51 212.439 256.7 213.489 257.84C217.249 261.93 221.009 266.02 224.769 270.12" stroke="black" stroke-miterlimit="10"/>
<path d="M119.76 252.74C123.92 251.7 128.07 250.67 132.23 249.63" stroke="black" stroke-miterlimit="10"/>
<path d="M208.398 253.14C212.408 250.39 214.758 245.4 214.338 240.56C213.348 240.31 212.368 240.06 211.378 239.81" stroke="black" stroke-miterlimit="10"/>
<path d="M224.649 270.17C228.879 266.72 231.269 261.14 230.859 255.7C230.449 250.26 227.239 245.1 222.539 242.33" stroke="black" stroke-miterlimit="10"/>
<path d="M110.398 266.48C115.838 265.41 121.278 264.34 126.718 263.27" stroke="black" stroke-miterlimit="10"/>
<path d="M75.1992 271.79C87.0692 265.98 99.5792 261.49 112.429 258.43" stroke="black" stroke-miterlimit="10"/>
<path d="M230.619 251.35C249.339 257.59 268.579 264.11 283.539 276.98C290.799 283.22 296.859 290.84 301.309 299.31" stroke="black" stroke-miterlimit="10"/>
<path d="M115.881 168.33C111.731 166.4 107.751 164.1 104.021 161.46C99.3806 161.52 94.3106 160.88 89.8906 159.48C92.1706 162.84 94.3406 166.27 96.3906 169.78C99.3906 171.26 102.461 172.82 105.231 174.68" stroke="black" stroke-miterlimit="10"/>
<path d="M103.15 164.78C107.21 167.53 111.27 170.28 115.34 173.02" stroke="black" stroke-miterlimit="10"/>
<path d="M101.039 167.8C101.439 167.92 101.779 168.19 102.099 168.45C104.369 170.27 106.639 172.1 108.699 174.16" stroke="black" stroke-miterlimit="10"/>
<path d="M96.0801 169.85L97.3901 170.34C98.3701 170.7 99.3801 171.07 100.42 171.05C100.86 171.05 101.3 170.96 101.68 170.73C102.06 170.5 102.35 170.12 102.39 169.68C102.45 169 101.91 168.43 101.41 167.95" stroke="black" stroke-miterlimit="10"/>
<path d="M103.131 164.41C103.811 164.66 104.521 164.92 105.231 164.82C105.941 164.72 106.651 164.14 106.621 163.42C106.611 163.11 106.461 162.82 106.291 162.56C105.951 162.06 105.471 161.65 104.921 161.38" stroke="black" stroke-miterlimit="10"/>
<path d="M100.73 167.51C101.6 167.86 102.55 168.04 103.49 168.03C103.7 168.03 103.93 168.01 104.12 167.91C104.37 167.77 104.51 167.49 104.57 167.21C104.77 166.24 104.12 165.32 103.51 164.54" stroke="black" stroke-miterlimit="10"/>
<path d="M92.25 163.37C93.28 162.71 94.17 161.83 94.85 160.81" stroke="black" stroke-miterlimit="10"/>
<path d="M26.5098 289.41C54.7898 285.32 83.5198 284.29 112.02 286.35" stroke="black" stroke-miterlimit="10"/>
<path d="M25.6094 291.64C41.0894 288.84 56.8994 288.69 72.6294 288.54C80.3294 288.47 88.0294 288.4 95.7294 288.33C101.549 288.28 107.379 288.22 113.189 288.54" stroke="black" stroke-miterlimit="10"/>
<path d="M25.9707 294.06C38.7307 293.2 51.5407 293.22 64.3307 293.25C80.4207 293.28 96.5607 293.31 112.531 295.31" stroke="black" stroke-miterlimit="10"/>
<path d="M21 293.96C22.97 294.49 24.47 296.04 25.88 297.52C34.62 306.76 43.44 316.12 49.8 327.14" stroke="black" stroke-miterlimit="10"/>
<path d="M37.4693 286.56C36.7293 285.68 35.6393 285.1 34.4993 284.99C34.1593 284.96 33.7993 284.97 33.4793 285.08C33.1793 285.19 32.9093 285.39 32.6793 285.61C31.3993 286.81 30.9493 288.66 30.8793 290.41C30.8293 291.65 30.9493 292.94 31.5493 294.03C32.7993 296.28 35.8293 297.02 38.3393 296.41C38.9193 296.27 39.5093 296.06 39.9693 295.67" stroke="black" stroke-miterlimit="10"/>
<path d="M53.6498 285.51C52.9198 284.86 51.8798 284.72 50.8998 284.64C49.4898 284.53 47.8898 284.57 46.8998 285.58C46.2198 286.28 45.9898 287.29 45.9498 288.26C45.8598 290.27 46.4898 292.36 47.9098 293.77C49.3298 295.18 51.6098 295.79 53.4598 295" stroke="black" stroke-miterlimit="10"/>
<path d="M71.2999 285.07C69.7199 283.65 67.4999 283.24 65.4099 282.89C65.0499 282.83 64.6699 282.77 64.3199 282.88C64.0399 282.97 63.8099 283.16 63.5899 283.35C61.5899 285.15 60.4999 288.12 61.4299 290.64C61.9199 291.97 62.9099 293.07 64.0099 293.98C65.5199 295.23 67.4999 296.22 69.3899 295.69" stroke="black" stroke-miterlimit="10"/>
<path d="M86.9808 284.99C85.4708 283.39 83.2008 282.75 81.0308 282.39C80.7608 282.35 80.4808 282.31 80.2408 282.42C80.0708 282.5 79.9408 282.65 79.8208 282.79C78.2508 284.63 76.6608 286.57 76.0508 288.9C75.4508 291.24 76.1308 294.09 78.2408 295.27C79.4308 295.93 80.8608 295.97 82.2208 295.96C82.8808 295.96 83.7508 295.75 83.7608 295.09" stroke="black" stroke-miterlimit="10"/>
<path d="M102.42 285C102.39 283.85 101.2 282.99 100.05 282.91C98.8996 282.83 97.7896 283.31 96.7296 283.78C95.9396 284.13 95.1196 284.51 94.5496 285.16C94.1096 285.66 93.8496 286.3 93.6496 286.93C93.3296 287.93 93.1096 288.96 92.9996 290C92.8696 291.19 92.9796 292.58 93.9396 293.28" stroke="black" stroke-miterlimit="10"/>
<path d="M45.91 321.73C44.14 323.38 39.85 329.86 40.5 332.19C49.24 326.41 60.27 324.2 70.57 326.16C72.1 326.45 73.66 326.85 74.9 327.8C76.3 328.87 77.12 330.51 77.89 332.09C79.13 334.61 80.36 337.14 81.6 339.66C82.05 340.58 82.52 341.58 82.35 342.59C82.22 343.38 81.73 344.05 81.25 344.69C78.63 348.19 76.02 351.69 73.4 355.19" stroke="black" stroke-miterlimit="10"/>
<path d="M240.651 107.02C235.261 104.7 231.551 99.14 230.991 93.3C230.431 87.46 232.831 81.51 236.931 77.31C241.031 73.11 246.711 70.62 252.531 69.88C248.341 57.77 258.261 42.95 270.721 39.93C283.181 36.91 296.911 44.59 302.151 56.28C305.661 51.63 311.811 50 317.511 48.82C325.761 47.12 334.631 45.81 342.361 49.14C352.411 53.47 358.061 66.03 354.641 76.43C365.891 79.64 375.161 89.05 378.201 100.35C379.121 103.77 379.481 107.52 378.121 110.79C375.091 118.06 365.651 119.61 357.791 120.1C359.731 128.84 360.761 139.4 354.131 145.41C350.871 148.37 346.391 149.52 342.071 150.43C330.641 152.84 317.491 153.87 308.501 146.42C307.591 145.67 306.681 144.81 305.521 144.61C304.131 144.37 302.791 145.14 301.571 145.83C292.331 151.05 281.081 153.44 270.921 150.36C260.761 147.28 252.261 137.94 252.001 127.33C242.851 127.43 235.081 117.43 237.421 108.59" stroke="black" stroke-miterlimit="10"/>
<path d="M242.7 149.84C241.13 152.61 240.49 155.91 240.92 159.06C241.32 162 242.95 165.08 245.8 165.89C249.75 167.01 253.53 163.13 254.5 159.15C254.95 157.3 255.02 155.27 254.17 153.57C253.32 151.87 251.38 150.62 249.52 151.02" stroke="black" stroke-miterlimit="10"/>
<path d="M275.62 79.34C276.07 92.38 275.84 105.44 274.93 118.46C288.32 118.39 301.71 118.33 315.11 118.26C315.56 104.62 315.14 90.95 313.87 77.36C301.75 77.41 289.64 77.55 277.52 77.8" stroke="black" stroke-miterlimit="10"/>
<path d="M283.27 127.84C296.31 115.22 309.61 102.86 323.15 90.77C331.39 103.99 339.56 117.25 347.68 130.54C326.74 129.96 305.8 129.38 284.86 128.81" stroke="black" stroke-miterlimit="10"/>
<path d="M272.59 70.22C266.97 72.29 262.83 77.89 262.49 83.87C262.05 91.58 268.02 98.95 275.53 100.76C283.04 102.57 291.35 99.08 295.88 92.83C298.99 88.55 300.43 82.96 299.2 77.82C297.97 72.68 293.87 68.18 288.71 67.03C286.14 66.46 283.46 66.69 280.84 66.93" stroke="black" stroke-miterlimit="10"/>
<path d="M187.301 325.6C205.261 331.35 224.861 331.89 243.111 327.13C228.031 327.74 212.411 328.26 198.421 322.6" stroke="black" stroke-miterlimit="10"/>
<path d="M229.83 327.39C230.62 321.56 231.41 315.73 232.19 309.91" stroke="black" stroke-miterlimit="10"/>
<path d="M232.02 309.58C235.21 305.01 238.53 300.53 241.97 296.14C242.6 299.2 243.85 302.1 245.09 304.97C246.01 307.1 246.89 308.99 247.15 311.3C247.32 312.84 247.07 314.4 246.82 315.93C246.21 319.7 245.59 323.47 244.98 327.24" stroke="black" stroke-miterlimit="10"/>
<path d="M236.359 311.18C236.289 316.47 235.869 321.76 235.119 327" stroke="black" stroke-miterlimit="10"/>
<path d="M241.72 311.94C241.89 317.43 241.32 322.93 240.02 328.27" stroke="black" stroke-miterlimit="10"/>
<path d="M232.24 310.17C232.09 311.7 232.06 313.25 232.25 314.78C232.3 315.17 232.37 315.59 232.62 315.9C232.87 316.21 233.34 316.38 233.67 316.16C234.85 314.92 235.78 313.44 236.38 311.84" stroke="black" stroke-miterlimit="10"/>
<path d="M241.539 312.05C242.029 313.08 242.539 314.14 243.349 314.94C243.649 315.24 244.009 315.5 244.419 315.59C245.269 315.78 246.139 315.19 246.549 314.43C246.959 313.67 247.029 312.77 247.089 311.9" stroke="black" stroke-miterlimit="10"/>
<path d="M237.02 313.58C237.04 314.39 237.14 315.2 237.31 315.99C237.41 316.45 237.55 316.91 237.84 317.27C238.13 317.63 238.63 317.86 239.08 317.73" stroke="black" stroke-miterlimit="10"/>
<path d="M238.619 300.99C240.189 301.45 241.779 301.79 243.399 302.03" stroke="black" stroke-miterlimit="10"/>
<path d="M224.029 324.96C223.529 317.15 223.019 309.34 222.669 301.52C222.609 300.21 222.569 298.83 223.159 297.65C224.009 295.95 225.989 295.1 227.879 294.95C229.369 294.83 231.069 295.18 231.859 296.45C232.239 297.06 232.349 297.79 232.459 298.5C232.799 300.79 233.129 303.09 233.469 305.38" stroke="black" stroke-miterlimit="10"/>
</svg>
