<svg width="400" height="400" viewBox="0 0 400 400" fill="none" xmlns="http://www.w3.org/2000/svg">
<path d="M245.43 175.86C245.53 179.43 245.64 183 245.74 186.57C245.81 189.05 245.88 191.55 245.62 194.02C244.85 201.39 241.19 208.16 236.97 214.25C232.74 220.34 227.87 226 224.15 232.41C221.83 236.42 219.65 241.01 215.42 242.89C213.98 243.53 212.4 243.8 210.85 244.06C208.5 244.46 205.24 245.55 202.85 245.54C199.13 245.54 195.28 245.5 191.89 243.98C189.03 242.69 186.73 240.45 184.53 238.21C174.89 228.41 165.96 217.92 157.04 207.45C155.12 205.2 153.14 202.83 152.42 199.96C152.1 198.7 152.04 197.38 151.99 196.08C151.74 190.36 151.49 184.64 151.24 178.91C151.82 181 154.49 186.28 155.08 188.37C155.92 191.37 156.78 194.43 158.45 197.06C160.18 199.8 162.69 201.96 165.2 204.02C167.92 206.26 170.67 208.45 173.47 210.59C175.47 207.72 177.18 204.88 179.18 202.01C179.84 201.07 180.51 200.1 181.43 199.41C182.4 198.68 183.58 198.29 184.73 197.91C189.77 196.27 194.88 194.62 200.17 194.35" stroke="black" stroke-miterlimit="10"/>
<path d="M205.35 193.14C210.29 193.86 215.19 194.82 220.03 196.03C221.06 196.29 222.1 196.56 222.98 197.15C224.85 198.41 225.55 200.77 226.13 202.94C226.99 206.18 227.85 209.42 228.71 212.66C233.74 207.19 238.27 201.37 242.49 195.26C243.31 194.08 244.12 192.87 244.58 191.5C245.09 190 245.15 188.39 245.2 186.8C245.29 184.23 245.38 181.66 245.47 179.1" stroke="black" stroke-miterlimit="10"/>
<path d="M185.81 207.47C186.3 208.98 187.65 210.11 189.13 210.69C190.61 211.28 192.23 211.4 193.82 211.46C199.82 211.68 205.84 211.1 211.69 209.74C213.81 209.25 216.33 208.14 216.41 205.97C210.31 206.8 204.2 207.63 198.1 208.46C193.82 209.04 189.27 209.59 185.35 207.77" stroke="black" stroke-miterlimit="10"/>
<path d="M192.129 216.8C196.709 218.07 201.569 217.61 206.289 217.13C208.159 216.94 210.149 216.7 211.589 215.5" stroke="black" stroke-miterlimit="10"/>
<path d="M191.269 190.35C190.359 190.57 189.339 190.18 188.799 189.42C190.639 188.3 193.039 189.13 194.919 190.19C196.799 191.25 198.749 192.57 200.899 192.37C203.419 192.13 205.209 189.93 207.219 188.4C209.189 186.91 211.589 185.99 214.049 185.78C214.479 185.74 214.959 185.74 215.299 186C215.919 186.47 215.699 187.55 215.059 188C214.419 188.45 213.569 188.44 212.789 188.35C212.009 188.26 211.209 188.12 210.469 188.37" stroke="black" stroke-miterlimit="10"/>
<path d="M151.219 150.31C152.429 156.65 154.279 162.86 156.729 168.83C157.119 169.79 157.549 170.76 158.309 171.47C159.409 172.51 161.009 172.79 162.509 173.02C167.099 173.73 171.759 174.44 176.359 173.78C180.959 173.12 185.549 170.87 187.919 166.88C188.619 165.7 189.109 164.41 189.549 163.11C190.849 159.24 191.719 155.14 191.269 151.08C191.189 150.38 191.069 149.66 190.709 149.05C190.079 147.98 188.869 147.43 187.699 147.01C178.749 143.81 168.909 145.02 159.479 146.27C157.339 146.55 155.089 146.88 153.359 148.18" stroke="black" stroke-miterlimit="10"/>
<path d="M190.939 148.44C194.519 147.06 201.779 146.69 205.599 147.1C204.289 152.27 206.309 157.68 208.789 162.4C209.619 163.98 210.529 165.56 211.829 166.79C215.459 170.22 221.069 170.12 226.049 169.8C228.859 169.62 231.679 169.45 234.489 169.27C235.299 169.22 236.149 169.16 236.849 168.75C237.559 168.33 238.029 167.61 238.459 166.9C241.939 161.08 243.849 154.33 243.949 147.55C243.969 146.47 243.919 145.34 243.409 144.39C242.389 142.51 239.969 141.99 237.849 141.78C227.409 140.74 216.729 142.24 206.989 146.13" stroke="black" stroke-miterlimit="10"/>
<path d="M146.809 153.44C144.709 151.97 141.499 152.44 139.909 154.45C138.819 155.84 138.519 157.68 138.469 159.45C138.419 161.26 138.589 163.08 139.119 164.81C141.029 170.93 147.369 175.39 147.689 181.79C147.749 182.98 147.599 184.24 148.069 185.33C148.539 186.42 150.009 187.22 150.959 186.49" stroke="black" stroke-miterlimit="10"/>
<path d="M248.67 145.25C250.32 144.59 252.3 145.38 253.43 146.76C254.56 148.14 254.96 149.98 255.04 151.76C255.1 153.16 254.98 154.58 254.48 155.89C253.99 157.14 253.17 158.23 252.44 159.36C249.8 163.49 248.48 168.44 248.7 173.33C248.75 174.41 248.87 175.53 248.51 176.56C248.15 177.59 247.15 178.49 246.08 178.31" stroke="black" stroke-miterlimit="10"/>
<path d="M154.59 140C157.18 136.86 160.87 134.75 164.77 133.58C168.67 132.41 172.78 132.12 176.85 132.18C177.71 132.19 178.6 132.22 179.36 132.62" stroke="black" stroke-miterlimit="10"/>
<path d="M215.379 131.32C219.619 130.14 223.999 129.48 228.399 129.36C229.619 129.33 230.859 129.34 232.039 129.66C233.029 129.93 233.949 130.41 234.879 130.84C236.549 131.61 238.289 132.22 240.069 132.68" stroke="black" stroke-miterlimit="10"/>
<path d="M156.05 73.74C153.04 75.36 150.16 77.23 147.45 79.32C146.02 80.43 144.61 81.62 143.63 83.15C142.65 84.68 142.16 86.6 142.7 88.33C143.07 89.54 143.9 90.56 144.32 91.75C145.35 94.67 143.78 97.78 142.46 100.58C139.13 107.66 137.22 115.76 139.1 123.36C139.74 125.96 140.81 128.43 141.65 130.97C143.85 137.58 144.52 144.59 145.17 151.53" stroke="black" stroke-miterlimit="10"/>
<path d="M158.249 69.17C158.089 66.15 158.299 63.11 158.869 60.15C160.509 60.6 162.189 61.05 163.879 60.92C165.569 60.79 167.309 59.95 168.059 58.43C174.479 60.22 181.279 60.06 187.899 59.35C194.519 58.64 201.089 57.39 207.739 57.05C211.419 56.86 215.179 56.96 218.679 58.12C222.179 59.28 225.419 61.6 227.009 64.93C231.249 65.07 235.839 65.79 239.559 67.83C239.529 68.43 239.329 69.03 238.979 69.52C243.619 73.08 246.439 78.62 247.759 84.32C248.079 85.72 248.329 87.14 248.229 88.57C248.139 89.9 247.769 91.19 247.699 92.52C247.519 96 249.429 99.23 250.019 102.67C250.669 106.45 249.719 110.29 249.049 114.07C247.519 122.68 247.459 131.48 247.409 140.23" stroke="black" stroke-miterlimit="10"/>
<path d="M146.2 142.04C144.82 136.13 145.87 129.69 149.05 124.52C150.84 121.6 153.38 118.77 153.32 115.35C153.29 113.39 152.37 111.47 152.61 109.52C153.17 105.04 159.27 102.93 159.94 98.47C160.03 97.86 160.05 97.15 160.53 96.76C160.79 96.55 161.13 96.49 161.46 96.43C168.22 95.23 174.99 94.04 181.83 93.47C184.87 93.22 188.14 93.14 190.74 94.73" stroke="black" stroke-miterlimit="10"/>
<path d="M196.229 94.45C198.419 94.45 200.289 92.98 202.139 91.81C206.109 89.3 210.789 87.95 215.489 87.95C217.289 87.95 219.099 88.15 220.799 88.72C222.899 89.42 224.769 90.67 226.579 91.93C228.929 93.57 231.239 95.28 233.219 97.35C237.079 101.39 239.519 106.77 240.019 112.34C240.209 114.5 240.139 116.75 241.019 118.74C241.699 120.26 242.889 121.49 243.739 122.92C246.269 127.12 245.659 132.43 244.959 137.28" stroke="black" stroke-miterlimit="10"/>
<path d="M173.129 161.12C175.118 161.12 176.729 159.513 176.729 157.53C176.729 155.547 175.118 153.94 173.129 153.94C171.141 153.94 169.529 155.547 169.529 157.53C169.529 159.513 171.141 161.12 173.129 161.12Z" fill="black"/>
<path d="M220.899 159.76C222.887 159.76 224.499 158.153 224.499 156.17C224.499 154.187 222.887 152.58 220.899 152.58C218.911 152.58 217.299 154.187 217.299 156.17C217.299 158.153 218.911 159.76 220.899 159.76Z" fill="black"/>
<path d="M159.639 211.24C160.269 215 160.529 218.83 160.419 222.64" stroke="black" stroke-miterlimit="10"/>
<path d="M240.099 209.63C240.079 212.07 240.069 214.52 240.049 216.96C240.039 218.57 240.249 220.53 241.709 221.19" stroke="black" stroke-miterlimit="10"/>
<path d="M160.18 224.92C165.41 227.23 169.6 231.37 174.56 234.2C177.61 235.94 180.95 237.16 184.4 237.82" stroke="black" stroke-miterlimit="10"/>
<path d="M220.43 235.59C221.45 235.64 222.47 235.48 223.46 235.21C227.08 234.22 230.13 231.81 232.86 229.24C235.59 226.66 238.12 223.84 241.21 221.72" stroke="black" stroke-miterlimit="10"/>
<path d="M159.289 221.94C157.699 221.7 156.129 222.68 155.209 223.99C154.289 225.3 153.879 226.9 153.489 228.45C152.609 231.95 151.739 235.45 150.859 238.96C150.669 239.72 150.469 240.49 150.039 241.14C149.379 242.13 148.139 242.96 148.299 244.14C148.389 244.81 148.929 245.33 149.439 245.78C152.319 248.3 155.399 250.58 158.639 252.61" stroke="black" stroke-miterlimit="10"/>
<path d="M221.09 241.09C223.27 249.92 224.9 258.88 225.97 267.91C227.48 267.39 228.67 266.21 229.79 265.07C238.6 256.07 247.08 246.77 255.22 237.17C256.1 236.13 257.04 234.87 256.77 233.53C256.6 232.7 255.99 232.03 255.43 231.4C252.43 228.05 249.92 224.26 248.01 220.2C247.75 219.65 247.47 219.06 246.93 218.79C246.57 218.61 246.15 218.6 245.74 218.59C244.08 218.56 242.42 218.53 240.77 218.51" stroke="black" stroke-miterlimit="10"/>
<path d="M211.89 243.11C208.06 247.18 204.56 251.56 201.42 256.18C201.35 251.83 199.16 247.56 195.66 244.96" stroke="black" stroke-miterlimit="10"/>
<path d="M158.619 252.14C163.039 257.78 166.879 263.87 170.059 270.29C170.149 270.48 170.299 270.7 170.509 270.68C170.649 270.67 170.759 270.54 170.849 270.43C176.049 263.66 181.249 256.89 186.459 250.12" stroke="black" stroke-miterlimit="10"/>
<path d="M147.749 244.79C137.969 249.93 126.939 252.07 116.439 255.51C105.939 258.96 95.3594 264.2 89.3594 273.48" stroke="black" stroke-miterlimit="10"/>
<path d="M255.33 234.9C266.4 240.98 279.02 243.67 290.41 249.13C301.8 254.59 312.59 264.13 313.97 276.68" stroke="black" stroke-miterlimit="10"/>
<path d="M94.0992 287.94C89.5592 288.11 86.0692 292.12 84.2192 296.26C81.9792 301.28 81.2792 307.08 82.8192 312.36C84.3592 317.64 88.2492 322.3 93.3892 324.28C95.8892 325.24 98.5892 325.56 101.269 325.79C104.149 326.03 107.119 326.15 109.849 325.2C113.219 324.02 115.889 321.27 117.529 318.1C119.169 314.93 119.869 311.35 120.209 307.79C120.709 302.42 120.239 296.51 116.669 292.46C111.889 287.04 103.619 286.96 96.3992 287.3" stroke="black" stroke-miterlimit="10"/>
<path d="M296.17 291.37C292.38 291.41 288.69 293.23 286.15 296.05C283.61 298.87 282.18 302.6 281.91 306.39C281.48 312.31 284.19 318.66 289.44 321.44C292.17 322.89 295.33 323.29 298.42 323.3C302.4 323.3 306.6 322.6 309.67 320.07C311.75 318.35 313.14 315.92 314.01 313.37C315.62 308.61 315.44 303.2 313.22 298.69C311 294.18 306.69 290.68 301.75 289.73" stroke="black" stroke-miterlimit="10"/>
<path d="M119.34 307.88C140.2 319.77 161.06 331.65 181.92 343.54C182.37 343.8 182.87 344.06 183.38 343.96C183.85 343.87 184.2 343.48 184.52 343.12C200.27 324.95 217.55 308.1 236.12 292.83C238.73 290.68 241.45 288.47 242.91 285.42C255.35 292.13 267.89 298.64 280.53 304.96" stroke="black" stroke-miterlimit="10"/>
<path d="M90.4106 292.6C89.2206 292.63 88.3306 293.7 87.7106 294.72C86.7406 296.31 85.9606 298.03 85.4106 299.81C85.1106 300.77 84.8806 301.79 85.0206 302.79C85.1606 303.79 85.7506 304.78 86.6906 305.15C86.8206 305.2 86.9706 305.24 87.1106 305.22C87.5206 305.14 87.6306 304.61 87.6606 304.2C87.9206 301.28 89.2306 298.47 91.3006 296.39C93.3706 294.31 96.1906 293 99.1106 292.75C99.3906 291.89 98.4006 291.17 97.5406 290.87C96.5306 290.53 95.4806 290.31 94.4106 290.24" stroke="black" stroke-miterlimit="10"/>
<path d="M293.51 296.82C291.69 296.44 289.69 296.95 288.28 298.17C286.87 299.39 286.07 301.28 286.18 303.15C286.21 303.59 286.29 304.06 286.58 304.39C287.02 304.9 287.77 304.95 288.44 304.98C289.38 305.01 290.54 304.92 290.94 304.07C291.13 303.68 291.09 303.22 291.18 302.8C291.42 301.66 292.52 300.92 293.57 300.4C295.17 299.6 296.88 299.02 298.63 298.68C298.8 298.19 298.47 297.6 297.96 297.49" stroke="black" stroke-miterlimit="10"/>
<path d="M136.991 136.44C115.851 136.42 94.7109 135.99 73.5809 135.15C73.7709 125.02 73.5409 114.89 72.8809 104.78C78.3009 105.29 83.2809 103.57 88.7309 103.54C105.141 103.44 121.551 103.34 137.961 103.23" stroke="black" stroke-miterlimit="10"/>
<path d="M250.301 133.42C266.441 132.79 282.631 132.16 298.741 133.31C311.571 134.22 325.621 135.32 338.421 134.1C338.801 128.48 339.181 122.86 339.561 117.24C339.921 111.94 340.281 106.64 340.641 101.34C311.181 101.08 281.721 100.82 252.261 100.56" stroke="black" stroke-miterlimit="10"/>
<path d="M72.4395 144.25C96.0395 143.33 119.679 143.54 143.249 144.9" stroke="black" stroke-miterlimit="10"/>
<path d="M252.91 143.99C281.41 143.95 309.91 143.74 338.4 143.37C339.57 154.62 339.4 166.01 337.91 177.22C308.93 175.71 279.93 174.43 250.93 173.39" stroke="black" stroke-miterlimit="10"/>
<path d="M70.5195 144.62C71.6895 144.59 72.1295 146.11 72.1995 147.28C72.7495 156.25 73.1595 165.22 73.4295 174.2C73.4495 174.85 73.4795 175.55 73.8395 176.09C74.4695 177.04 75.7995 177.15 76.9395 177.16C98.3795 177.37 119.83 177.24 141.27 176.76" stroke="black" stroke-miterlimit="10"/>
<path d="M150.529 187.93C145.439 188.55 140.299 188.41 135.179 188.28C114.489 187.74 93.7994 187.2 73.1094 186.66C74.1794 198 74.5994 209.41 75.0294 220.79C93.7794 221.53 112.569 221.26 131.279 219.99C140.429 219.37 149.639 218.51 158.759 219.49" stroke="black" stroke-miterlimit="10"/>
<path d="M249.619 185.9C279.129 185.94 308.649 185.98 338.159 186.02C337.379 196.77 336.589 207.51 335.809 218.26C305.529 218.56 275.239 217.72 245.029 215.73" stroke="black" stroke-miterlimit="10"/>
<path d="M87.5802 115.28C85.7002 116.98 84.4602 119.6 85.0302 122.07C85.6002 124.54 88.3702 126.47 90.7602 125.6C91.7402 125.24 92.5302 124.5 93.2702 123.77C94.7302 122.33 96.2502 120.51 95.9202 118.48C95.6902 117.08 94.5902 115.95 93.3202 115.32C92.0502 114.69 90.6202 114.48 89.2202 114.27" stroke="black" stroke-miterlimit="10"/>
<path d="M277.629 112.62C275.509 113.43 273.749 115.16 272.909 117.27C272.519 118.25 272.339 119.44 272.939 120.31C273.359 120.92 274.079 121.23 274.769 121.5C275.869 121.93 277.029 122.31 278.209 122.2C280.879 121.95 282.729 119.15 282.829 116.47C282.869 115.36 282.619 114.14 281.749 113.44C280.919 112.77 279.759 112.76 278.689 112.77" stroke="black" stroke-miterlimit="10"/>
<path d="M96.8906 119.19C109.571 119.07 122.251 119.23 134.931 119.66" stroke="black" stroke-miterlimit="10"/>
<path d="M250.52 116.87C257.85 117 265.18 117.02 272.51 116.93" stroke="black" stroke-miterlimit="10"/>
<path d="M125.2 155.84C122.57 157.58 120.26 159.79 118.39 162.32C118.29 162.46 118.18 162.62 118.2 162.79C118.21 162.96 118.34 163.09 118.46 163.21C120.05 164.82 121.63 166.44 123.22 168.05C123.47 168.31 123.8 168.59 124.15 168.51C124.37 168.46 124.54 168.28 124.69 168.12C126.4 166.26 128.39 164.67 130.58 163.4C128.38 161.25 126.46 158.82 124.88 156.18" stroke="black" stroke-miterlimit="10"/>
<path d="M315.89 154.66C312.93 157.59 309.96 160.52 307 163.45C308.98 165.93 311.24 168.19 313.71 170.18C313.97 170.39 314.26 170.61 314.6 170.62C314.93 170.63 315.23 170.43 315.51 170.24C318.3 168.28 320.91 166.06 323.29 163.63C320.78 160.97 318.57 158.01 316.74 154.85" stroke="black" stroke-miterlimit="10"/>
<path d="M131.17 163.31C133.41 164 135.81 164.18 138.13 163.83" stroke="black" stroke-miterlimit="10"/>
<path d="M254.471 160.27C270.351 161.07 286.251 161.26 302.141 160.83" stroke="black" stroke-miterlimit="10"/>
<path d="M86.5195 198.53C90.3395 198.43 94.1695 198.34 97.9895 198.24C94.8695 200.44 93.6295 204.4 91.3695 207.48C90.0195 209.32 88.2895 210.86 86.5695 212.37C87.7595 212.23 88.9595 212.09 90.1495 211.95C93.1295 211.6 96.1495 211.25 99.1195 211.69C95.5895 207.37 91.7195 203.34 87.5395 199.65" stroke="black" stroke-miterlimit="10"/>
<path d="M298.191 193.92C302.601 193.68 307.011 193.67 311.421 193.88C306.411 198.32 301.401 202.76 296.391 207.2C300.051 207.16 303.721 207.12 307.381 207.07C307.781 207.07 308.211 207.05 308.531 206.81C309.211 206.3 308.931 205.22 308.491 204.49C305.951 200.27 300.551 198.44 297.961 194.25" stroke="black" stroke-miterlimit="10"/>
<path d="M94.0293 204.4C94.2593 204.97 95.0193 205.05 95.6293 205.04C114.489 204.85 133.349 204.66 152.209 204.47" stroke="black" stroke-miterlimit="10"/>
<path d="M246.811 201.61C263.851 199.59 281.081 199.19 298.191 200.42" stroke="black" stroke-miterlimit="10"/>
</svg>
