<svg width="400" height="400" viewBox="0 0 400 400" fill="none" xmlns="http://www.w3.org/2000/svg">
<path d="M89.631 151.31C91.141 149.79 91.201 147.29 90.431 145.29C89.661 143.29 88.231 141.63 87.001 139.88C85.851 138.25 84.821 136.49 83.341 135.15C81.491 133.48 79.091 132.6 76.811 131.6C72.931 129.9 69.181 127.66 66.511 124.37C65.881 123.6 65.301 122.71 65.271 121.71C65.251 121.1 65.441 120.51 65.681 119.94C66.771 117.33 68.831 115.14 71.371 113.89C73.721 112.74 76.371 112.41 78.941 111.93C81.791 111.39 84.641 110.65 87.551 110.72C90.461 110.79 93.501 111.85 95.191 114.21C96.211 115.64 96.631 117.39 97.151 119.07C99.191 125.76 102.951 131.92 107.981 136.79C108.361 137.16 108.751 137.53 108.991 138C109.201 138.43 109.271 138.91 109.251 139.39C109.201 140.93 108.321 142.34 107.181 143.38C106.041 144.42 104.651 145.13 103.281 145.82C101.651 146.65 100.011 147.48 98.381 148.32C95.751 149.66 93.021 151.02 90.081 151.15C89.801 150 89.911 149.03 89.411 147.86C88.971 146.85 88.351 145.91 87.641 145.07C86.171 143.35 84.261 142 82.201 141.08C78.131 139.26 73.601 138.81 69.241 137.87C64.881 136.93 60.391 135.3 57.591 131.83C56.371 130.31 55.541 128.51 54.921 126.67C53.811 123.36 53.341 119.84 53.541 116.36C53.581 115.59 53.671 114.78 54.091 114.13C54.511 113.48 55.341 113.03 56.071 113.29C55.801 114.61 55.771 116.39 57.041 116.84C57.901 117.15 58.811 116.57 59.521 115.99C61.461 114.4 63.141 112.5 64.501 110.39C65.781 108.41 66.771 106.24 68.161 104.33C70.051 101.73 72.671 99.67 75.641 98.43C76.621 98.02 77.821 97.44 77.801 96.38C77.771 95.44 76.731 94.87 75.801 94.73C74.871 94.59 73.861 94.68 73.061 94.2C72.681 92.74 74.501 91.75 75.971 91.42C80.781 90.35 85.791 90.21 90.651 91.03C93.011 91.43 95.411 92.09 97.241 93.63C100.791 96.62 101.151 101.95 100.451 106.53C99.751 111.11 98.261 115.73 99.121 120.29C100.231 126.14 104.911 130.51 108.491 135.27C109.301 136.34 110.081 137.52 110.161 138.86C110.271 140.84 108.641 142.67 106.721 143.15C104.801 143.63 102.711 142.96 101.131 141.76C99.551 140.56 98.411 138.86 97.451 137.12C94.041 130.94 92.601 123.88 90.041 117.3C89.791 116.67 89.371 115.92 88.691 115.97C88.311 115.99 87.991 116.28 87.751 116.58C86.231 118.47 86.211 121.51 84.141 122.76C83.251 123.3 82.161 123.37 81.131 123.27C77.021 122.86 73.131 119.91 69.111 120.88C68.871 120.94 68.621 121.01 68.441 121.17C67.991 121.56 68.061 122.33 68.431 122.8C68.801 123.27 69.381 123.52 69.931 123.76C77.821 127.11 85.521 131.1 92.101 136.6C94.561 138.66 97.021 141.29 97.041 144.5C97.061 148.08 93.351 151.19 89.831 150.55" fill="#EE3E23"/>
<path d="M38.6805 196.82C55.6705 196.78 72.6605 196.73 89.6505 196.69C111.341 196.63 133.121 196.57 154.581 193.44C155.191 193.35 155.831 193.27 156.391 193.53C156.901 193.77 157.241 194.25 157.591 194.69C159.591 197.15 162.841 198.54 166.011 198.29C166.701 198.23 167.421 198.11 168.081 198.33C169.451 198.8 169.901 200.47 170.131 201.9C171.301 209.37 171.721 216.97 171.381 224.52C171.351 225.27 171.271 226.1 170.721 226.61C170.091 227.2 169.111 227.12 168.251 227.01C155.581 225.38 142.771 225.22 129.991 225.06C99.8606 224.69 69.6605 224.32 39.6705 227.2C39.1605 224.45 39.0605 221.62 39.3705 218.84C47.2605 216.96 55.5105 217.93 63.6305 217.88C69.6305 217.84 75.6105 217.24 81.5805 216.64C86.8305 216.11 92.0705 215.59 97.3205 215.06C98.2705 214.96 99.2505 214.86 100.091 214.41C101.551 213.63 102.321 211.91 102.421 210.26C102.521 208.61 102.051 206.97 101.591 205.38C80.9905 205.61 60.4105 206.62 39.8905 208.41C40.2505 204.56 39.8005 200.64 38.5605 196.97" fill="#EE3E23"/>
<path d="M40.0703 260.49C63.7603 260.72 87.4403 260.95 111.13 261.18C130.24 261.37 149.38 261.55 168.42 259.89C158.71 264.52 149.01 269.15 139.3 273.77C126.93 279.67 114.55 285.57 102.39 291.89C100.14 293.06 97.8703 294.25 95.3803 294.76C93.1603 295.21 90.8803 295.1 88.6203 295C72.4503 294.31 56.2303 294.55 40.0903 295.74C44.2703 284.72 40.0103 272.43 40.6503 260.66" fill="#EE3E23"/>
<path d="M257.07 257.86C271.03 258.67 284.98 259.48 298.94 260.29C302.62 260.5 306.3 260.72 309.98 260.93C325.36 261.82 340.81 262.71 356.16 261.39C360.24 261.04 364.31 260.53 368.39 260.21C368.46 263.96 368.23 267.71 367.71 271.42C367.66 271.78 367.59 272.16 367.33 272.42C366.99 272.75 366.46 272.73 365.98 272.7C349.22 271.41 332.36 271.46 315.61 272.84C315.59 274.33 317.38 275.03 318.79 275.51C321.28 276.36 323.57 277.75 325.48 279.56C326.47 280.5 327.39 281.58 328.64 282.11C329.67 282.55 330.81 282.57 331.93 282.58C343.64 282.74 355.34 282.91 367.05 283.07C367.3 286.71 366.97 290.4 366.07 293.94C354.89 293.47 343.68 293.58 332.51 294.28C332.07 294.31 331.61 294.33 331.21 294.17C330.66 293.95 330.31 293.42 329.99 292.92C325.07 285.34 318.92 277.95 310.43 274.87C304.09 272.57 297.08 272.93 290.6 271.05C287.14 270.05 283.9 268.43 280.49 267.27C273.49 264.88 265.93 264.43 258.98 261.89C257.49 261.34 255.73 259.86 256.59 258.53" fill="#EE3E23"/>
<path d="M106.12 237.05C106.86 241.41 107.4 245.8 107.73 250.21C128.52 246.71 149.82 249.03 170.86 247.81C171.58 244.1 171.94 240.33 171.95 236.55C152.23 235.49 132.48 234.98 112.72 235.01C110.24 235.01 107.72 235.03 105.34 235.73" fill="#EE3E23"/>
<path d="M278.509 233.28C284.989 232.82 291.499 232.71 297.989 232.94C298.479 236.15 298.969 239.36 299.449 242.58C299.479 242.8 299.499 243.07 299.329 243.21C299.209 243.31 299.039 243.31 298.879 243.31C292.959 243.12 287.179 241.48 281.629 239.42C280.369 238.95 279.059 238.42 278.209 237.39C277.359 236.36 277.159 234.65 278.139 233.74" fill="#EE3E23"/>
<path d="M275.6 240.89C276.27 241.27 276.92 241.7 277.56 242.13C279.38 243.35 281.21 244.57 283.03 245.79C279.17 246.26 275.29 246.56 271.4 246.7C272.07 244.43 273.28 242.32 274.9 240.59" fill="#EE3E23"/>
<path d="M165.151 163.9C163.711 160.8 160.451 158.64 157.031 158.53C153.621 158.42 150.221 160.37 148.591 163.37C147.121 166.08 147.091 169.39 147.851 172.38C148.611 175.37 150.111 178.11 151.591 180.82C153.771 184.81 155.951 188.81 158.131 192.8C159.221 194.8 160.441 196.93 162.501 197.92C165.751 199.49 170.191 196.87 170.401 193.27" stroke="black" stroke-miterlimit="10"/>
<path d="M170.219 196.68C174.579 216.26 173.189 240.64 169.109 260.22" stroke="black" stroke-miterlimit="10"/>
<path d="M183.9 159.27C197.17 153.08 211.38 148.92 225.89 146.99" stroke="black" stroke-miterlimit="10"/>
<path d="M233.02 139.56C239.38 138.71 245.85 138.62 252.23 139.32" stroke="black" stroke-miterlimit="10"/>
<path d="M269.27 142.56C272.43 142.84 275.6 143.12 278.76 143.4" stroke="black" stroke-miterlimit="10"/>
<path d="M243.321 162.95C245.083 162.95 246.511 161.173 246.511 158.98C246.511 156.787 245.083 155.01 243.321 155.01C241.559 155.01 240.131 156.787 240.131 158.98C240.131 161.173 241.559 162.95 243.321 162.95Z" fill="black"/>
<path d="M271.69 163.71C273.026 163.71 274.11 161.933 274.11 159.74C274.11 157.547 273.026 155.77 271.69 155.77C270.353 155.77 269.27 157.547 269.27 159.74C269.27 161.933 270.353 163.71 271.69 163.71Z" fill="black"/>
<path d="M255.061 182.88C253.951 184.11 252.811 185.38 252.271 186.95C251.731 188.52 251.921 190.46 253.181 191.54C254.271 192.47 255.881 192.55 257.261 192.15C258.641 191.75 259.861 190.96 261.131 190.29C261.861 189.91 262.651 189.55 263.471 189.56C264.291 189.57 265.171 190.01 265.441 190.79C265.711 191.57 265.071 192.59 264.251 192.5C266.591 193.05 269.051 193.28 271.391 192.72C273.731 192.16 275.931 190.72 277.021 188.58C278.731 185.24 277.411 181.11 275.311 178.01C273.211 174.91 270.361 172.32 268.581 169.01" stroke="black" stroke-miterlimit="10"/>
<path d="M255.46 257.72C258.68 261.46 258.17 267.48 255.43 271.6C252.69 275.72 248.24 278.3 243.77 280.31C225.28 288.64 203.68 289.52 184.6 282.73C179.64 280.97 174.68 278.57 171.32 274.45C167.96 270.33 166.61 264.11 169.31 259.51C151.65 268.65 117.41 285.33 99.7495 294.47C91.9695 298.5 84.0895 302.59 77.6095 308.56C71.1295 314.53 66.1195 322.69 65.7695 331.59" stroke="black" stroke-miterlimit="10"/>
<path d="M255.01 260.35C271.26 264.68 287.52 269.01 303.77 273.34C309.52 274.87 315.39 276.46 320.32 279.78C325.74 283.43 329.67 288.97 332.4 294.9C335.13 300.83 336.75 307.21 338.36 313.54" stroke="black" stroke-miterlimit="10"/>
<path d="M88.8193 149.06C88.0593 146.45 85.4593 144.86 82.9593 143.8C75.1493 140.5 66.0793 139.89 59.2893 134.81C49.1293 127.22 47.9893 110.94 55.5293 100.75C63.0693 90.56 77.2593 86.6 89.6493 89.32C92.5793 89.96 95.5493 90.99 97.7193 93.07C102.299 97.45 101.929 104.69 101.969 111.03C102.019 119.01 103.489 127.45 108.759 133.43C109.819 134.64 111.049 135.77 111.639 137.26C113.369 141.71 108.589 145.97 104.119 147.67C99.6593 149.36 94.2593 150.69 92.3593 155.07C99.7893 153.21 106.899 150.04 113.249 145.75C111.209 152.47 105.309 157.87 98.4293 159.31C103.689 160.93 109.689 159.93 114.139 156.69" stroke="black" stroke-miterlimit="10"/>
<path d="M97.1608 140.47C90.3208 132.06 80.0408 127.33 70.0508 123.12C74.2008 123.34 78.3508 123.57 82.5008 123.79C82.8408 123.81 83.1908 123.82 83.5008 123.69C83.9708 123.49 84.2408 122.99 84.4708 122.53C85.7408 119.88 86.7108 116.95 88.8908 114.98C90.4208 119.98 91.9508 124.97 93.4708 129.97" stroke="black" stroke-miterlimit="10"/>
<path d="M28.3398 110.98C30.4598 111.37 32.5698 111.76 34.6898 112.14" stroke="black" stroke-miterlimit="10"/>
<path d="M46.6895 79.84C47.6795 81.54 48.8795 83.12 50.2395 84.54" stroke="black" stroke-miterlimit="10"/>
<path d="M82.8691 68.4C83.1991 70.28 83.2891 72.2 83.1291 74.1" stroke="black" stroke-miterlimit="10"/>
<path d="M118.1 88.17C116.82 89.44 115.38 90.55 113.83 91.47" stroke="black" stroke-miterlimit="10"/>
<path d="M51.1602 149.61C52.6702 149.61 54.1802 149.36 55.6202 148.89" stroke="black" stroke-miterlimit="10"/>
<path d="M120.83 116.91L123.98 116.5" stroke="black" stroke-miterlimit="10"/>
<path d="M109.439 165.88C110.579 166.49 111.729 167.1 112.869 167.7C113.349 167.95 113.849 168.21 114.389 168.19C115.879 168.12 116.389 166.18 116.469 164.69" stroke="black" stroke-miterlimit="10"/>
<path d="M228.369 144.39C235.929 143.92 243.529 143.96 251.089 144.53C253.099 144.68 255.209 144.9 256.859 146.07C259.969 148.28 260.129 152.81 259.559 156.58C258.879 161.03 257.609 165.38 255.799 169.5C255.349 170.51 254.849 171.55 253.969 172.23C252.999 172.98 251.719 173.18 250.499 173.33C246.919 173.75 243.319 173.9 239.719 173.78C237.659 173.71 235.519 173.53 233.719 172.51C230.349 170.6 229.159 166.42 228.259 162.65C227.099 157.78 225.949 152.92 224.789 148.05" stroke="black" stroke-miterlimit="10"/>
<path d="M264.391 147.12C268.891 147.12 273.391 147.6 277.791 148.56C278.291 148.67 278.801 148.79 279.221 149.07C279.721 149.41 280.061 149.95 280.301 150.51C281.451 153.17 280.801 156.25 279.931 159.02C278.741 162.8 277.181 166.47 275.271 169.94" stroke="black" stroke-miterlimit="10"/>
<path d="M182.281 113.09C179.201 114.69 176.661 117.32 175.171 120.45C174.891 121.03 174.641 121.65 174.611 122.3C174.511 124.03 175.881 125.44 176.971 126.79C181.851 132.82 182.131 142.13 177.611 148.44" stroke="black" stroke-miterlimit="10"/>
<path d="M166.109 102.5C170.339 96.19 178.299 93.77 185.629 91.78C195.949 88.98 206.359 86.16 217.029 85.44C223.799 84.98 230.599 85.37 237.329 86.27C241.689 86.85 246.149 87.69 249.859 90.05C255.489 93.63 258.519 100.06 261.249 106.15" stroke="black" stroke-miterlimit="10"/>
<path d="M188.68 108.23C198.07 102.83 208.06 98.46 218.4 95.22C220.7 94.5 223.09 93.83 225.5 94.06C231.24 94.6 235.81 100.11 241.58 99.95" stroke="black" stroke-miterlimit="10"/>
<path d="M38.9805 196.41C44.4405 196.11 49.9005 195.82 55.3605 195.52C79.4505 194.21 103.56 192.9 127.67 193.43C135.35 193.6 143.03 193.95 150.7 193.48" stroke="black" stroke-miterlimit="10"/>
<path d="M39.2891 228.45C82.9691 226.76 126.699 226.26 170.399 226.94" stroke="black" stroke-miterlimit="10"/>
<path d="M342.391 223.01C352.151 222.97 361.901 222.94 371.661 222.9" stroke="black" stroke-miterlimit="10"/>
<path d="M281.42 223.24C300.17 223.17 318.92 223.1 337.67 223.03" stroke="black" stroke-miterlimit="10"/>
<path d="M41.0098 260.25C82.3198 259.2 123.64 258.69 164.96 258.7" stroke="black" stroke-miterlimit="10"/>
<path d="M260.311 258.08C272.581 257.78 284.851 257.48 297.121 257.17C300.111 257.1 303.111 257.02 306.091 257.3C309.201 257.59 312.251 258.26 315.331 258.77C333.321 261.71 351.751 258.83 369.941 259.97" stroke="black" stroke-miterlimit="10"/>
<path d="M39.9902 296.11C57.9302 295.86 75.8602 295.62 93.8002 295.37" stroke="black" stroke-miterlimit="10"/>
<path d="M331.85 295.24C344.59 293.66 357.48 293.22 370.3 293.93" stroke="black" stroke-miterlimit="10"/>
<path d="M41.0098 165.02C50.3198 165.23 59.6298 165.44 68.9298 165.64" stroke="black" stroke-miterlimit="10"/>
<path d="M39.6591 208.83C39.6491 211.17 39.6291 213.52 39.6191 215.86C39.6191 216.48 39.6191 217.15 39.9791 217.67C40.5891 218.55 41.8491 218.56 42.9191 218.48C62.6991 217.01 82.4691 215.54 102.249 214.07C102.259 210.92 102.269 207.77 102.279 204.63C81.6691 206.62 61.0091 208.02 40.3191 208.85" stroke="black" stroke-miterlimit="10"/>
<path d="M163.939 247.61C144.549 248.88 125.129 249.47 105.699 249.39C105.779 245.07 105.849 240.75 105.929 236.43C127.129 235.27 146.799 235.04 168.019 235.78" stroke="black" stroke-miterlimit="10"/>
<path d="M286.851 245.91C281.921 245.96 276.981 246.14 272.061 246.46" stroke="black" stroke-miterlimit="10"/>
<path d="M281.08 233.09C286.98 232.92 292.88 232.74 298.78 232.57C299.3 236.5 299.83 240.43 300.35 244.36" stroke="black" stroke-miterlimit="10"/>
<path d="M317.18 272.61C333.98 273.14 350.79 273.08 367.59 272.42C367.26 275.83 366.94 279.24 366.61 282.66C354.56 282.71 342.5 282.76 330.45 282.81" stroke="black" stroke-miterlimit="10"/>
<path d="M249.961 100.97C251.471 101.58 252.921 102.35 254.281 103.25C260.281 107.2 264.451 113.47 267.101 120.15C269.751 126.82 271.021 133.95 272.271 141.02" stroke="black" stroke-miterlimit="10"/>
<path d="M266.801 194.67C270.681 195.08 274.391 196.87 277.131 199.64" stroke="black" stroke-miterlimit="10"/>
<path d="M276.471 236.4C278.561 231.73 280.261 226.91 280.841 221.85C281.131 219.35 281.151 216.75 282.151 214.44C283.141 212.13 285.471 210.13 287.961 210.5C285.521 207.08 282.481 204.09 279.021 201.69" stroke="black" stroke-miterlimit="10"/>
<path d="M175.83 203.56C176.52 205.41 176.05 207.36 175.62 209.29C174.83 212.86 174.17 215.25 173.93 218.82C176.09 217.28 176.6 216.8 179.12 215.96C178.94 220 179.94 224.09 181.98 227.58L183.95 226.39C199.58 240.8 221.03 247.29 237.57 260.64C239.5 260.4 240.35 257.98 242.1 257.14C242.96 256.73 243.95 256.73 244.9 256.75C248.64 256.81 252.38 256.86 256.12 256.92C255.76 256.1 255.39 255.29 255.03 254.47C260.72 254.17 266.37 253.27 271.87 251.77C270.51 248.8 272.05 245.38 273.53 242.46C273.97 241.6 274.4 240.73 274.83 239.85" stroke="black" stroke-miterlimit="10"/>
<path d="M171.82 172.23C173.37 176.92 176.4 181.12 180.37 184.05C179.53 184.34 178.68 184.62 177.84 184.91C180.13 190.77 184.48 195.66 189.56 199.38C194.64 203.09 200.44 205.7 206.32 207.93C206.11 208.68 205.9 209.42 205.69 210.17C211.13 212.67 217.46 213.82 223.12 211.89C229.19 209.82 233.57 204.62 237.62 199.65C236.13 199.85 234.64 200.04 233.15 200.24C238.71 196.53 245.41 194.55 252.09 194.63" stroke="black" stroke-miterlimit="10"/>
<path d="M302.48 76.39C299.14 76.12 295.97 78.47 294.52 81.49C293.07 84.51 293.09 88.05 293.74 91.34C294.41 94.7 295.69 97.89 297.1 101.01C300.38 108.28 304.39 115.3 306.46 123.01C309.6 134.76 308.01 147.18 306.67 159.27C306.53 160.55 306.4 161.88 306.81 163.09C307.38 164.74 308.86 165.89 310.29 166.89C313.67 169.23 317.25 171.3 320.97 173.04C324.29 174.6 328.31 176.78 328.17 180.44C328.12 181.7 327.57 183.11 328.31 184.13C328.76 184.75 329.55 185 330.28 185.21C333.44 186.1 337.45 186.58 339.44 183.97C341.06 181.85 340.5 178.54 342.32 176.59C343.04 175.82 344.03 175.38 344.97 174.89C349.87 172.34 353.83 168.02 355.95 162.91C359.86 153.46 357.34 142.76 356.35 132.58C355.36 122.38 356 112.02 358.23 102.02C359.16 97.84 360.38 93.7 360.74 89.43C360.94 87.06 360.86 84.61 359.93 82.43C359.12 80.53 357.71 78.94 356.06 77.7C351.13 74.02 344.57 73.6 338.43 73.33C326.91 72.82 315.14 72.34 304.07 75.59" stroke="black" stroke-miterlimit="10"/>
<path d="M328.811 185.82C328.601 186.22 328.591 186.69 328.611 187.14C328.611 187.17 328.611 187.2 328.631 187.23C328.651 187.26 328.681 187.28 328.711 187.29C329.341 187.57 330.041 187.69 330.721 187.64C330.761 187.64 330.791 187.64 330.821 187.61C330.861 187.59 330.881 187.54 330.891 187.5C330.981 187.25 331.021 186.98 330.981 186.71" stroke="black" stroke-miterlimit="10"/>
<path d="M332.66 186.95C331.82 189.19 331.75 191.71 332.47 193.99C332.81 195.06 333.32 196.08 333.71 197.13C334.09 198.16 334.37 199.23 334.52 200.32C334.67 201.35 334.71 202.43 334.4 203.43C334.09 204.43 333.39 205.35 332.41 205.71C331.59 206.01 330.63 205.88 329.91 205.4C329.19 204.92 328.71 204.09 328.62 203.22C328.56 202.58 328.76 201.85 329.33 201.56C329.59 201.43 329.88 201.4 330.17 201.41C331.85 201.46 333.42 202.77 333.76 204.42" stroke="black" stroke-miterlimit="10"/>
<path d="M334.59 187.49C333.61 188.5 333.45 190.08 333.76 191.45C334.07 192.82 334.76 194.07 335.32 195.36C336.22 197.47 336.75 199.74 336.88 202.03C336.94 203.08 336.9 204.18 336.42 205.12C335.97 206 335.18 206.66 334.36 207.21C333.31 207.91 332.13 208.47 330.88 208.59C329.63 208.71 328.27 208.33 327.44 207.38C326.77 206.62 326.49 205.61 326.31 204.62C326.14 203.74 326.03 202.85 325.98 201.96C325.95 201.47 325.94 200.96 326.12 200.5C326.59 199.29 328.13 198.9 329.42 199.02C331.19 199.19 332.88 200.02 334.09 201.32" stroke="black" stroke-miterlimit="10"/>
<path d="M337.631 203.24C339.701 207.48 341.471 211.95 342.051 216.63C342.631 221.32 341.941 226.28 339.401 230.27C337.801 232.79 335.551 234.81 333.301 236.77C330.611 239.12 327.861 241.46 324.691 243.09C320.971 245 316.811 245.88 312.651 246.35C307.241 246.96 301.781 246.89 296.341 246.74C293.301 246.66 290.241 246.55 287.271 245.9C280.371 244.4 274.311 240.01 269.941 234.47C265.571 228.92 262.791 222.27 260.961 215.45" stroke="black" stroke-miterlimit="10"/>
<path d="M263.99 215.16C263.66 218.51 266.18 221.37 267.84 224.3C268.91 226.19 269.66 228.26 270.72 230.16C273.52 235.19 278.4 238.82 283.72 241.01C289.04 243.2 294.81 244.04 300.55 244.5C304.35 244.81 308.22 244.95 311.96 244.16C313.78 243.77 315.54 243.17 317.27 242.48C324.59 239.57 331.5 234.95 335.59 228.22C339.68 221.49 340.45 212.42 336.15 205.82" stroke="black" stroke-miterlimit="10"/>
<path d="M252.471 212.36C252.531 214.57 254.471 216.4 256.601 216.98C257.091 217.12 257.611 217.2 258.121 217.13C259.511 216.95 260.501 215.73 261.331 214.6C262.261 215 263.211 215.41 264.221 215.56C265.231 215.71 266.311 215.59 267.151 215C267.991 214.41 268.481 213.3 268.151 212.33C267.751 211.14 266.401 210.62 265.341 209.94" stroke="black" stroke-miterlimit="10"/>
<path d="M161.029 106.32C158.129 107.69 155.349 109.28 152.709 111.1C153.819 111.5 154.939 111.91 156.049 112.31C151.879 117.29 148.969 123.31 147.659 129.67C147.299 131.4 147.059 133.17 147.129 134.93C147.189 136.54 147.519 138.13 147.839 139.71C148.349 142.23 148.869 144.75 149.379 147.27C149.609 148.38 149.829 149.49 149.799 150.62C149.759 152.29 149.169 153.89 148.589 155.46C150.269 156.11 151.899 156.87 153.479 157.72" stroke="black" stroke-miterlimit="10"/>
<path d="M354.7 102.04C343.68 98.61 331.97 98.25 320.43 98.19C317.38 98.17 314.3 98.18 311.3 98.71C309.06 99.11 306.87 99.8 304.81 100.76C303.6 101.32 302.41 102.01 301.59 103.06C300.77 104.11 300.42 105.61 301.02 106.8C301.85 108.45 303.98 108.84 305.81 109.03C320.63 110.58 335.9 111.82 350.19 107.62C352.18 107.04 354.23 106.29 355.6 104.74" stroke="black" stroke-miterlimit="10"/>
<path d="M318.01 118.3C316.99 118.19 315.95 118.32 314.99 118.68C314.56 118.84 314.13 119.06 313.82 119.41C313.3 120.01 313.23 120.86 313.21 121.65C313.18 122.65 313.19 123.66 313.24 124.66C313.27 125.29 313.33 125.94 313.66 126.48C314.1 127.18 314.93 127.53 315.71 127.8C316.63 128.12 317.67 128.4 318.53 127.94" stroke="black" stroke-miterlimit="10"/>
<path d="M320.83 117.95C320.21 118.17 319.77 118.75 319.55 119.37C319.33 119.99 319.31 120.66 319.29 121.32C319.26 122.29 319.23 123.26 319.2 124.23C319.19 124.6 319.18 124.97 319.27 125.33C319.51 126.29 320.5 126.95 321.49 126.96C322.48 126.97 323.41 126.41 324.02 125.63C324.63 124.85 324.93 123.87 325.06 122.9C325.17 122.06 325.16 121.19 324.91 120.37C324.66 119.55 324.15 118.81 323.42 118.37C322.52 117.82 321.4 117.81 320.35 117.82" stroke="black" stroke-miterlimit="10"/>
<path d="M326.789 117.81C326.839 121.31 326.889 124.82 326.939 128.32" stroke="black" stroke-miterlimit="10"/>
<path d="M332.52 117.82C332.83 121.24 332.94 124.67 332.85 128.1" stroke="black" stroke-miterlimit="10"/>
<path d="M338.551 117.89C338.691 121.07 338.831 124.25 338.971 127.43C338.971 127.54 338.991 127.66 339.071 127.72C339.141 127.77 339.221 127.77 339.301 127.76C340.701 127.69 342.101 127.62 343.511 127.55" stroke="black" stroke-miterlimit="10"/>
<path d="M326.15 118.47L330.04 118.58" stroke="black" stroke-miterlimit="10"/>
<path d="M327.061 124.01C328.051 123.88 329.041 123.85 330.041 123.92" stroke="black" stroke-miterlimit="10"/>
<path d="M332.25 118.74C333.65 118.73 335.05 118.79 336.44 118.93" stroke="black" stroke-miterlimit="10"/>
<path d="M333.24 123.7L336.44 123.53" stroke="black" stroke-miterlimit="10"/>
<path d="M338.189 118.85L344.129 118.63" stroke="black" stroke-miterlimit="10"/>
<path d="M338.721 123.09C340.391 122.9 342.071 122.82 343.741 122.83" stroke="black" stroke-miterlimit="10"/>
<path d="M345.489 117.88C345.209 121.35 345.029 124.84 344.949 128.32C346.709 128.19 348.459 128.06 350.219 127.93" stroke="black" stroke-miterlimit="10"/>
<path d="M345.57 118.28L350.06 118.36" stroke="black" stroke-miterlimit="10"/>
<path d="M345.35 122.57C347.13 122.62 348.91 122.61 350.68 122.52" stroke="black" stroke-miterlimit="10"/>
<path d="M331.41 134.23C328.73 135.92 325.99 137.67 324.13 140.23C323 141.78 322.24 143.57 321.49 145.33C321.12 146.2 320.75 147.12 320.86 148.05C321 149.26 321.91 150.22 322.77 151.08C323.27 151.58 323.78 152.09 324.43 152.36C324.97 152.59 325.56 152.64 326.14 152.67C327.55 152.75 328.99 152.74 330.35 152.36C332.08 151.87 333.57 150.8 334.96 149.66C337.65 147.45 340.12 144.79 341.31 141.52C341.79 140.22 342.05 138.81 341.82 137.45C341.59 136.09 340.8 134.78 339.57 134.14C338.84 133.76 338 133.63 337.18 133.51C335.33 133.24 333.27 133.01 331.72 134.06" stroke="black" stroke-miterlimit="10"/>
<path d="M323.84 148.96C324.01 147.88 324.3 146.81 324.72 145.8C324.79 145.62 324.88 145.43 325.04 145.32C325.23 145.18 325.48 145.18 325.71 145.18C326.42 145.18 327.13 145.19 327.84 145.2C328.01 145.2 328.19 145.2 328.34 145.11C328.48 145.03 328.56 144.88 328.64 144.75C329.4 143.42 330.17 142.08 330.93 140.75C331.44 140.98 331.97 141.16 332.51 141.31C332.66 141.35 332.82 141.39 332.96 141.34C333.15 141.27 333.27 141.08 333.36 140.9C333.88 139.9 334.4 138.91 334.92 137.91C335.06 137.65 335.2 137.37 335.43 137.18C335.63 137.01 335.88 136.92 336.13 136.83C336.86 136.56 337.6 136.29 338.33 136.02" stroke="black" stroke-miterlimit="10"/>
<path d="M57.7392 106.28C57.4992 106.31 57.3292 106.53 57.1992 106.73C56.4192 107.9 55.5992 109.18 55.6792 110.58C55.6892 110.78 55.7292 110.99 55.8592 111.14C55.9892 111.29 56.1892 111.35 56.3792 111.37C56.9692 111.44 57.5392 111.18 58.0392 110.86C59.2392 110.08 60.1392 108.85 60.5392 107.48C60.6592 107.05 60.7192 106.54 60.4292 106.2C60.2892 106.04 60.0892 105.95 59.8892 105.88C59.2492 105.67 58.5292 105.71 57.9192 105.99" fill="#EE3E23"/>
</svg>
