<svg width="180" height="12" viewBox="0 0 180 12" fill="none" xmlns="http://www.w3.org/2000/svg">
<path d="M0.666667 6C0.666667 8.94552 3.05448 11.3333 6 11.3333C8.94552 11.3333 11.3333 8.94552 11.3333 6C11.3333 3.05448 8.94552 0.666667 6 0.666667C3.05448 0.666667 0.666667 3.05448 0.666667 6ZM168.667 6C168.667 8.94552 171.054 11.3333 174 11.3333C176.946 11.3333 179.333 8.94552 179.333 6C179.333 3.05448 176.946 0.666667 174 0.666667C171.054 0.666667 168.667 3.05448 168.667 6ZM6 7H174V5H6V7Z" fill="#FF3600"/>
</svg>
