<svg width="1025" height="160" viewBox="0 0 1025 160" fill="none" xmlns="http://www.w3.org/2000/svg">
<path d="M0.5 0.5H1017C1021.14 0.5 1024.5 3.85786 1024.5 8V159.5H0.5V0.5Z" fill="white"/>
<path d="M255.833 50C257.601 50 259.297 50.7024 260.547 51.9526C261.798 53.2029 262.5 54.8986 262.5 56.6667V103.333C262.5 105.101 261.798 106.797 260.547 108.047C259.297 109.298 257.601 110 255.833 110H209.167C207.399 110 205.703 109.298 204.453 108.047C203.202 106.797 202.5 105.101 202.5 103.333V56.6667C202.5 54.8986 203.202 53.2029 204.453 51.9526C205.703 50.7024 207.399 50 209.167 50H255.833ZM254.167 101.667V84C254.167 81.118 253.022 78.354 250.984 76.3161C248.946 74.2782 246.182 73.1333 243.3 73.1333C240.467 73.1333 237.167 74.8667 235.567 77.4667V73.7667H226.267V101.667H235.567V85.2333C235.567 82.6667 237.633 80.5667 240.2 80.5667C241.438 80.5667 242.625 81.0583 243.5 81.9335C244.375 82.8087 244.867 83.9957 244.867 85.2333V101.667H254.167ZM215.433 68.5333C216.919 68.5333 218.343 67.9433 219.393 66.8931C220.443 65.8429 221.033 64.4185 221.033 62.9333C221.033 59.8333 218.533 57.3 215.433 57.3C213.939 57.3 212.506 57.8935 211.45 58.95C210.394 60.0064 209.8 61.4393 209.8 62.9333C209.8 66.0333 212.333 68.5333 215.433 68.5333ZM220.067 101.667V73.7667H210.833V101.667H220.067Z" fill="#1A1A1A"/>
<path d="M497.311 57.833C499.441 57.833 501.411 57.9997 503.211 58.493C505.014 58.823 506.491 59.483 507.801 60.3063C509.114 61.133 510.097 62.2863 510.751 63.7697C511.407 65.253 511.737 67.0697 511.737 69.0463C511.737 71.3563 511.244 73.333 510.097 74.8163C509.114 76.303 507.474 77.6197 505.507 78.6097C508.294 79.4363 510.424 80.9197 511.737 82.8997C513.047 84.8763 513.867 87.3497 513.867 90.153C513.867 92.463 513.374 94.4397 512.554 96.0897C511.737 97.7397 510.424 99.223 508.947 100.213C507.343 101.274 505.57 102.054 503.704 102.52C501.737 103.016 499.771 103.346 497.804 103.346H475.834V57.833H497.311ZM495.997 76.2997C497.801 76.2997 499.277 75.8063 500.424 74.983C501.571 74.1597 502.064 72.673 502.064 70.8597C502.064 69.8697 501.897 68.883 501.571 68.223C501.244 67.563 500.751 67.0663 500.097 66.573C499.441 66.243 498.784 65.913 497.964 65.7497C497.144 65.583 496.327 65.583 495.341 65.583H485.834V76.303H496.001L495.997 76.2997ZM496.491 95.7597C497.474 95.7597 498.457 95.593 499.277 95.4297C500.097 95.263 500.917 94.9363 501.571 94.4397C502.239 93.9571 502.797 93.3393 503.211 92.6263C503.537 91.803 503.867 90.813 503.867 89.6597C503.867 87.3497 503.211 85.6997 501.901 84.5463C500.587 83.5563 498.784 83.063 496.654 83.063H485.834V95.763L496.491 95.7597ZM528.131 95.593C529.441 96.913 531.407 97.573 534.031 97.573C535.834 97.573 537.474 97.0797 538.784 96.2563C540.097 95.2663 540.917 94.2763 541.244 93.2897H549.277C547.964 97.243 545.997 100.046 543.377 101.863C540.751 103.51 537.637 104.5 533.867 104.5C531.455 104.507 529.063 104.059 526.817 103.18C524.796 102.422 522.994 101.176 521.571 99.553C520.048 98.0349 518.923 96.1655 518.294 94.1097C517.474 91.9663 517.144 89.6597 517.144 87.0197C517.144 84.5463 517.474 82.2397 518.294 80.093C519.084 78.0276 520.251 76.1274 521.737 74.4897C523.234 72.9525 525.015 71.7198 526.981 70.8597C529.17 69.9799 531.508 69.5317 533.867 69.5397C536.654 69.5397 539.114 70.0363 541.244 71.1897C543.377 72.343 545.014 73.663 546.324 75.643C547.637 77.4563 548.624 79.5997 549.277 81.9097C549.604 84.2163 549.767 86.5263 549.604 89.163H525.834C525.834 91.803 526.817 94.2763 528.131 95.5963V95.593ZM538.457 78.2797C537.311 77.1263 535.507 76.4663 533.374 76.4663C531.901 76.4663 530.751 76.7997 529.767 77.293C528.784 77.7863 528.131 78.4463 527.474 79.1063C526.87 79.7436 526.469 80.5468 526.324 81.413C526.161 82.2397 525.997 82.8997 525.997 83.5563H540.751C540.424 81.083 539.604 79.4363 538.457 78.2797ZM524.031 60.9663H542.391V65.4197H524.034V60.9663H524.031Z" fill="#1A1A1A"/>
<path d="M778.499 46.667H806.499C817.166 46.667 825.833 55.3337 825.833 66.0003V94.0003C825.833 99.1278 823.796 104.045 820.17 107.671C816.544 111.297 811.627 113.334 806.499 113.334H778.499C767.833 113.334 759.166 104.667 759.166 94.0003V66.0003C759.166 60.8728 761.203 55.9553 764.829 52.3296C768.454 48.7039 773.372 46.667 778.499 46.667ZM777.833 53.3337C774.65 53.3337 771.598 54.5979 769.347 56.8484C767.097 59.0988 765.833 62.1511 765.833 65.3337V94.667C765.833 101.3 771.199 106.667 777.833 106.667H807.166C810.349 106.667 813.401 105.403 815.651 103.152C817.902 100.902 819.166 97.8496 819.166 94.667V65.3337C819.166 58.7003 813.799 53.3337 807.166 53.3337H777.833ZM809.999 58.3337C811.104 58.3337 812.164 58.7726 812.946 59.554C813.727 60.3354 814.166 61.3953 814.166 62.5003C814.166 63.6054 813.727 64.6652 812.946 65.4466C812.164 66.228 811.104 66.667 809.999 66.667C808.894 66.667 807.834 66.228 807.053 65.4466C806.272 64.6652 805.833 63.6054 805.833 62.5003C805.833 61.3953 806.272 60.3354 807.053 59.554C807.834 58.7726 808.894 58.3337 809.999 58.3337ZM792.499 63.3337C796.92 63.3337 801.159 65.0896 804.284 68.2152C807.41 71.3408 809.166 75.58 809.166 80.0003C809.166 84.4206 807.41 88.6598 804.284 91.7854C801.159 94.911 796.92 96.667 792.499 96.667C788.079 96.667 783.84 94.911 780.714 91.7854C777.589 88.6598 775.833 84.4206 775.833 80.0003C775.833 75.58 777.589 71.3408 780.714 68.2152C783.84 65.0896 788.079 63.3337 792.499 63.3337ZM792.499 70.0003C789.847 70.0003 787.304 71.0539 785.428 72.9293C783.553 74.8046 782.499 77.3482 782.499 80.0003C782.499 82.6525 783.553 85.196 785.428 87.0714C787.304 88.9468 789.847 90.0003 792.499 90.0003C795.152 90.0003 797.695 88.9468 799.57 87.0714C801.446 85.196 802.499 82.6525 802.499 80.0003C802.499 77.3482 801.446 74.8046 799.57 72.9293C797.695 71.0539 795.152 70.0003 792.499 70.0003Z" fill="#1A1A1A"/>
<path d="M0.5 0.5H1017C1021.14 0.5 1024.5 3.85786 1024.5 8V159.5H0.5V0.5Z" stroke="#1A1A1A"/>
</svg>
