<svg width="244" height="32" viewBox="0 0 244 32" fill="none" xmlns="http://www.w3.org/2000/svg">
<g clip-path="url(#clip0_353_6358)">
<path d="M3.99902 2C1.79277 2 -0.000976562 3.79375 -0.000976562 6V26C-0.000976562 28.2062 1.79277 30 3.99902 30H23.999C26.2053 30 27.999 28.2062 27.999 26V6C27.999 3.79375 26.2053 2 23.999 2H3.99902ZM22.5678 7.25L16.0803 14.6625L23.7115 24.75H17.7365L13.0615 18.6313L7.70527 24.75H4.73652L11.674 16.8188L4.35527 7.25H10.4803L14.7115 12.8438L19.599 7.25H22.5678ZM20.2053 22.975L9.58652 8.93125H7.81777L18.5553 22.975H20.199H20.2053Z" fill="black"/>
</g>
<path d="M83.9993 2.72021C76.666 2.72021 70.666 8.70688 70.666 16.0802C70.666 22.7469 75.546 28.2802 81.9193 29.2802V19.9469H78.5327V16.0802H81.9193V13.1335C81.9193 9.78688 83.906 7.94688 86.9594 7.94688C88.4127 7.94688 89.9327 8.20022 89.9327 8.20022V11.4935H88.2527C86.5993 11.4935 86.0793 12.5202 86.0793 13.5735V16.0802H89.786L89.186 19.9469H86.0793V29.2802C89.2213 28.784 92.0823 27.1809 94.1459 24.7603C96.2095 22.3397 97.3398 19.2611 97.3327 16.0802C97.3327 8.70688 91.3327 2.72021 83.9993 2.72021Z" fill="#1A1A1A"/>
<path d="M165.333 4C166.041 4 166.719 4.28095 167.219 4.78105C167.719 5.28115 168 5.95942 168 6.66667V25.3333C168 26.0406 167.719 26.7189 167.219 27.219C166.719 27.719 166.041 28 165.333 28H146.667C145.959 28 145.281 27.719 144.781 27.219C144.281 26.7189 144 26.0406 144 25.3333V6.66667C144 5.95942 144.281 5.28115 144.781 4.78105C145.281 4.28095 145.959 4 146.667 4H165.333ZM164.667 24.6667V17.6C164.667 16.4472 164.209 15.3416 163.394 14.5264C162.578 13.7113 161.473 13.2533 160.32 13.2533C159.187 13.2533 157.867 13.9467 157.227 14.9867V13.5067H153.507V24.6667H157.227V18.0933C157.227 17.0667 158.053 16.2267 159.08 16.2267C159.575 16.2267 160.05 16.4233 160.4 16.7734C160.75 17.1235 160.947 17.5983 160.947 18.0933V24.6667H164.667ZM149.173 11.4133C149.767 11.4133 150.337 11.1773 150.757 10.7573C151.177 10.3372 151.413 9.76742 151.413 9.17333C151.413 7.93333 150.413 6.92 149.173 6.92C148.576 6.92 148.003 7.1574 147.58 7.57999C147.157 8.00257 146.92 8.57571 146.92 9.17333C146.92 10.4133 147.933 11.4133 149.173 11.4133ZM151.027 24.6667V13.5067H147.333V24.6667H151.027Z" fill="#1A1A1A"/>
<path d="M236 21.4398C234.987 21.4398 234.08 21.8398 233.387 22.4665L223.88 16.9332C223.947 16.6265 224 16.3198 224 15.9998C224 15.6798 223.947 15.3732 223.88 15.0665L233.28 9.5865C234 10.2532 234.947 10.6665 236 10.6665C237.061 10.6665 238.078 10.2451 238.828 9.49493C239.579 8.74479 240 7.72737 240 6.6665C240 5.60564 239.579 4.58822 238.828 3.83808C238.078 3.08793 237.061 2.6665 236 2.6665C234.939 2.6665 233.922 3.08793 233.172 3.83808C232.421 4.58822 232 5.60564 232 6.6665C232 6.9865 232.053 7.29317 232.12 7.59984L222.72 13.0798C222 12.4132 221.053 11.9998 220 11.9998C218.939 11.9998 217.922 12.4213 217.172 13.1714C216.421 13.9216 216 14.939 216 15.9998C216 17.0607 216.421 18.0781 217.172 18.8283C217.922 19.5784 218.939 19.9998 220 19.9998C221.053 19.9998 222 19.5865 222.72 18.9198L232.213 24.4532C232.147 24.7332 232.107 25.0265 232.107 25.3332C232.107 27.4798 233.853 29.2132 236 29.2132C238.147 29.2132 239.893 27.4798 239.893 25.3332C239.893 24.3006 239.483 23.3103 238.753 22.5802C238.023 21.85 237.033 21.4398 236 21.4398Z" fill="#1A1A1A"/>
<defs>
<clipPath id="clip0_353_6358">
<rect width="28" height="32" fill="white"/>
</clipPath>
</defs>
</svg>
