<svg width="400" height="400" viewBox="0 0 400 400" fill="none" xmlns="http://www.w3.org/2000/svg">
<path d="M136.76 175.38C145.81 171.64 155.9 170.45 165.57 171.99" stroke="black" stroke-miterlimit="10"/>
<path d="M196.27 172.3C201.28 171.32 206.32 170.33 211.42 170.29C216.52 170.25 221.75 171.22 226.09 173.9" stroke="black" stroke-miterlimit="10"/>
<path d="M123.83 189.68C123.41 187.78 122.93 185.78 121.55 184.41C120.17 183.04 117.58 182.71 116.41 184.26C115.36 185.65 115.96 187.62 116.52 189.26C119.31 197.39 120.26 206.14 119.3 214.67C118.98 217.51 118.45 220.43 119.17 223.2C119.89 225.97 122.3 228.56 125.16 228.36" stroke="black" stroke-miterlimit="10"/>
<path d="M126.771 213.22C126.241 226.22 125.811 239.73 130.961 251.67C134.931 260.87 141.911 268.38 147.631 276.61C151.261 281.84 154.491 287.49 159.311 291.65C165.281 296.8 173.511 299.23 181.321 298.15" stroke="black" stroke-miterlimit="10"/>
<path d="M184.801 297.54C189.951 297.34 195.121 297.14 200.171 296.09C205.221 295.04 210.171 293.1 214.101 289.77C219.251 285.41 222.231 279.09 225.631 273.27C230.951 264.16 237.701 255.7 240.871 245.64C243.991 235.71 243.351 225.04 242.681 214.65" stroke="black" stroke-miterlimit="10"/>
<path d="M173.971 228.33C172.711 227.71 171.451 227.09 170.191 226.48C169.811 226.3 169.411 226.08 169.251 225.69C169.041 225.18 169.381 224.57 169.881 224.33C170.381 224.09 170.971 224.16 171.491 224.33C173.091 224.85 174.231 226.23 175.581 227.24C178.541 229.44 182.781 229.73 186.021 227.97C187.441 227.19 188.651 226.08 190.001 225.18C191.351 224.28 192.951 223.58 194.551 223.82C194.931 223.88 195.361 224.03 195.471 224.4C195.631 224.92 195.051 225.35 194.551 225.58C193.041 226.27 191.461 226.8 189.841 227.18" stroke="black" stroke-miterlimit="10"/>
<path d="M167.302 215.98C166.762 217.38 166.062 218.72 165.562 220.13C165.062 221.54 164.782 223.09 165.112 224.55C165.482 226.2 166.662 227.65 168.212 228.35" stroke="black" stroke-miterlimit="10"/>
<path d="M199.321 216.16C200.891 218.54 200.821 221.9 199.141 224.22" stroke="black" stroke-miterlimit="10"/>
<path d="M125.529 208.13C127.549 188.23 116.019 168.34 120.139 148.77C122.019 139.84 127.119 131.77 133.699 125.46C140.279 119.15 148.319 114.49 156.719 110.91C166.929 106.56 177.939 103.7 189.029 104.02C203.399 104.44 217.209 110.17 229.219 118.08C234.219 121.37 239.049 125.13 242.499 130.04C249.849 140.51 249.799 154.36 248.629 167.1C247.279 181.79 244.219 193.89 243.229 212.33" stroke="black" stroke-miterlimit="10"/>
<path d="M155.801 194.15C158.098 194.15 159.961 192.287 159.961 189.99C159.961 187.692 158.098 185.83 155.801 185.83C153.503 185.83 151.641 187.692 151.641 189.99C151.641 192.287 153.503 194.15 155.801 194.15Z" fill="black"/>
<path d="M207.29 190.85C209.433 190.85 211.17 188.988 211.17 186.69C211.17 184.393 209.433 182.53 207.29 182.53C205.147 182.53 203.41 184.393 203.41 186.69C203.41 188.988 205.147 190.85 207.29 190.85Z" fill="black"/>
<path d="M125.199 138.31C128.879 133.44 132.609 128.51 137.379 124.7C142.149 120.88 148.129 118.23 154.219 118.66C159.239 119.01 163.859 121.37 168.689 122.77C177.399 125.29 187.009 124.59 195.259 120.82C198.579 119.3 201.739 117.29 205.339 116.66C210.069 115.83 214.839 117.5 219.339 119.15C226.449 121.75 234.259 124.96 237.449 131.83" stroke="black" stroke-miterlimit="10"/>
<path d="M246.371 181.66C247.051 179.94 249.581 179.54 251.081 180.63C252.581 181.72 253.121 183.76 252.941 185.61C252.761 187.46 251.991 189.18 251.341 190.92C248.381 198.83 247.771 207.6 249.611 215.84C249.911 217.18 250.271 218.56 249.991 219.9C249.711 221.24 248.521 222.51 247.151 222.35" stroke="black" stroke-miterlimit="10"/>
<path d="M141.7 270.89C135.79 276.5 134.23 285.78 136.8 293.51C139.37 301.24 145.55 307.41 152.73 311.26C159.91 315.11 168.04 316.84 176.14 317.73C187.29 318.96 198.66 318.68 209.62 316.25C217.65 314.46 225.65 311.38 231.58 305.68C237.51 299.98 241 291.25 238.84 283.31" stroke="black" stroke-miterlimit="10"/>
<path d="M122.309 148.09C120.429 151.3 120.549 155.32 121.389 158.94C122.229 162.56 123.729 166.02 124.439 169.67C125.429 174.7 124.869 180.02 122.869 184.74" stroke="black" stroke-miterlimit="10"/>
<path d="M242.72 145.1C245.76 151.84 246.05 159.77 243.51 166.71C242.35 169.87 240.62 172.92 240.52 176.29C240.35 181.95 244.84 186.86 245.06 192.52" stroke="black" stroke-miterlimit="10"/>
<path d="M204.53 249.92C200.54 253.13 196.05 253.86 191.65 254.24C187.8 254.58 183.95 254.69 180.1 254.58C175.88 254.46 171.64 254.05 167.54 252.28C166.68 251.91 165.79 251.43 165.16 250.34C174.7 250.38 185.31 251.46 194.85 251.02C196.94 250.92 199.06 250.8 201.08 249.88" stroke="black" stroke-miterlimit="10"/>
<path d="M128.021 222.41C127.871 230.79 132.821 238.26 136.921 245.57C137.741 247.04 138.581 248.57 139.941 249.56C140.901 250.26 142.061 250.64 143.191 251C146.401 252.04 149.611 253.07 152.831 254.11" stroke="black" stroke-miterlimit="10"/>
<path d="M240.499 216.49C241.229 225.04 238.329 233.47 234.909 241.35C234.299 242.75 233.649 244.17 232.559 245.22C231.079 246.64 228.999 247.19 227.019 247.7C222.519 248.84 218.029 249.98 213.529 251.12" stroke="black" stroke-miterlimit="10"/>
<path d="M153.68 253.32C156.65 250.49 159.11 247.12 160.88 243.42C161.39 242.36 161.85 241.26 162.63 240.39C163.45 239.47 164.56 238.86 165.68 238.36C168 237.32 170.48 236.64 173.01 236.36" stroke="black" stroke-miterlimit="10"/>
<path d="M193.811 236.12C197.211 236.37 200.621 236.63 204.021 236.88C204.561 236.92 205.111 236.96 205.601 237.18C205.981 237.35 206.311 237.62 206.611 237.92C208.481 239.85 208.761 242.83 210.281 245.04C211.181 246.35 212.521 247.41 213.021 248.92" stroke="black" stroke-miterlimit="10"/>
<path d="M173.719 264.44C177.949 266.87 182.419 268.24 186.919 268.49C187.719 268.53 188.539 268.54 189.299 268.14C189.799 267.88 190.269 267.44 190.739 267.06C192.559 265.62 194.619 264.99 196.639 265.26" stroke="black" stroke-miterlimit="10"/>
<path d="M134.19 273.88C127.29 276.5 120.39 279.12 113.48 281.74C102.03 286.08 90.5102 290.46 80.0202 296.78C75.9802 299.21 72.1202 301.91 68.3202 304.7C57.8702 312.37 47.4002 321.38 43.4102 333.71" stroke="black" stroke-miterlimit="10"/>
<path d="M222.779 349.36C235.409 322.69 246.989 295.51 257.479 267.92C260.999 258.66 264.679 248.93 272.169 242.44C273.659 241.14 275.349 239.97 277.289 239.58C279.259 239.18 281.299 239.63 283.259 240.08C290.689 241.77 298.119 243.45 305.549 245.14C307.049 245.48 308.629 245.87 309.699 246.97C310.769 248.07 310.969 250.14 309.699 251.01" stroke="black" stroke-miterlimit="10"/>
<path d="M233.051 351.76C251.611 322.28 272.791 294.45 296.271 268.71C301.391 263.09 307.351 257.21 314.931 256.62C321.081 256.14 326.861 259.3 332.201 262.4C339.091 266.4 346.441 271.03 349.161 278.52" stroke="black" stroke-miterlimit="10"/>
<path d="M244.621 353.09C267.861 329.43 295.201 310.26 322.371 291.23C325.071 289.34 327.801 287.43 330.901 286.33C338.581 283.6 347.351 286.33 353.801 291.3C360.251 296.27 364.851 303.21 369.331 310.02" stroke="black" stroke-miterlimit="10"/>
<path d="M262.141 356.1C288.941 338.15 319.061 325.18 350.511 318.03" stroke="black" stroke-miterlimit="10"/>
<path d="M277.449 283.37C274.439 281.98 271.429 280.59 268.429 279.21C266.819 278.46 265.059 277.58 264.379 275.94C267.309 267.61 270.979 259.53 275.319 251.84C279.909 251.22 285.109 252.57 289.219 254.71C293.329 256.85 297.359 259.36 301.899 260.28" stroke="black" stroke-miterlimit="10"/>
<path d="M262.192 282.07C255.562 295.12 248.862 308.14 242.102 321.13" stroke="black" stroke-miterlimit="10"/>
<path d="M332.569 279.95C329.309 275.82 325.809 271.5 320.889 269.61C317.289 268.22 313.139 268.33 309.609 269.89C306.389 271.32 303.799 273.83 301.299 276.31C291.589 285.95 282.109 295.87 273.709 306.67C263.749 319.48 255.199 333.65 242.879 344.21" stroke="black" stroke-miterlimit="10"/>
<path d="M254.551 298.81C258.231 301.35 261.671 304.25 264.801 307.45" stroke="black" stroke-miterlimit="10"/>
<path d="M274.99 334.71C282.97 330.3 290.94 325.89 298.92 321.48C307.69 316.63 316.55 311.74 326.16 308.88C331.65 307.24 338.1 306.44 342.67 309.9" stroke="black" stroke-miterlimit="10"/>
<path d="M288.33 291.63C292.73 295.88 296.74 300.54 300.28 305.52" stroke="black" stroke-miterlimit="10"/>
<path d="M69.3603 79.23C66.5403 76.06 61.7703 75.74 57.5203 75.75C55.1803 75.75 52.8503 75.79 50.5103 75.85C48.6803 75.9 46.6403 76.06 45.4203 77.43C44.5603 78.39 44.3203 79.73 44.1603 81.01C43.5003 86.4 43.8203 91.91 45.1003 97.2C45.3003 98.03 45.5403 98.89 46.1103 99.53C46.5903 100.08 47.2703 100.41 47.9503 100.67C50.3603 101.57 52.9903 101.65 55.5603 101.67C58.9603 101.7 62.3503 101.66 65.7503 101.54C66.8303 101.5 68.0503 101.39 68.7103 100.53C69.2603 99.81 69.2103 98.81 69.4003 97.93C69.7603 96.25 71.0703 94.72 70.7903 93.02C70.6103 91.88 69.6303 90.91 68.4803 90.73C67.3303 90.55 66.1103 91.19 65.6003 92.23C64.9303 93.59 65.3803 95.43 64.3403 96.53C63.8203 97.08 63.0403 97.29 62.3003 97.45C59.7203 97.98 57.0503 98.09 54.4303 97.76C53.5803 97.65 52.6903 97.48 52.0403 96.93C51.2603 96.27 50.9803 95.2 50.7903 94.2C50.2103 91.24 49.9903 88.21 50.1403 85.2C50.1803 84.46 50.2503 83.69 50.6703 83.08C51.4203 81.99 52.9403 81.85 54.2603 81.81C57.0103 81.73 59.7503 81.65 62.5003 81.56C63.1503 81.54 63.8203 81.53 64.4003 81.83C66.1203 82.74 65.7603 85.78 67.5403 86.57C68.9003 87.17 70.4603 85.8 70.6503 84.33C70.8403 82.86 70.1103 81.44 69.4103 80.14" stroke="black" stroke-miterlimit="10"/>
<path d="M110.6 100.75C108.98 93.73 108.1 86.49 107.99 79.24C107.99 78.75 107.99 78.24 108.18 77.81C108.37 77.41 108.7 77.13 109.05 76.9C111.61 75.25 114.94 76.29 117.29 78.3C119.64 80.31 121.31 83.16 123.28 85.65C123.73 86.21 124.27 86.81 124.93 86.79C125.42 86.79 125.85 86.45 126.24 86.11C128.5 84.18 130.51 81.88 132.19 79.3C133.04 77.99 133.82 76.59 134.92 75.56C136.02 74.53 137.55 73.91 138.9 74.45C141.11 75.35 141.61 78.6 141.75 81.28C141.96 85.27 142.16 89.26 142.37 93.25C142.45 94.76 142.51 96.36 141.89 97.69C141.27 99.02 139.7 99.91 138.57 99.11C137.56 98.39 137.42 96.82 137.34 95.47C137.09 91.11 136.47 86.78 135.49 82.56C132.9 86.49 130.3 90.41 127.71 94.34C127.1 95.26 126.33 96.27 125.33 96.23C124.61 96.2 124.01 95.62 123.48 95.07C120.68 92.17 118.03 89.09 115.55 85.83C115.86 89.09 116.16 92.34 116.47 95.6C116.6 97.03 116.71 98.61 115.98 99.79C115.25 100.97 113.35 101.18 112.88 99.84" stroke="black" stroke-miterlimit="10"/>
<path d="M185.9 73.35L191.56 72.45C192.08 72.37 192.62 72.29 193.11 72.48C193.56 72.66 193.9 73.04 194.21 73.41C195.9 75.39 197.59 77.38 199.28 79.36C201.44 77.48 203.29 75.24 204.72 72.76C205.16 72 205.59 71.19 206.34 70.73C207.23 70.19 208.36 70.3 209.39 70.42C211.08 70.62 212.77 70.82 214.46 71.02C210.98 74.15 207.49 77.29 204.01 80.42C203.26 81.09 202.5 81.79 202.07 82.7C201.73 83.42 201.63 84.22 201.55 85C201.05 89.53 200.87 94.09 201.02 98.65C199.38 98.69 197.73 98.73 196.09 98.77C195.94 93.55 195.79 88.33 195.63 83.11C195.63 82.8 195.61 82.47 195.46 82.19C195.27 81.84 194.91 81.62 194.56 81.42C191.56 79.7 188.72 77.7 186.1 75.46" stroke="black" stroke-miterlimit="10"/>
<path d="M286.749 71.74C286.649 79.59 286.549 87.44 286.449 95.29C288.389 95.68 290.399 95.74 292.349 95.47C291.759 92.02 291.469 88.51 291.459 85.01C294.429 88.35 297.399 91.7 300.369 95.04L305.439 93.69C305.599 93.65 305.769 93.6 305.879 93.48C306.219 93.14 305.879 92.57 305.539 92.22C302.469 89.06 299.399 85.9 296.319 82.74C301.359 79.5 306.089 75.76 310.409 71.59C306.839 71.17 303.249 71.02 299.659 71.14C297.729 73.96 295.579 76.63 293.249 79.13C293.089 75.94 293.039 72.74 293.089 69.55C291.019 69.33 288.919 69.43 286.889 69.84" stroke="black" stroke-miterlimit="10"/>
<path d="M86.8909 76.09C88.5209 76.13 90.1709 76.18 91.7409 76.62C93.3109 77.06 94.8109 77.96 95.6509 79.36C96.3809 80.57 96.5509 82.04 96.6509 83.45C96.8809 86.38 96.9309 89.32 96.8109 92.26C96.7409 93.9 96.6009 95.61 95.7609 97.02C94.5509 99.06 92.0709 100.07 89.7009 100.14C87.3309 100.21 85.0109 99.5 82.7509 98.79C82.1609 98.61 81.5409 98.4 81.1809 97.9C80.8809 97.49 80.8209 96.95 80.7709 96.45C80.1909 90.63 79.6609 84.46 82.2109 79.2C82.8509 77.89 84.0809 76.48 85.4909 76.87C84.3609 81.25 84.5909 88.43 85.1709 92.92C85.2709 93.67 85.4309 94.5 86.0509 94.95C86.5609 95.33 87.2509 95.33 87.8809 95.32C88.9409 95.31 90.1009 95.25 90.8709 94.52C91.7109 93.73 91.7709 92.43 91.7809 91.27C91.7809 88.98 91.7909 86.69 91.8009 84.4C91.8009 83.13 91.8009 81.81 91.2009 80.69C90.6009 79.57 89.2209 78.77 88.0509 79.26" stroke="black" stroke-miterlimit="10"/>
<path d="M320.29 73.96C320.41 73.83 320.13 73.72 319.99 73.82C318.52 74.91 318.11 77.31 318.35 79.36C318.59 81.41 319.34 83.34 319.63 85.38C319.77 86.39 319.8 87.44 320.07 88.41C320.34 89.38 320.94 90.31 321.79 90.52C322.46 90.69 323.18 90.37 323.7 89.83C324.22 89.29 324.57 88.56 324.86 87.81C326.15 84.41 326.22 80.47 325.49 76.83C325.33 76.03 325.12 75.21 324.66 74.6C323.72 73.34 320.87 71.21 319.46 71.38C316.75 71.72 314.5 74.87 314.65 78.12C314.71 79.52 315.16 80.85 315.46 82.2C316.37 86.18 316.13 90.48 317.28 94.37C317.36 94.64 317.45 94.92 317.62 95.13C317.85 95.41 318.18 95.51 318.5 95.6C320.84 96.24 323.4 96.46 325.54 95.16C328.28 93.48 329.67 89.62 329.81 85.95C329.95 82.28 329.06 78.67 328.33 75.1C328.16 74.25 327.97 73.34 327.43 72.74C326.24 71.43 324.25 72.42 322.75 71.69" stroke="black" stroke-miterlimit="10"/>
<path d="M258.691 71.16C256.821 72.23 255.751 74.35 255.421 76.47C255.091 78.59 255.401 80.76 255.711 82.89C256.161 86.01 256.621 89.13 257.071 92.25C257.171 92.94 257.281 93.65 257.641 94.24C257.811 94.51 258.021 94.75 258.271 94.95C259.331 95.85 260.791 96.08 262.181 96.2C264.701 96.41 267.251 96.33 269.751 95.97C270.081 95.92 270.421 95.87 270.691 95.68C270.991 95.47 271.171 95.13 271.311 94.8C273.021 90.95 272.541 86.52 272.031 82.34C271.801 80.49 271.581 78.63 271.351 76.78C271.231 75.78 271.081 74.74 270.471 73.95C269.801 73.09 268.701 72.7 267.651 72.43C265.091 71.76 262.421 71.5 259.771 71.66" stroke="black" stroke-miterlimit="10"/>
<path d="M261.38 74.08C260.2 78.82 260.38 83.89 261.89 88.54C262.09 89.16 262.32 89.78 262.69 90.32C263.32 91.24 264.34 91.89 265.45 92.04C265.72 92.08 265.99 92.09 266.26 92.02C267.1 91.8 267.53 90.89 267.8 90.07C269.22 85.73 269.22 80.94 267.8 76.6C267.62 76.06 267.42 75.51 267.05 75.08C265.94 73.78 263.92 73.97 262.23 74.27" stroke="black" stroke-miterlimit="10"/>
<path d="M40.7402 116.64C72.6202 118.13 104.53 115.1 136.43 114.25" stroke="black" stroke-miterlimit="10"/>
<path d="M221.76 111.37C259.98 109.37 298.28 108.92 336.54 110.04" stroke="black" stroke-miterlimit="10"/>
<path d="M40.4297 60.68C88.9597 61.42 137.53 62.16 185.99 59.36C209.62 58 233.19 55.8 256.8 54.22C281.47 52.57 306.22 51.59 330.91 52.92" stroke="black" stroke-miterlimit="10"/>
<path d="M47.6498 134.34C47.0798 146.31 46.5198 158.28 45.9498 170.25C45.8998 171.24 45.8898 172.33 46.5298 173.09C47.2598 173.97 48.5598 174.05 49.6998 174.07C64.9498 174.29 80.1998 174.21 95.4498 173.83C97.4398 159.92 94.5898 145.82 91.7298 132.07C76.4098 132.32 61.0798 132.57 45.7598 132.82" stroke="black" stroke-miterlimit="10"/>
<path d="M43.7812 193.49C66.2412 193.25 88.6913 193.02 111.151 192.78" stroke="black" stroke-miterlimit="10"/>
<path d="M46.7586 208.13C47.3086 221.8 47.8586 235.48 48.4086 249.15C48.4386 249.98 48.5086 250.89 49.0886 251.48C49.7786 252.19 50.9086 252.17 51.8986 252.08C65.4286 250.87 79.0186 247.33 92.4286 249.49C92.8586 237.13 93.0086 224.75 92.8786 212.38C92.8786 211.8 92.8486 211.18 92.4986 210.72C92.1286 210.25 91.5086 210.08 90.9286 209.97C88.6186 209.52 86.2386 209.52 83.8786 209.52C70.6086 209.53 57.3386 209.54 44.0586 209.55" stroke="black" stroke-miterlimit="10"/>
<path d="M39.3301 266.97C70.2101 264.32 101.21 263.14 132.2 263.43" stroke="black" stroke-miterlimit="10"/>
<path d="M255.41 184.95C284.28 183.13 313.23 182.47 342.16 182.96" stroke="black" stroke-miterlimit="10"/>
<path d="M243.08 256.74C249.63 256.56 256.19 256.63 262.73 256.96" stroke="black" stroke-miterlimit="10"/>
<path d="M265.08 131.52C264.83 143.2 264.59 154.88 264.34 166.57L270.98 166.64C271.35 166.64 271.77 166.63 272.03 166.35C272.27 166.09 272.27 165.71 272.25 165.36C272.11 161.51 271.97 157.65 271.84 153.8C274.46 153.68 277.07 153.55 279.69 153.43C281.79 153.33 283.97 153.21 285.8 152.19C288.38 150.76 289.76 147.8 290.31 144.9C290.57 143.51 290.67 142.05 290.31 140.68C289.69 138.27 287.7 136.39 285.44 135.34C283.18 134.29 280.67 133.94 278.2 133.69C272.88 133.16 267.51 133.01 262.17 133.24" stroke="black" stroke-miterlimit="10"/>
<path d="M272.051 140.01C271.541 142.14 271.331 144.35 271.451 146.54C273.241 147.44 275.361 147.22 277.351 146.95C278.691 146.76 280.261 146.38 280.751 145.12C281.211 143.93 280.401 142.61 279.391 141.84C277.901 140.7 275.901 140.26 274.061 140.67" stroke="black" stroke-miterlimit="10"/>
<path d="M302.41 133.75L295.34 138.91C296.5 140.08 297.8 141.11 299.2 141.96C299.68 142.25 300.2 142.53 300.76 142.48C301.27 142.44 301.72 142.13 302.14 141.84C303.12 141.15 304.09 140.47 305.07 139.78C305.09 147.78 305.11 155.78 305.13 163.78C306.48 163.73 307.83 163.67 309.18 163.62C311.9 154.59 311.11 144.92 310.29 135.52L301.35 134.94" stroke="black" stroke-miterlimit="10"/>
<path d="M329.061 136.49C330.981 136.73 332.891 137.13 334.741 137.71C335.501 137.95 336.321 138.26 336.711 138.96C336.981 139.45 336.981 140.05 336.971 140.61C336.921 143.88 336.821 147.14 336.691 150.41C336.541 154.43 336.271 158.68 334.031 162.03C333.731 162.48 333.371 162.93 332.891 163.18C332.351 163.45 331.721 163.45 331.121 163.44C328.251 163.39 325.381 163.23 322.521 162.97C321.391 162.87 320.201 162.72 319.311 162.02C318.361 161.27 317.961 160.04 317.671 158.87C315.981 152.13 316.481 144.86 319.081 138.41C319.521 137.31 320.051 136.2 320.951 135.44C321.851 134.68 323.211 134.34 324.231 134.93C322.301 138.74 323.301 147.7 323.391 151.98C323.421 153.69 323.461 155.42 323.871 157.08C323.971 157.47 324.101 157.88 324.411 158.13C324.731 158.39 325.181 158.44 325.591 158.44C327.191 158.47 328.921 158.07 329.921 156.82C330.891 155.61 330.951 153.92 330.951 152.37C330.951 150.75 330.961 149.12 330.971 147.5C330.971 145.29 330.951 142.94 329.751 141.08C329.511 140.71 329.211 140.36 328.811 140.19C328.521 140.07 328.191 140.04 327.881 140.03C326.841 139.97 325.801 139.91 324.771 139.84" stroke="black" stroke-miterlimit="10"/>
<path d="M271.7 239.5C269.5 238.6 267.19 237.62 265.79 235.7C264.53 233.97 264.21 231.74 264.05 229.6C263.82 226.43 263.85 223.24 264.15 220.07C264.53 216.1 265.4 212 267.86 208.85C270.32 205.7 274.7 203.78 278.43 205.21C282.45 206.75 286.45 210.25 287.51 214.42C286.42 215.08 285.13 215.75 283.95 215.29C283.17 214.98 282.65 214.25 282.16 213.56C280.64 211.46 278.27 209.33 275.77 210.04C273.97 210.55 272.88 212.36 272.2 214.1C271.29 216.43 270.76 218.91 270.66 221.4C274.7 220.25 278.88 219.55 283.07 219.3C285.44 219.16 288.07 219.26 289.83 220.86C291.06 221.99 291.63 223.66 292.04 225.27C292.59 227.4 292.95 229.58 293.13 231.78C293.25 233.27 293.26 234.88 292.43 236.12C290.93 238.4 287.46 238.42 285.56 240.39" stroke="black" stroke-miterlimit="10"/>
<path d="M277.95 227.76C277.6 227.23 276.75 227.3 276.26 227.71C275.77 228.12 275.54 228.75 275.24 229.31C274.77 230.21 274.08 231.14 274.3 232.13C274.6 233.43 276.24 233.86 277.57 233.82C279.35 233.76 281.17 233.3 282.59 232.22C284.01 231.14 284.99 229.4 284.88 227.62C284.86 227.33 284.81 227.04 284.64 226.81C284.46 226.56 284.17 226.42 283.89 226.31C281.75 225.44 279.27 225.45 277.14 226.31" stroke="black" stroke-miterlimit="10"/>
<path d="M321.519 204.98C320.049 203.83 318.099 203.58 316.239 203.36C313.459 203.03 310.639 202.7 307.879 203.17C305.119 203.64 302.389 205.02 300.929 207.41C299.969 208.98 299.639 210.85 299.379 212.67C298.479 218.96 298.229 225.34 298.619 231.68C298.679 232.59 298.759 233.55 299.259 234.32C300.239 235.82 302.339 235.99 304.139 236C308.249 236.02 312.359 236.05 316.469 236.07C317.139 236.07 317.829 236.07 318.459 235.83C320.379 235.08 320.749 232.58 320.819 230.52C320.839 229.87 320.729 229.03 320.099 228.89C319.809 228.82 319.499 228.95 319.229 229.07C315.429 230.7 311.339 231.63 307.209 231.79C306.809 231.81 306.379 231.81 306.009 231.65C305.549 231.44 305.239 231.01 304.979 230.57C303.149 227.46 302.879 223.71 302.669 220.11C302.509 217.5 302.429 214.64 304.009 212.56C305.409 210.72 307.789 209.95 310.049 209.47C311.969 209.06 313.909 208.78 315.859 208.64C316.719 208.58 317.729 208.61 318.239 209.3C318.829 210.1 318.469 211.47 319.309 212.01C320.159 212.55 321.189 211.59 321.599 210.67C322.249 209.19 322.409 207.5 322.049 205.92" stroke="black" stroke-miterlimit="10"/>
<path d="M237.039 72.12C235.219 75.4 234.459 79.2 234.399 82.95C234.339 86.7 234.949 90.44 235.699 94.11C235.789 94.53 235.879 94.95 236.079 95.33C236.289 95.72 236.609 96.04 236.959 96.3C239.069 97.91 242.009 97.67 244.639 97.36C246.859 97.1 249.089 96.84 251.309 96.58C251.789 96.52 252.299 96.45 252.659 96.14C253.119 95.74 253.199 95.07 253.239 94.47C253.439 91.22 253.149 87.97 252.859 84.73C252.579 81.59 252.299 78.46 252.019 75.32C251.929 74.32 251.829 73.27 251.279 72.43C250.699 71.54 249.699 70.99 248.669 70.76C247.639 70.53 246.559 70.56 245.499 70.61C242.569 70.75 239.649 70.99 236.729 71.33" stroke="black" stroke-miterlimit="10"/>
<path d="M239.82 74.78C238.17 77.26 237.61 80.35 237.76 83.33C237.91 86.31 238.75 89.21 239.71 92.03C239.81 92.34 239.93 92.65 240.15 92.88C240.42 93.16 240.82 93.27 241.21 93.34C243.05 93.65 244.92 93.14 246.69 92.53C246.95 92.44 247.23 92.34 247.42 92.14C247.62 91.94 247.71 91.67 247.79 91.4C248.33 89.58 248.38 87.66 248.42 85.76C248.49 82.58 248.56 79.38 248.17 76.22C248.05 75.27 247.83 74.22 247.04 73.67C246.37 73.2 245.48 73.25 244.66 73.33C242.91 73.5 241.17 73.77 239.45 74.12" stroke="black" stroke-miterlimit="10"/>
<path d="M156.15 72.79C154.51 73.02 152.85 73.25 151.34 73.91C149.83 74.57 148.45 75.72 147.89 77.28C147.64 77.99 147.56 78.75 147.53 79.5C147.44 81.34 147.58 83.2 147.94 85.01C148.14 86.01 148.44 87.06 149.18 87.76C150.46 88.96 152.46 88.71 154.21 88.55C156.26 88.35 158.33 88.38 160.37 88.63C160.73 90.21 160.85 92.08 159.72 93.24C158.63 94.36 156.84 94.35 155.31 94.04C153.78 93.73 152.21 93.21 150.69 93.57C150.26 93.67 149.82 93.86 149.54 94.22C149.24 94.6 149.17 95.12 149.11 95.6C149.04 96.22 148.96 96.84 148.89 97.46C148.86 97.67 148.84 97.89 148.91 98.08C149.03 98.42 149.39 98.61 149.73 98.74C150.91 99.17 152.18 99.2 153.44 99.22C156.23 99.26 159.04 99.31 161.8 98.92C162.64 98.8 163.54 98.61 164.08 97.97C164.5 97.47 164.63 96.79 164.71 96.13C165.08 93.31 165.03 90.45 164.97 87.6C164.94 85.89 164.9 84.16 164.65 82.47C164.19 79.42 163.01 76.51 162.67 73.45C162.64 73.19 162.61 72.91 162.45 72.71C162.19 72.38 161.72 72.36 161.31 72.35C159.42 72.35 157.53 72.35 155.64 72.35" stroke="black" stroke-miterlimit="10"/>
<path d="M156.129 76.46C154.509 77.02 152.939 77.93 152.039 79.38C151.139 80.83 151.079 82.9 152.249 84.15C153.419 85.4 155.349 85.5 157.059 85.5C157.649 85.5 158.329 85.47 158.719 85.03C158.969 84.75 159.049 84.36 159.099 83.99C159.369 81.92 158.959 79.82 158.339 77.83C158.199 77.37 158.039 76.9 157.699 76.55C157.359 76.2 156.819 76.01 156.389 76.24" stroke="black" stroke-miterlimit="10"/>
<path d="M167.97 71.98C167.83 73.51 167.83 75.05 167.97 76.58C167.99 76.79 168.02 77.03 168.19 77.17C168.33 77.29 168.53 77.31 168.72 77.32C169.31 77.36 169.91 77.39 170.5 77.43C171.63 79.84 171.49 82.62 171.71 85.27C172.04 89.31 173.25 93.27 173.14 97.32C174.6 97.59 176.11 97.62 177.58 97.4C177.78 97.37 177.99 97.33 178.13 97.19C178.3 97.02 178.33 96.75 178.34 96.51C178.67 89.22 178.42 81.9 177.6 74.64C177.54 74.16 177.48 73.66 177.25 73.23C176.89 72.54 176.14 72.12 175.38 71.97C174.62 71.82 173.83 71.88 173.05 71.95C171.8 72.06 170.55 72.18 169.3 72.29" stroke="black" stroke-miterlimit="10"/>
<path d="M221.461 72.34C223.761 72.23 226.061 72.22 228.361 72.29C228.891 75.93 228.351 79.64 228.361 83.32C228.381 87.71 229.211 92.07 229.271 96.47C229.271 96.69 229.271 96.92 229.171 97.11C229.021 97.38 228.691 97.5 228.401 97.59C226.831 98.06 225.191 98.27 223.561 98.23C222.221 91.46 223.061 84.42 221.931 77.61H219.561C219.371 76.01 219.251 74.41 219.211 72.81C219.771 72.71 220.331 72.69 220.901 72.74" stroke="black" stroke-miterlimit="10"/>
</svg>
