<svg width="400" height="400" viewBox="0 0 400 400" fill="none" xmlns="http://www.w3.org/2000/svg">
<path d="M161.201 173.87C168.121 185.79 168.741 201.12 177.871 211.45C182.201 216.35 188.061 219.62 194.081 222.18C200.081 224.73 206.391 226.67 212.891 227.27C219.391 227.87 226.081 227.08 232.021 224.39C239.141 221.17 248.571 214.98 253.161 208.65C255.401 205.57 256.761 201.95 258.031 198.36C262.351 186.14 265.891 173.62 267.901 160.82" stroke="black" stroke-miterlimit="10"/>
<path d="M158.261 162.82C157.171 160.11 156.031 157.32 153.981 155.24C151.931 153.16 148.711 151.94 146.011 153.06C143.991 153.9 142.611 155.9 142.071 158.03C141.531 160.16 141.701 162.39 142.051 164.56C142.831 169.49 144.461 174.27 146.731 178.71C148.461 182.11 150.621 185.38 153.641 187.71C156.661 190.04 160.661 191.33 164.371 190.44" stroke="black" stroke-miterlimit="10"/>
<path d="M270.069 156.28C271.749 154.18 273.569 152.11 275.899 150.78C278.229 149.45 281.209 148.97 283.619 150.16C286.039 151.35 287.459 154 287.899 156.66C288.569 160.79 287.219 164.97 285.569 168.81C283.239 174.23 280.279 179.38 276.709 184.08C275.149 186.14 273.429 188.15 271.209 189.47C268.989 190.79 266.179 191.36 263.789 190.38" stroke="black" stroke-miterlimit="10"/>
<path d="M166.039 148.22C166.039 152.41 166.849 156.59 168.389 160.48C168.969 161.93 169.679 163.4 170.879 164.4C172.329 165.62 174.289 166.01 176.169 166.25C180.369 166.8 184.629 166.84 188.839 166.39C191.909 166.06 195.069 165.41 197.549 163.58C200.549 161.37 202.149 157.79 203.619 154.37C204.399 152.56 205.179 150.73 205.439 148.78C205.699 146.83 205.379 144.72 204.129 143.2" stroke="black" stroke-miterlimit="10"/>
<path d="M218.32 144.31C219.04 148.22 219.94 152.1 221.02 155.93C221.64 158.11 222.39 160.4 224.1 161.88C225.92 163.44 228.44 163.79 230.8 164.24C233.89 164.82 236.94 165.67 240.07 165.98C243.2 166.29 246.49 166.03 249.25 164.52C252.56 162.71 254.73 159.27 255.83 155.67C256.93 152.07 257.09 148.25 257.23 144.48" stroke="black" stroke-miterlimit="10"/>
<path d="M162.961 141.93C171.081 139.63 179.531 138.14 187.961 138.63C194.871 139.03 201.661 140.74 208.581 140.98C217.861 141.3 227.001 138.97 236.221 137.87C245.441 136.77 255.371 137.08 263.181 142.1" stroke="black" stroke-miterlimit="10"/>
<path d="M155.02 149.22C157.75 147.8 160.8 146.99 163.88 146.87" stroke="black" stroke-miterlimit="10"/>
<path d="M170.91 136.6C178.74 131.56 189.02 130.53 197.69 133.94" stroke="black" stroke-miterlimit="10"/>
<path d="M227.77 135.14C235.58 132.98 244.04 133.26 251.68 135.92" stroke="black" stroke-miterlimit="10"/>
<path d="M200.952 178.17L200.102 177.93C200.892 176.37 203.102 176.15 204.732 176.78C206.362 177.41 207.692 178.64 209.282 179.36C211.372 180.31 213.872 180.31 215.952 179.35C217.632 178.58 219.002 177.26 220.682 176.49C222.362 175.72 224.662 175.71 225.732 177.22" stroke="black" stroke-miterlimit="10"/>
<path d="M197.01 168.6C196.29 169.65 195.55 170.73 195.21 171.97C194.87 173.21 195.01 174.64 195.88 175.58" stroke="black" stroke-miterlimit="10"/>
<path d="M264.34 141.97C268.39 143.53 272.43 145.09 276.48 146.66C276.66 146.73 276.86 146.81 276.99 146.95C277.32 147.32 277.11 147.91 276.87 148.34C276.63 148.77 276.34 149.3 276.58 149.74" stroke="black" stroke-miterlimit="10"/>
<path d="M165.97 89.1799C161.85 94.3799 154.48 96.4599 151.03 102.14C149.53 104.6 148.95 107.51 148.66 110.38C147.25 124.14 151.98 137.79 152.37 151.62" stroke="black" stroke-miterlimit="10"/>
<path d="M169.27 82.8799C177.71 72.0799 189.85 64.2399 203.16 60.9699C216.47 57.6999 230.86 59.0399 243.35 64.6999C255.18 70.0599 264.97 78.9799 274.55 87.7499" stroke="black" stroke-miterlimit="10"/>
<path d="M276.49 90.9399C282.34 99.4999 285.14 110.09 284.3 120.43C283.58 129.33 280.28 137.79 278.11 146.46" stroke="black" stroke-miterlimit="10"/>
<path d="M170.891 85.08C174.171 86.99 178.101 87.77 181.861 87.27" stroke="black" stroke-miterlimit="10"/>
<path d="M176.721 82.1499C182.171 86.1299 189.531 85.8099 196.281 85.5499C208.031 85.1099 220.141 85.4499 230.981 89.9799C246.241 96.3599 257.601 111.25 259.711 127.65" stroke="black" stroke-miterlimit="10"/>
<path d="M263.16 122.03C260.6 107.68 251.97 94.52 239.83 86.46C248.29 89.52 256.25 93.94 263.33 99.5C262.25 97.74 261.17 95.98 260.08 94.22C264.8 98.1 270.38 100.93 276.3 102.43" stroke="black" stroke-miterlimit="10"/>
<path d="M264.48 119.54C269.43 126.28 271.47 135.09 269.98 143.31" stroke="black" stroke-miterlimit="10"/>
<path d="M174.192 91.22C169.592 99.59 162.832 106.77 154.762 111.88" stroke="black" stroke-miterlimit="10"/>
<path d="M169.299 104.09C168.799 108.54 164.259 111.33 162.339 115.37C159.919 120.48 162.039 126.7 160.299 132.08C159.429 134.76 157.669 137.04 156.409 139.55C155.149 142.06 154.439 145.16 155.769 147.64" stroke="black" stroke-miterlimit="10"/>
<path d="M188.07 153.48C190.418 153.48 192.32 151.326 192.32 148.67C192.32 146.013 190.418 143.86 188.07 143.86C185.723 143.86 183.82 146.013 183.82 148.67C183.82 151.326 185.723 153.48 188.07 153.48Z" fill="black"/>
<path d="M237.09 154.96C239.437 154.96 241.34 152.806 241.34 150.15C241.34 147.493 239.437 145.34 237.09 145.34C234.743 145.34 232.84 147.493 232.84 150.15C232.84 152.806 234.743 154.96 237.09 154.96Z" fill="black"/>
<path d="M174.55 207.04C175.22 217.16 175.2 227.32 174.5 237.44" stroke="black" stroke-miterlimit="10"/>
<path d="M255.692 204.2C254.412 213.98 253.132 223.75 251.852 233.53" stroke="black" stroke-miterlimit="10"/>
<path d="M172.02 235.24C184.69 242.53 198.63 247.62 213.03 250.19" stroke="black" stroke-miterlimit="10"/>
<path d="M225.721 248.1C235.581 245.07 244.811 240.02 252.661 233.34" stroke="black" stroke-miterlimit="10"/>
<path d="M252.391 227.85C254.241 228.64 256.081 229.42 257.931 230.21C258.421 237.13 259.981 243.98 262.531 250.43" stroke="black" stroke-miterlimit="10"/>
<path d="M173.89 231.48C171.73 232.32 169.37 233.36 168.45 235.48C168.07 236.37 167.99 237.35 167.92 238.31C167.73 240.84 167.53 243.37 167.34 245.89" stroke="black" stroke-miterlimit="10"/>
<path d="M195.039 194.77C206.929 199.99 221.179 199.5 232.679 193.48" stroke="black" stroke-miterlimit="10"/>
<path d="M205.281 202C209.581 204.2 214.701 203.98 219.491 203.33C220.371 203.21 221.401 202.97 221.751 202.16" stroke="black" stroke-miterlimit="10"/>
<path d="M200.27 196.61C209.4 197.4 218.65 196.88 227.63 195.05" stroke="black" stroke-miterlimit="10"/>
<path d="M211.359 250.73C214.789 252.28 217.609 255.14 219.109 258.59C221.459 256.38 223.529 253.86 225.249 251.13" stroke="black" stroke-miterlimit="10"/>
<path d="M227.129 253.18C234.469 259.93 241.109 267.44 246.899 275.55C247.739 275.26 248.129 274.33 248.449 273.5C251.509 265.6 256.669 258.52 263.259 253.2" stroke="black" stroke-miterlimit="10"/>
<path d="M166.179 247.51C165.379 251.78 163.769 255.9 161.479 259.59C161.089 260.22 160.669 260.86 160.589 261.59C160.349 263.65 162.679 264.95 164.609 265.69C174.659 269.57 184.429 274.21 193.789 279.55C194.369 279.88 194.999 280.23 195.659 280.14C196.659 280.01 197.249 278.98 197.689 278.06C201.479 270.11 205.269 262.16 209.049 254.21" stroke="black" stroke-miterlimit="10"/>
<path d="M263.93 251.86C278.91 257.37 294.73 261.71 310.65 265.76C316.64 267.29 322.73 268.8 328.05 271.24C342.72 277.98 349.05 290.37 358.09 300.81" stroke="black" stroke-miterlimit="10"/>
<path d="M158.66 258.02C142.38 267.09 126.11 276.16 109.83 285.23C103.67 288.66 97.3403 292.24 92.9803 297.78C86.5603 305.93 85.4003 317.01 80.5703 326.19" stroke="black" stroke-miterlimit="10"/>
<path d="M256.641 341.57C261.591 329.24 267.751 317.4 275.011 306.27C276.221 304.42 277.531 302.52 279.461 301.45C281.371 300.39 283.651 300.28 285.841 300.24C298.511 300.02 311.211 301.54 323.481 304.73C326.221 305.44 329.071 306.31 331.021 308.36C335.631 313.19 332.801 321.08 329.751 327.03C324.381 337.47 319.021 347.91 313.651 358.35" stroke="black" stroke-miterlimit="10"/>
<path d="M264.67 352.59C270.34 338.45 276.65 324.56 283.58 310.98C284.35 309.48 285.18 307.92 286.58 306.98C288.28 305.85 290.46 305.85 292.5 305.89C297.24 305.99 301.97 306.09 306.71 306.19C311.75 306.3 317.18 306.54 321.14 309.64" stroke="black" stroke-miterlimit="10"/>
<path d="M269.551 325.13C266.921 328.14 265.421 331.94 263.471 335.43C262.991 336.29 262.471 337.19 262.521 338.17C262.571 339.15 263.461 340.15 264.411 339.9C265.081 339.72 265.461 339.03 265.771 338.4C267.801 334.21 269.841 330.03 271.871 325.84C272.161 325.24 272.461 324.63 272.751 324.03C272.851 323.83 272.951 323.62 272.961 323.39C272.991 322.53 271.831 322.23 270.971 322.22" stroke="black" stroke-miterlimit="10"/>
<path d="M257.961 348.99C258.081 347.32 258.661 345.69 259.621 344.32C259.941 343.87 260.361 343.41 260.911 343.37C261.411 343.34 261.881 343.69 262.111 344.14C262.341 344.59 262.351 345.12 262.291 345.62C262.031 347.73 260.531 349.44 259.701 351.4" stroke="black" stroke-miterlimit="10"/>
<path d="M324.441 310.64C325.181 310.46 325.911 310.93 326.531 311.38C328.461 312.77 330.511 314.31 331.231 316.58" stroke="black" stroke-miterlimit="10"/>
<path d="M290.409 313.33C288.619 314.43 287.379 316.37 287.119 318.45C287.059 318.93 287.049 319.43 287.229 319.87C287.429 320.35 287.819 320.72 288.249 321.02C290.639 322.68 294.109 322.14 296.319 320.24C297.439 319.28 298.319 317.74 297.779 316.37C297.599 315.92 297.289 315.54 296.949 315.2C296.199 314.45 295.309 313.86 294.329 313.47" stroke="black" stroke-miterlimit="10"/>
<path d="M287.849 325.82C284.749 326.07 282.009 328.73 281.669 331.83C281.619 332.28 281.619 332.74 281.759 333.18C281.949 333.76 282.369 334.24 282.859 334.6C284.209 335.6 285.979 335.8 287.649 335.81C288.669 335.81 289.709 335.77 290.659 335.4C291.609 335.03 292.469 334.31 292.769 333.34C292.999 332.61 292.889 331.82 292.779 331.06C292.649 330.16 292.499 329.24 292.059 328.45C291.619 327.66 290.819 327 289.909 326.99" stroke="black" stroke-miterlimit="10"/>
<path d="M206.68 339.27C210.97 331.16 216.52 323.72 223.06 317.29C223.51 316.85 223.97 316.41 224.53 316.12C225.23 315.76 226.03 315.66 226.82 315.58C237.32 314.54 248.07 316.14 257.82 320.19C258.8 320.6 259.8 321.05 260.56 321.79C261.32 322.53 261.82 323.63 261.58 324.67" stroke="black" stroke-miterlimit="10"/>
<path d="M293.09 351.18C295.05 351.79 296.82 352.88 298.64 353.83C303.56 356.41 308.97 358.07 314.5 358.69" stroke="black" stroke-miterlimit="10"/>
<path d="M318.859 347.95C320.409 348.75 321.919 349.74 322.889 351.19C324.349 353.34 324.399 356.18 323.739 358.69C323.079 361.2 321.809 363.5 320.749 365.87C319.689 368.24 318.829 370.8 319.079 373.38" stroke="black" stroke-miterlimit="10"/>
<path d="M293.049 351.08C289.759 350.6 286.549 352.83 284.849 355.69C283.149 358.55 282.639 361.94 282.169 365.23C281.679 368.61 281.199 371.99 280.709 375.37C280.529 376.62 280.349 377.87 280.199 379.13C282.169 378.87 283.499 380.98 285.029 382.26C287.389 384.23 290.739 384.33 293.809 384.25C299.259 384.12 304.699 383.74 310.119 383.13" stroke="black" stroke-miterlimit="10"/>
<path d="M201.899 343.08C201.429 344.7 202.119 346.42 202.889 347.93C207.869 357.64 216.499 364.88 224.909 371.84" stroke="black" stroke-miterlimit="10"/>
<path d="M236.161 327.09C238.831 327.24 241.071 329.35 242.161 331.79C243.251 334.23 243.411 336.97 243.561 339.64C243.711 342.41 243.861 345.18 244.011 347.95C244.051 348.77 244.091 349.61 243.801 350.37C243.501 351.13 242.891 351.73 242.271 352.27C239.901 354.32 237.121 355.89 234.131 356.85" stroke="black" stroke-miterlimit="10"/>
<path d="M261.27 324.5C261.13 325.33 260.53 326.03 259.81 326.48C259.09 326.93 258.26 327.15 257.44 327.34C253.29 328.32 248.99 328.72 244.73 328.53" stroke="black" stroke-miterlimit="10"/>
<path d="M197.09 343.16C198.61 356.53 204.34 369.4 213.25 379.48" stroke="black" stroke-miterlimit="10"/>
<path d="M138.631 345.58C140.311 347.66 142.371 349.12 144.551 349.78C144.551 352.74 145.301 351.15 145.301 354.11C145.301 354.69 145.321 355.34 145.611 355.75C145.911 356.18 146.381 356.21 146.801 356.2C153.881 356.1 160.861 353.92 167.771 351.75C176.401 349.04 185.031 346.34 193.661 343.63" stroke="black" stroke-miterlimit="10"/>
<path d="M82.5906 38.74C82.3806 41.78 82.1606 44.82 81.9506 47.87C81.9106 48.45 81.8806 49.08 82.1806 49.57C82.5906 50.24 83.4706 50.45 84.2506 50.55C86.9606 50.92 89.7006 50.85 92.4406 50.78C113.501 50.24 134.561 49.7 155.611 49.15C157.241 49.11 159.071 48.97 160.121 47.73C160.821 46.91 161.001 45.79 161.161 44.72C161.501 42.45 161.701 39.76 160.011 38.21C158.731 37.04 156.811 36.97 155.081 36.97C131.001 36.95 106.931 37.34 82.8706 38.13" stroke="black" stroke-miterlimit="10"/>
<path d="M73.9486 39.5099C72.8986 39.2899 71.7786 39.7699 71.0486 40.5499C70.3186 41.3299 69.9286 42.3899 69.7586 43.4499C69.5986 44.4099 69.6286 45.4799 70.2286 46.2499C70.7386 46.9099 71.5686 47.2399 72.3886 47.4399C73.2686 47.6499 74.1786 47.7499 75.0786 47.7299C75.8986 47.7099 76.8086 47.5499 77.3186 46.8999C77.8586 46.2099 77.7686 45.2399 77.6286 44.3799C77.4786 43.3999 77.2886 42.4099 76.8086 41.5499C76.3286 40.6899 75.4786 39.9699 74.4886 39.8999" stroke="black" stroke-miterlimit="10"/>
<path d="M61.0507 39.41C60.0807 39.58 59.1307 40.01 58.4307 40.71C57.7307 41.41 57.3007 42.4 57.3707 43.39C57.4907 45.08 58.9907 46.38 60.5707 46.98C62.2207 47.61 64.2407 47.63 65.6007 46.51C66.8807 45.45 67.2607 43.44 66.4507 41.98C65.6507 40.55 64.0107 39.83 62.4607 39.3" stroke="black" stroke-miterlimit="10"/>
<path d="M166.28 41.24L167.49 40.18C167.62 40.07 167.76 39.95 167.93 39.97C168.07 39.98 168.18 40.09 168.28 40.18C168.86 40.74 169.44 41.31 170.02 41.87C170.13 41.98 170.27 42.1 170.42 42.1C170.56 42.1 170.68 42.01 170.79 41.93C171.56 41.34 172.32 40.75 173.09 40.15C173.21 40.06 173.34 39.96 173.49 39.93C174.09 39.81 174.38 40.71 174.95 40.92C174.15 41.81 173.2 42.57 172.16 43.16C173.23 44.37 174.38 45.51 175.61 46.56C174.8 47.23 173.93 47.82 173 48.31C172.02 47.15 170.99 46.02 169.91 44.94C168.72 45.88 167.52 46.79 166.29 47.68L164.99 45.48C166.06 44.91 167.09 44.28 168.08 43.59L165.98 41.65" stroke="black" stroke-miterlimit="10"/>
<path d="M57.4102 59.14C78.5602 59.04 99.7102 58.95 120.86 58.85C121.99 73.23 122.08 87.7 121.13 102.1C100.24 102.18 79.3602 102.25 58.4702 102.33C60.7102 88.69 60.7102 74.68 58.4502 61.05" stroke="black" stroke-miterlimit="10"/>
<path d="M130.439 58.87V64.95C143.949 66.51 157.629 63.75 171.189 64.69C171.279 63.35 171.379 62.02 171.469 60.68C157.269 61.02 143.069 61.36 128.869 61.7" stroke="black" stroke-miterlimit="10"/>
<path d="M129.909 71.78C138.669 71.11 147.459 70.93 156.239 71.24C156.519 71.24 156.839 71.28 157.009 71.5C157.149 71.67 157.149 71.91 157.149 72.13C157.139 72.76 157.109 73.39 157.079 74.02C157.069 74.26 157.049 74.51 156.909 74.71C156.629 75.12 156.029 75.1 155.539 75.04C146.879 73.96 138.059 74.13 129.449 75.55" stroke="black" stroke-miterlimit="10"/>
<path d="M130.669 79.69L131.099 83.72C140.959 83.02 150.869 82.87 160.749 83.29C160.729 82.31 160.719 81.34 160.699 80.36C150.669 80.53 140.639 80.43 130.619 80.06" stroke="black" stroke-miterlimit="10"/>
<path d="M130.719 90L130.209 93.27C130.199 93.35 130.179 93.44 130.209 93.52C130.289 93.71 130.539 93.73 130.749 93.71C136.059 93.3 141.399 93.24 146.709 93.52C146.899 93.53 147.119 93.53 147.249 93.39C147.339 93.3 147.359 93.16 147.379 93.04C147.499 92.31 147.619 91.58 147.739 90.84C147.759 90.73 147.769 90.6 147.699 90.52C147.629 90.44 147.509 90.44 147.409 90.44C141.869 90.46 136.329 90.52 130.789 90.63" stroke="black" stroke-miterlimit="10"/>
<path d="M62.1094 63.59C80.4594 76.09 98.8194 88.59 117.169 101.08" stroke="black" stroke-miterlimit="10"/>
<path d="M63.7695 101.85C82.7695 86.75 103.28 73.54 124.9 62.5" stroke="black" stroke-miterlimit="10"/>
<path d="M74.1908 115.5C73.0308 116.55 73.0608 118.53 74.0108 119.78C74.9608 121.03 76.5708 121.63 78.1408 121.71C78.9908 121.75 79.8708 121.65 80.6008 121.22C82.4708 120.11 82.4508 117.08 80.8608 115.59C79.2708 114.1 76.7408 114.02 74.7308 114.86" stroke="black" stroke-miterlimit="10"/>
<path d="M90.5312 118.1C103.541 118.24 116.561 118.38 129.571 118.52" stroke="black" stroke-miterlimit="10"/>
<path d="M76.6008 131.05C74.8808 130.74 73.7608 132.98 73.9908 134.71C74.2708 136.89 75.8208 138.92 77.9408 139.5C80.0608 140.08 82.5808 138.94 83.3208 136.88C84.0608 134.82 82.5908 132.18 80.4108 131.96" stroke="black" stroke-miterlimit="10"/>
<path d="M92.2695 135C105.05 134.72 117.83 134.45 130.61 134.17" stroke="black" stroke-miterlimit="10"/>
<path d="M76.5703 150.33C75.4103 150.02 74.1903 150.84 73.6403 151.9C73.0903 152.96 73.0403 154.21 73.0103 155.41C72.9903 156.32 73.0103 157.36 73.6803 157.98C74.0503 158.32 74.5503 158.47 75.0303 158.58C77.9903 159.21 81.2303 158.37 83.5203 156.39C84.3303 155.69 85.0703 154.67 84.8303 153.63C84.6903 153.05 84.2703 152.58 83.8303 152.17C82.3103 150.78 80.3703 149.86 78.3403 149.55" stroke="black" stroke-miterlimit="10"/>
<path d="M94.7109 152.69C106.441 152 118.221 152.34 129.891 153.71" stroke="black" stroke-miterlimit="10"/>
<path d="M137.96 171.68C112.3 173.02 86.5695 172.98 60.9095 171.57C61.6095 186.51 60.7995 202.12 59.7695 217.04C93.6195 218.63 127.43 212.5 161.3 213.44" stroke="black" stroke-miterlimit="10"/>
<path d="M52.3391 240.12C46.2691 171.61 43.5491 102.81 44.1891 34.04C58.5391 30.03 72.9091 27.99 87.8091 27.64C123.169 26.81 158.529 26.53 193.899 26.83C194.839 26.83 195.849 26.87 196.599 27.44C197.579 28.19 197.729 29.59 197.789 30.82C198.239 39.92 198.029 49.05 197.139 58.12" stroke="black" stroke-miterlimit="10"/>
</svg>
