<svg width="400" height="400" viewBox="0 0 400 400" fill="none" xmlns="http://www.w3.org/2000/svg">
<path d="M151.582 182.93C154.382 197.66 157.182 212.39 160.002 227.12C160.932 232 161.912 237.01 164.562 241.21C167.082 245.21 170.912 248.18 174.662 251.06C180.982 255.91 187.342 260.79 194.432 264.43C201.522 268.07 209.442 270.45 217.392 269.93" stroke="black" stroke-miterlimit="10"/>
<path d="M273.48 187.9C272.01 190.62 272.02 193.86 272.01 196.95C271.97 203 271.67 209.04 271.09 215.07C270.42 222.03 269.36 229.08 266.32 235.37C263.37 241.48 258.69 246.59 253.79 251.28C245.07 259.64 234.9 267.26 223 269.34" stroke="black" stroke-miterlimit="10"/>
<path d="M149.901 178.17C149.461 175.06 148.001 172.11 145.791 169.87C144.981 169.05 144.011 168.3 142.871 168.15C141.081 167.92 139.401 169.31 138.691 170.97C137.981 172.63 138.021 174.5 138.071 176.31C138.181 180.1 138.321 183.89 138.491 187.68C138.751 193.75 139.111 199.93 141.281 205.6C141.801 206.97 142.441 208.31 143.431 209.39C144.421 210.47 145.791 211.26 147.261 211.27C149.871 211.28 151.841 208.96 153.201 206.74" stroke="black" stroke-miterlimit="10"/>
<path d="M273.841 174.13C275.971 171.26 275.191 166.86 277.571 164.18C278.661 162.95 280.341 162.28 281.971 162.42C283.601 162.56 285.151 163.5 286.021 164.88C286.951 166.36 287.091 168.19 287.191 169.94C287.441 174.18 287.631 178.42 287.751 182.66C287.911 188.33 287.961 194.04 286.941 199.61C286.321 203.01 285.211 206.5 282.741 208.92C280.271 211.34 276.131 212.33 273.281 210.37" stroke="black" stroke-miterlimit="10"/>
<path d="M159.07 170.34L160.48 184.99C160.62 186.49 160.79 188.07 161.64 189.32C162.92 191.21 165.38 191.86 167.64 192.19C173.99 193.13 180.45 192.72 186.85 192.32C189.54 192.15 192.34 191.95 194.7 190.64C198.31 188.63 200.11 184.46 201.12 180.45C202.13 176.44 202.62 172.21 204.69 168.63" stroke="black" stroke-miterlimit="10"/>
<path d="M217.27 167.98L221.65 180.02C222.64 182.75 223.74 185.63 226.05 187.41C228.36 189.2 231.46 189.52 234.38 189.63C242.42 189.92 250.49 189.02 258.27 186.98C259.71 186.6 261.2 186.15 262.26 185.1C263.7 183.68 264.01 181.51 264.22 179.51C264.73 174.61 265.06 169.7 265.2 164.78" stroke="black" stroke-miterlimit="10"/>
<path d="M196.211 196.8C196.471 198.31 198.111 199.19 199.631 199.39C201.151 199.59 202.721 199.34 204.211 199.7C207.311 200.45 209.671 203.7 212.851 203.48C216.211 203.24 218.071 199.32 221.201 198.08C224.331 196.85 228.171 198.52 231.111 196.87" stroke="black" stroke-miterlimit="10"/>
<path d="M165.742 156.84C174.932 151.47 185.902 149.22 196.462 150.54C199.092 150.87 202.152 151.79 202.972 154.32" stroke="black" stroke-miterlimit="10"/>
<path d="M221.84 153.38C234.04 146.9 249.48 146.93 261.65 153.47" stroke="black" stroke-miterlimit="10"/>
<path d="M158.17 166.19C170.27 160.83 184.18 159.69 196.99 162.99C200.94 164.01 204.84 165.44 208.91 165.64C216.25 166 223.1 162.36 230.15 160.28C242.2 156.74 255.56 157.88 266.83 163.42" stroke="black" stroke-miterlimit="10"/>
<path d="M245.381 68.86C248.711 68.46 251.901 70.12 254.931 71.56C257.961 73 261.431 74.3 264.591 73.17C266.421 75.2 267.961 77.47 269.171 79.92" stroke="black" stroke-miterlimit="10"/>
<path d="M270.762 78.8C272.592 77.95 274.842 78.66 276.352 79.99C277.862 81.32 278.802 83.17 279.712 84.97C281.422 88.37 283.152 91.86 283.582 95.64C284.082 100.05 282.762 104.44 281.772 108.76C277.822 126.07 279.082 144.11 280.652 161.79" stroke="black" stroke-miterlimit="10"/>
<path d="M244.3 69.17C237.97 63.21 229.08 60.78 220.45 59.8C211.82 58.82 203.03 59.06 194.49 57.45C194.38 58.1 194.27 58.76 194.15 59.41C185.64 58.49 174.93 63.88 168.44 69.46C161.95 75.04 156.32 81.72 149.02 86.18C149.36 86.74 150.07 87.04 150.7 86.91" stroke="black" stroke-miterlimit="10"/>
<path d="M148.799 90.37C147.989 92.95 146.519 95.32 144.579 97.2C145.249 97.91 146.309 98.22 147.249 97.99C143.019 110.01 141.259 122.73 139.529 135.35C139.419 136.15 139.309 136.98 139.529 137.76C139.749 138.56 140.269 139.24 140.679 139.96C141.729 141.83 141.969 144.02 142.189 146.15C142.819 152.36 143.449 158.56 144.079 164.77" stroke="black" stroke-miterlimit="10"/>
<path d="M158.57 110.4C164.08 113.01 170.52 112.9 176.51 111.76C182.5 110.61 188.27 108.5 194.23 107.21C200.19 105.93 206.58 105.52 212.26 107.75" stroke="black" stroke-miterlimit="10"/>
<path d="M222.561 108.54C233.451 106.87 244.831 108.58 254.751 113.37C257.471 114.68 260.211 116.36 261.581 119.05C262.641 121.13 262.731 123.54 262.751 125.87C262.771 128.79 262.701 131.71 262.541 134.62C262.471 135.97 262.401 137.43 263.171 138.55C264.471 140.44 267.411 140.33 269.081 141.91C270.271 143.03 270.591 144.78 270.841 146.4C271.551 151.03 272.271 155.65 272.981 160.28" stroke="black" stroke-miterlimit="10"/>
<path d="M161.251 128.78C159.841 135.29 157.201 141.53 153.511 147.08C152.541 148.53 151.501 149.95 150.841 151.57C149.211 155.58 150.191 160.11 151.191 164.32" stroke="black" stroke-miterlimit="10"/>
<path d="M157.291 207.41C159.061 215.61 161.161 223.79 164.461 231.5C165.261 233.37 166.181 235.28 167.751 236.57C169.131 237.7 170.891 238.26 172.601 238.78C174.421 239.34 176.241 239.9 178.061 240.46C178.571 240.62 179.131 240.77 179.611 240.56C180.081 240.36 180.351 239.88 180.581 239.42C182.281 236.03 183.241 232.27 183.351 228.48" stroke="black" stroke-miterlimit="10"/>
<path d="M270.582 195.01C270.162 201.83 269.442 208.64 268.432 215.4C267.572 221.14 266.392 227.07 262.892 231.7C262.162 232.67 261.332 233.57 260.342 234.28C258.792 235.4 256.932 235.98 255.112 236.55C254.132 236.85 253.112 237.16 252.102 236.97C250.552 236.67 249.472 235.28 248.672 233.92C246.372 229.99 245.112 225.46 245.082 220.9" stroke="black" stroke-miterlimit="10"/>
<path d="M183.141 227.11C182.321 222.54 181.861 217.91 181.761 213.28C181.731 211.9 181.761 210.42 182.541 209.28C183.411 208 185.011 207.45 186.511 207.05C192.961 205.35 199.731 205.03 206.081 202.98" stroke="black" stroke-miterlimit="10"/>
<path d="M221.41 202.44C226.26 203.89 231.24 204.91 236.27 205.48C237.62 205.63 238.99 205.76 240.28 206.19C241.57 206.62 242.8 207.41 243.47 208.59C244.2 209.87 244.2 211.41 244.18 212.88C244.15 215.09 244.12 217.3 244.09 219.52" stroke="black" stroke-miterlimit="10"/>
<path d="M188.22 218.33C187.6 221.09 186.99 223.99 187.77 226.71C188.36 228.77 189.7 230.52 191.01 232.21C192.49 234.13 193.98 236.05 195.46 237.98C195.92 238.57 196.4 239.19 197.09 239.47C198.31 239.97 199.74 239.23 200.49 238.15C201.24 237.07 201.43 236.79 202.24 235.75C203.26 234.44 203.34 234.18 204.27 233.25C205.49 232.03 207.36 231.8 209.08 231.64C211.7 231.4 214.31 231.15 216.93 230.91C218.37 230.78 219.88 230.65 221.22 231.2C222.59 231.76 223.6 232.97 224.31 234.27C225.02 235.57 224.52 234.64 225.12 235.99C225.77 237.44 226.97 239 228.55 238.8C229.52 238.67 230.26 237.9 230.91 237.18C232.2 235.74 233.5 234.3 234.79 232.87C236.61 230.85 238.45 228.79 239.62 226.33C240.79 223.87 241.19 220.92 240.07 218.44" stroke="black" stroke-miterlimit="10"/>
<path d="M188.371 218.13C189.031 215.3 191.391 213.11 194.041 211.92C196.691 210.73 199.631 210.38 202.511 210.04C208.431 209.35 214.371 208.66 220.321 208.66C224.961 208.66 229.611 209.07 234.181 209.9C235.121 210.07 236.081 210.27 236.901 210.77C238.931 212.02 239.431 214.7 239.741 217.07" stroke="black" stroke-miterlimit="10"/>
<path d="M186.742 176.77C189.316 176.77 191.402 174.666 191.402 172.07C191.402 169.474 189.316 167.37 186.742 167.37C184.168 167.37 182.082 169.474 182.082 172.07C182.082 174.666 184.168 176.77 186.742 176.77Z" fill="black"/>
<path d="M237.791 174.31C240.364 174.31 242.451 172.098 242.451 169.37C242.451 166.642 240.364 164.43 237.791 164.43C235.217 164.43 233.131 166.642 233.131 169.37C233.131 172.098 235.217 174.31 237.791 174.31Z" fill="black"/>
<path d="M168.941 246.49C171.621 258.41 172.691 270.68 172.101 282.88" stroke="black" stroke-miterlimit="10"/>
<path d="M260.1 245.71C259.04 257.21 259.29 268.82 260.85 280.26" stroke="black" stroke-miterlimit="10"/>
<path d="M168.92 278.48C174.58 282.51 181.4 284.66 188.26 285.79C195.12 286.92 202.1 287.1 209.03 287.55C211.45 287.71 213.91 287.91 216.13 288.87C218.35 289.83 220.33 291.69 220.79 294.06" stroke="black" stroke-miterlimit="10"/>
<path d="M221.531 293.3C221.931 290.7 223.911 288.56 226.221 287.31C228.531 286.05 231.151 285.53 233.731 285.03C242.931 283.23 252.121 281.44 261.321 279.64C262.171 279.47 263.081 279.31 263.871 279.67C264.851 280.11 265.341 281.18 265.751 282.17C267.101 285.44 268.461 288.7 269.811 291.97" stroke="black" stroke-miterlimit="10"/>
<path d="M197.002 218C200.232 218.18 203.472 217.84 206.702 217.57C215.292 216.85 224.662 216.77 233.292 217.02C233.112 218.02 232.212 218.86 231.142 219.38C230.072 219.9 228.832 220.15 227.612 220.37C220.122 221.7 212.402 222.07 204.742 221.73C202.372 221.63 199.982 221.45 197.702 220.91C196.662 220.66 195.612 220.32 194.862 219.68C194.112 219.04 193.772 218.04 194.282 217.26" stroke="black" stroke-miterlimit="10"/>
<path d="M169.501 291.93C141.801 298.08 114.651 305.87 88.3308 315.2C85.6008 316.17 82.8408 317.18 80.6108 318.78C78.1008 320.6 76.4508 323.06 74.8508 325.47C70.4208 332.16 65.9808 338.85 61.5508 345.54" stroke="black" stroke-miterlimit="10"/>
<path d="M275.031 296.83C287.741 299.59 300.471 302.34 313.401 304.26C322.581 305.62 331.921 306.57 340.731 309.09C349.541 311.61 357.951 315.92 362.701 322.47C364.111 324.42 365.171 326.52 366.221 328.61C368.241 332.62 370.251 336.62 372.271 340.63" stroke="black" stroke-miterlimit="10"/>
<path d="M66.1498 115.87C51.3298 134.95 35.0998 152.93 17.6498 169.63C13.2098 173.88 8.27978 179.22 9.50978 185.24C10.2398 188.81 13.0098 191.56 15.6498 194.07C31.2298 208.9 46.7998 223.74 62.3798 238.57C66.5298 234.71 70.2498 230.39 73.4298 225.7C57.1098 212.03 40.7998 198.35 24.4798 184.68C42.4598 164.87 60.4398 145.05 78.4198 125.24L66.7198 117.58" stroke="black" stroke-miterlimit="10"/>
<path d="M311.93 125.98C320.59 131.27 326.59 139.85 333.02 147.7C339.45 155.54 346.54 162.85 354.19 169.52C359.19 173.88 365.01 179.84 362.75 186.08C362.16 187.7 361.07 189.07 360 190.42C345.39 208.74 330.78 227.05 316.18 245.37C317.69 250.78 324.72 252.98 330.07 251.26C335.42 249.53 339.38 245.11 343.01 240.82C355.94 225.55 368.1 209.62 379.41 193.1C381.37 190.24 383.37 187.17 383.55 183.71C383.9 177.11 377.8 172.22 372.44 168.36C352.44 153.95 334.05 137.29 317.75 118.79C314.85 119.32 312.29 121.44 311.24 124.19" stroke="black" stroke-miterlimit="10"/>
<path d="M120.209 119.55C108.609 155.98 95.9094 192.06 82.1294 227.72C81.2694 229.96 80.6594 233.04 82.7094 234.28C83.5594 234.79 84.6194 234.77 85.6094 234.82C88.9594 234.99 92.2594 236.16 94.9694 238.14C107.369 201.72 119.769 165.31 132.169 128.89C132.849 126.89 133.409 124.37 131.869 122.93C131.219 122.33 130.329 122.07 129.479 121.83C126.259 120.94 123.029 120.05 119.809 119.16" stroke="black" stroke-miterlimit="10"/>
</svg>
