<svg width="358" height="120" viewBox="0 0 358 120" fill="none" xmlns="http://www.w3.org/2000/svg">
<mask id="path-1-inside-1_283_9292" fill="white">
<path d="M0 0H358V120H0V0Z"/>
</mask>
<path d="M0 0H358V120H0V0Z" fill="white"/>
<path d="M90.6667 45C91.5507 45 92.3986 45.3512 93.0237 45.9763C93.6488 46.6014 94 47.4493 94 48.3333V71.6667C94 72.5507 93.6488 73.3986 93.0237 74.0237C92.3986 74.6488 91.5507 75 90.6667 75H67.3333C66.4493 75 65.6014 74.6488 64.9763 74.0237C64.3512 73.3986 64 72.5507 64 71.6667V48.3333C64 47.4493 64.3512 46.6014 64.9763 45.9763C65.6014 45.3512 66.4493 45 67.3333 45H90.6667ZM89.8333 70.8333V62C89.8333 60.559 89.2609 59.177 88.2419 58.1581C87.223 57.1391 85.841 56.5667 84.4 56.5667C82.9833 56.5667 81.3333 57.4333 80.5333 58.7333V56.8833H75.8833V70.8333H80.5333V62.6167C80.5333 61.3333 81.5667 60.2833 82.85 60.2833C83.4688 60.2833 84.0623 60.5292 84.4999 60.9668C84.9375 61.4043 85.1833 61.9978 85.1833 62.6167V70.8333H89.8333ZM70.4667 54.2667C71.2093 54.2667 71.9215 53.9717 72.4466 53.4466C72.9717 52.9215 73.2667 52.2093 73.2667 51.4667C73.2667 49.9167 72.0167 48.65 70.4667 48.65C69.7196 48.65 69.0032 48.9468 68.475 49.475C67.9468 50.0032 67.65 50.7196 67.65 51.4667C67.65 53.0167 68.9167 54.2667 70.4667 54.2667ZM72.7833 70.8333V56.8833H68.1667V70.8333H72.7833Z" fill="#1A1A1A"/>
<path d="M171.405 48.916C172.47 48.916 173.455 48.9993 174.355 49.246C175.257 49.411 175.995 49.741 176.65 50.1527C177.307 50.566 177.798 51.1427 178.125 51.8843C178.453 52.626 178.618 53.5343 178.618 54.5227C178.618 55.6777 178.372 56.666 177.798 57.4077C177.307 58.151 176.487 58.8094 175.503 59.3044C176.897 59.7177 177.962 60.4594 178.618 61.4494C179.273 62.4377 179.683 63.6743 179.683 65.076C179.683 66.231 179.437 67.2194 179.027 68.0443C178.618 68.8694 177.962 69.611 177.223 70.106C176.421 70.6366 175.535 71.0266 174.602 71.2594C173.618 71.5077 172.635 71.6727 171.652 71.6727H160.667V48.916H171.405ZM170.748 58.1494C171.65 58.1494 172.388 57.9027 172.962 57.491C173.535 57.0793 173.782 56.336 173.782 55.4294C173.782 54.9344 173.698 54.441 173.535 54.111C173.372 53.781 173.125 53.5327 172.798 53.286C172.47 53.121 172.142 52.956 171.732 52.8743C171.322 52.791 170.913 52.791 170.42 52.791H165.667V58.151H170.75L170.748 58.1494ZM170.995 67.8794C171.487 67.8794 171.978 67.796 172.388 67.7143C172.798 67.631 173.208 67.4677 173.535 67.2194C173.869 66.9781 174.148 66.6691 174.355 66.3127C174.518 65.901 174.683 65.406 174.683 64.8294C174.683 63.6744 174.355 62.8494 173.7 62.2727C173.043 61.7777 172.142 61.531 171.077 61.531H165.667V67.881L170.995 67.8794ZM186.815 67.796C187.47 68.456 188.453 68.786 189.765 68.786C190.667 68.786 191.487 68.5394 192.142 68.1277C192.798 67.6327 193.208 67.1377 193.372 66.6444H197.388C196.732 68.621 195.748 70.0227 194.438 70.931C193.125 71.7544 191.568 72.2494 189.683 72.2494C188.477 72.2531 187.281 72.0292 186.158 71.5894C185.148 71.2104 184.246 70.5875 183.535 69.776C182.774 69.017 182.211 68.0823 181.897 67.0543C181.487 65.9827 181.322 64.8294 181.322 63.5094C181.322 62.2727 181.487 61.1194 181.897 60.046C182.291 59.0133 182.875 58.0632 183.618 57.2444C184.367 56.4758 185.257 55.8594 186.24 55.4294C187.334 54.9895 188.504 54.7653 189.683 54.7694C191.077 54.7694 192.307 55.0177 193.372 55.5944C194.438 56.171 195.257 56.831 195.912 57.821C196.568 58.7277 197.062 59.7994 197.388 60.9544C197.552 62.1077 197.633 63.2627 197.552 64.581H185.667C185.667 65.901 186.158 67.1377 186.815 67.7977V67.796ZM191.978 59.1394C191.405 58.5627 190.503 58.2327 189.437 58.2327C188.7 58.2327 188.125 58.3994 187.633 58.646C187.142 58.8927 186.815 59.2227 186.487 59.5527C186.184 59.8713 185.984 60.2729 185.912 60.706C185.83 61.1194 185.748 61.4494 185.748 61.7777H193.125C192.962 60.541 192.552 59.7177 191.978 59.1394ZM184.765 50.4827H193.945V52.7093H184.767V50.4827H184.765Z" fill="#1A1A1A"/>
<path d="M271.999 43.333H285.999C291.333 43.333 295.666 47.6663 295.666 52.9997V66.9997C295.666 69.5634 294.647 72.0222 292.835 73.835C291.022 75.6479 288.563 76.6663 285.999 76.6663H271.999C266.666 76.6663 262.333 72.333 262.333 66.9997V52.9997C262.333 50.4359 263.351 47.9772 265.164 46.1643C266.977 44.3515 269.435 43.333 271.999 43.333ZM271.666 46.6663C270.075 46.6663 268.548 47.2985 267.423 48.4237C266.298 49.5489 265.666 51.075 265.666 52.6663V67.333C265.666 70.6497 268.349 73.333 271.666 73.333H286.333C287.924 73.333 289.45 72.7009 290.575 71.5757C291.7 70.4504 292.333 68.9243 292.333 67.333V52.6663C292.333 49.3497 289.649 46.6663 286.333 46.6663H271.666ZM287.749 49.1663C288.302 49.1663 288.832 49.3858 289.222 49.7765C289.613 50.1672 289.833 50.6971 289.833 51.2497C289.833 51.8022 289.613 52.3321 289.222 52.7228C288.832 53.1135 288.302 53.333 287.749 53.333C287.197 53.333 286.667 53.1135 286.276 52.7228C285.885 52.3321 285.666 51.8022 285.666 51.2497C285.666 50.6971 285.885 50.1672 286.276 49.7765C286.667 49.3858 287.197 49.1663 287.749 49.1663ZM278.999 51.6663C281.209 51.6663 283.329 52.5443 284.892 54.1071C286.455 55.6699 287.333 57.7895 287.333 59.9997C287.333 62.2098 286.455 64.3294 284.892 65.8922C283.329 67.455 281.209 68.333 278.999 68.333C276.789 68.333 274.669 67.455 273.107 65.8922C271.544 64.3294 270.666 62.2098 270.666 59.9997C270.666 57.7895 271.544 55.6699 273.107 54.1071C274.669 52.5443 276.789 51.6663 278.999 51.6663ZM278.999 54.9997C277.673 54.9997 276.401 55.5265 275.464 56.4641C274.526 57.4018 273.999 58.6736 273.999 59.9997C273.999 61.3258 274.526 62.5975 275.464 63.5352C276.401 64.4729 277.673 64.9997 278.999 64.9997C280.325 64.9997 281.597 64.4729 282.535 63.5352C283.472 62.5975 283.999 61.3258 283.999 59.9997C283.999 58.6736 283.472 57.4018 282.535 56.4641C281.597 55.5265 280.325 54.9997 278.999 54.9997Z" fill="#1A1A1A"/>
<path d="M358 120V121H359V120H358ZM0 120H-1V121H0V120ZM357 0V120H359V0H357ZM358 119H0V121H358V119ZM1 120V0H-1V120H1Z" fill="#1A1A1A" mask="url(#path-1-inside-1_283_9292)"/>
</svg>
