<svg width="32" height="32" viewBox="0 0 32 32" fill="none" xmlns="http://www.w3.org/2000/svg">
<path fill-rule="evenodd" clip-rule="evenodd" d="M4 0C1.79086 0 0 1.79086 0 4V28C0 30.2091 1.79086 32 4 32H28C30.2091 32 32 30.2091 32 28V4C32 1.79086 30.2091 0 28 0H4ZM24.4201 13.4083C25.1979 12.624 25.1926 11.3577 24.4083 10.5799C23.624 9.80211 22.3577 9.80741 21.5799 10.5917L14.9703 17.2568L11.8178 14.4955C10.9869 13.7677 9.72332 13.8513 8.99553 14.6822C8.26773 15.5131 8.35132 16.7767 9.18221 17.5045L13.0418 20.8851C14.234 21.9294 16.0327 21.8662 17.1487 20.7408L24.4201 13.4083Z" fill="#1A1A1A"/>
</svg>
