<svg width="138" height="178" viewBox="0 0 138 178" fill="none" xmlns="http://www.w3.org/2000/svg">
<path fill-rule="evenodd" clip-rule="evenodd" d="M60 120.344C67.0773 120.344 73.8685 119.115 80.1728 116.858C79.6243 118.999 79.7795 121.331 80.763 123.488L102.948 172.132C105.92 178.649 114.577 180.024 119.416 174.747L134.654 158.132C138.415 154.031 138.102 147.645 133.958 143.927L97.6118 111.326C96.6758 110.486 95.6126 109.849 94.483 109.42C109.916 98.5319 120 80.5329 120 60.1719C120 26.9399 93.1371 0 60 0C26.8629 0 0 26.9399 0 60.1719C0 93.4039 26.8629 120.344 60 120.344ZM60 114.327C89.8234 114.327 114 90.0807 114 60.1719C114 30.2631 89.8234 6.01719 60 6.01719C30.1766 6.01719 6 30.2631 6 60.1719C6 90.0807 30.1766 114.327 60 114.327ZM100 60.1719C100 82.3266 82.0914 100.286 60 100.286C37.9086 100.286 20 82.3266 20 60.1719C20 38.0172 37.9086 20.0573 60 20.0573C82.0914 20.0573 100 38.0172 100 60.1719ZM67.9917 58.1617C71.0469 55.6796 73 51.8867 73 47.6362C73 40.159 66.9558 34.0976 59.5 34.0976C52.0442 34.0976 46 40.159 46 47.6362C46 52.0859 48.1405 56.0342 51.4451 58.502C49.9806 59.4378 48.6148 60.1879 47.3734 60.8698L47.3734 60.8698C42.8671 63.3448 40 64.9195 40 71.2038C40 82.2811 48.9543 86.2468 60 86.2468C71.0457 86.2468 80 82.2811 80 71.2038C80 64.9326 77.1154 63.3513 72.6165 60.8852C71.2181 60.1186 69.6638 59.2666 67.9917 58.1617Z" fill="#1A1A1A"/>
</svg>
