<svg width="46" height="10" viewBox="0 0 46 10" fill="none" xmlns="http://www.w3.org/2000/svg">
<path fill-rule="evenodd" clip-rule="evenodd" d="M10 5C10 7.76142 7.76142 10 5 10C2.23858 10 0 7.76142 0 5C0 2.23858 2.23858 0 5 0C7.76142 0 10 2.23858 10 5ZM28 5C28 7.76142 25.7614 10 23 10C20.2386 10 18 7.76142 18 5C18 2.23858 20.2386 0 23 0C25.7614 0 28 2.23858 28 5ZM41 10C43.7614 10 46 7.76142 46 5C46 2.23858 43.7614 0 41 0C38.2386 0 36 2.23858 36 5C36 7.76142 38.2386 10 41 10Z" fill="white"/>
</svg>
