<svg width="624" height="838" viewBox="0 0 624 838" fill="none" xmlns="http://www.w3.org/2000/svg">
<path fill-rule="evenodd" clip-rule="evenodd" d="M221.188 2.29125C216.517 5.57048 209.583 17.9097 209.583 22.9428C209.583 25.2459 208.815 28.5664 207.878 30.3235C206.94 32.0806 206.685 34.7122 207.312 36.1709C207.938 37.6311 208.649 41.6818 208.89 45.1737C209.132 48.6656 209.818 54.1765 210.415 57.4193C211.554 63.6063 210.705 65.2444 199.684 78.0994C195.218 83.3103 193.91 86.7149 197.144 84.7118C198.43 83.915 198.638 84.8674 197.86 87.9784C195.201 98.5954 195.042 101.97 196.899 108.609C198.65 114.885 198.533 116.246 195.831 120.895C194.048 123.961 189.877 127.531 185.745 129.528C181.87 131.399 176.618 135.137 174.073 137.834C171.712 139.292 171.382 144.267 172.389 145.992C173.396 147.717 173.957 152.772 174.073 154.756C174.518 156.704 175.246 160.311 179.211 166.66C180.691 169.622 180.606 173.009 186.348 176.977C196.403 180.294 195.842 172.43 197.649 172.078C196.964 175.239 194.49 186.784 193.707 195.673C192.925 204.561 191.598 214.607 190.758 217.997C189.732 222.141 189.786 225.521 190.921 228.314C191.849 230.598 193.146 240.534 193.804 250.393C194.819 265.63 195.587 269.209 198.932 274.276C203.126 280.625 212.412 286.155 223.442 288.869C231.237 290.786 231.38 291.461 228.382 312.162C226.351 326.18 224.769 329.074 219.82 327.829C217.411 327.223 205.57 332.396 180.897 344.833C141.004 364.944 113.287 376.999 100.107 379.975C94.8675 381.156 86.0694 385.187 78.7395 389.762C54.1698 405.096 39.8014 423.78 30.6406 452.301C21.0855 482.052 13.1379 513.879 8.44661 541.186C5.82381 556.463 2.91434 572.177 1.98306 576.105C-0.869392 588.135 -0.693587 591.222 2.82882 590.908C12.2161 590.075 13.6827 597.435 9.02787 622.012C6.72976 634.146 6.67116 639.108 8.48621 667.619C10.8017 703.983 9.90848 727.798 5.2869 752.954C1.99573 770.872 1.01377 804.776 3.13608 827.286L4.14497 838H52.9423H101.74L102.53 832.841C102.964 830.003 103.716 816.969 104.199 803.874C105.538 767.668 107.97 728.958 109.684 716.576C112.486 696.339 114.618 683.444 115.272 682.79C116.708 681.349 122.44 695.39 126.477 710.243C130.961 726.736 131.074 732.866 127.274 753.876C126.406 758.678 124.581 771.534 123.221 782.447C121.861 793.359 119.353 809.211 117.651 817.671C115.948 826.132 114.554 834.168 114.554 835.527C114.554 837.752 134.246 838 311.445 838H508.335L507.691 828.873C507.338 823.853 507.759 813.318 508.63 805.461C509.932 793.718 509.702 787.929 507.344 772.923C504.626 755.624 498.828 730.377 491.8 705.242L488.633 693.906L492.397 664.767C496.308 634.517 498.167 625.157 499.756 627.754C500.267 628.592 502.474 635.706 504.656 643.563C506.84 651.42 511.113 666.419 514.151 676.895C521.541 702.381 523.03 716.501 523.863 768.955C524.251 793.398 525.073 818.932 525.689 825.699L526.81 838H572.294H617.777L618.784 830.635C620.896 815.202 619.895 738.823 617.411 725.842C616.103 719 613.976 703.759 612.685 691.974C611.394 680.189 609.934 667.332 609.441 663.404C608.95 659.475 607.927 646.261 607.172 634.04C606.415 621.818 604.511 605.111 602.941 596.911L600.086 582.004L607.167 575.861C611.062 572.482 616.621 568.847 619.522 567.785C625.878 565.457 625.892 565.614 616.811 538.805C613.263 528.329 608.575 513.165 606.394 505.107C600.51 483.369 587.024 450.821 572.904 424.273C562.844 405.361 558.381 398.741 550.081 390.422C537.568 377.878 518.641 367.931 501.865 365.08C489.198 362.928 471.577 356.336 445.545 344.013C435.511 339.264 421.97 333.766 415.452 331.794C396.895 326.18 381.08 319.1 378.621 315.303C373.123 306.819 370.547 294.472 370.444 276.117C370.352 259.788 370.781 256.835 374.516 248.115C376.812 242.753 381.622 234.474 385.206 229.717C388.79 224.96 391.722 220.64 391.722 220.114C391.722 219.589 394.508 214.654 397.913 209.148C402.516 201.707 405.147 194.652 408.159 181.676C418.318 137.924 419.44 127.926 417.025 102.711C414.421 75.5297 412.622 71.3393 398.906 60.5001C392.577 55.4987 383.071 46.3816 377.785 40.239C370.409 31.6726 366.625 28.6077 361.539 27.0808C357.802 25.9586 352.744 22.7206 349.943 19.6557C343.504 12.6131 336.916 10.7465 325.778 12.8099C321.002 13.694 315.533 14.1432 313.624 13.8067C310.268 13.213 310.259 13.1543 313.323 11.9877C323.292 8.19419 323.168 8.32276 318.132 7.00218C315.548 6.32601 306.171 6.66092 297.289 7.74977C284.637 9.29891 280.367 9.31161 277.564 7.80691C275.594 6.75139 267.155 5.01336 258.81 3.94674C250.463 2.88011 242.482 1.5008 241.071 0.881778C239.286 0.0992686 238.26 0.707182 237.691 2.88646C237.243 4.60703 234.12 7.76881 230.753 9.91159C227.385 12.0559 223.272 15.332 221.612 17.1907C217.813 21.4476 215.919 21.4889 215.919 17.3176C215.919 12.1718 220.317 4.99273 225.046 2.4214C227.503 1.08653 228.333 0.0373687 226.963 0.000862229C225.631 -0.034057 223.033 0.99606 221.188 2.29125Z" fill="#1A1A1A"/>
</svg>
